<svg width="22" height="22" viewBox="0 0 22 22" fill="none" xmlns="http://www.w3.org/2000/svg">
<path d="M11.7832 4.40002H7.06747C6.7361 4.40002 6.46747 4.66865 6.46747 5.00003V21.4C6.46747 21.7314 6.7361 22 7.06747 22H11.7832C12.1146 22 12.3832 21.7314 12.3832 21.4V5.00002C12.3832 4.66865 12.1146 4.40002 11.7832 4.40002Z" fill="#13377D"/>
<path d="M21 0H15.9068C15.3545 0 14.9068 0.447716 14.9068 1V21C14.9068 21.5523 15.3545 22 15.9068 22H21C21.5523 22 22 21.5523 22 21V1C22 0.447715 21.5523 0 21 0Z" fill="#13377D"/>
<path d="M3.44385 9H0.5C0.223858 9 0 9.22386 0 9.5V21.5C0 21.7761 0.223858 22 0.5 22H3.44385C3.71999 22 3.94385 21.7761 3.94385 21.5V9.5C3.94385 9.22386 3.71999 9 3.44385 9Z" fill="#13377D"/>
</svg>
