<svg width="25" height="24" viewBox="0 0 25 24" fill="none" xmlns="http://www.w3.org/2000/svg">
<path d="M17.9084 8.97762C20.3444 8.97762 22.3192 6.96791 22.3192 4.48881C22.3192 2.00971 20.3444 0 17.9084 0C15.4724 0 13.4977 2.00971 13.4977 4.48881C13.4977 6.96791 15.4724 8.97762 17.9084 8.97762Z" fill="#13377D"/>
<path d="M13.0295 10.443L11.5728 13.6661C11.3142 14.3995 11.6566 15.2827 12.3374 15.6393L16.9768 17.5232C17.6575 17.8798 18.7756 17.9094 19.4739 17.5895L24.2239 15.573C24.9219 15.2531 25.2006 14.434 24.8461 13.7434L22.9613 10.3654C22.6067 9.67513 21.8976 9.59044 21.2519 10.0095C20.5043 10.4948 19.3762 10.9964 17.9084 10.9964C16.4405 10.9964 15.3124 10.4948 14.5648 10.0098C13.9192 9.59076 13.288 9.70963 13.0295 10.443Z" fill="#13377D"/>
<path d="M6.42199 15.1663C8.85799 15.1663 10.8327 13.1566 10.8327 10.6775C10.8327 8.19837 8.85799 6.18866 6.42199 6.18866C3.98599 6.18866 2.01123 8.19837 2.01123 10.6775C2.01123 13.1566 3.98599 15.1663 6.42199 15.1663Z" fill="#13377D"/>
<path d="M1.54295 16.6316L0.0862591 19.8548C-0.172326 20.5881 0.170118 21.4713 0.850862 21.8279L5.49029 23.7118C6.17097 24.0684 7.2891 24.0981 7.98744 23.7782L12.7374 21.7616C13.4354 21.4417 13.7141 20.6227 13.3595 19.9321L11.4748 16.5541C11.1202 15.8638 10.4111 15.7791 9.76542 16.1982C9.01783 16.6835 7.88969 17.185 6.42184 17.185C4.954 17.185 3.82586 16.6835 3.07827 16.1985C2.43264 15.7794 1.80147 15.8983 1.54295 16.6316Z" fill="#13377D"/>
</svg>
