<svg width="26" height="25" viewBox="0 0 26 25" fill="none" xmlns="http://www.w3.org/2000/svg">
<path d="M26 15.3968V10.6032C26 10.0509 25.5523 9.60316 25 9.60316H24.1016C23.6606 9.60316 23.2764 9.31231 23.118 8.90078C23.0264 8.66287 22.9257 8.42828 22.8159 8.19732C22.619 7.78305 22.6861 7.28309 23.0167 6.96518L23.573 6.43028C23.9822 6.03683 23.9822 5.38207 23.573 4.98862L20.7552 2.27923C20.3681 1.907 19.7561 1.90701 19.369 2.27924L18.7153 2.90779C18.404 3.20713 17.9375 3.26851 17.5434 3.09206C17.2788 2.97365 17.0096 2.8658 16.7362 2.76869C16.3133 2.61849 16.0127 2.22919 16.0127 1.78044V1C16.0127 0.447715 15.565 0 15.0127 0H10.9873C10.435 0 9.98728 0.447715 9.98728 1V1.78044C9.98728 2.22919 9.6866 2.61849 9.26373 2.76869C8.99034 2.8658 8.72116 2.97365 8.45664 3.09206C8.06246 3.26851 7.59597 3.20714 7.28467 2.90781L6.63099 2.27927C6.24388 1.90704 5.63188 1.90704 5.24477 2.27927L2.427 4.98866C2.01781 5.38211 2.01781 6.03688 2.427 6.43033L2.98329 6.96523C3.31392 7.28314 3.38098 7.7831 3.1841 8.19737C3.07435 8.42832 2.97361 8.6629 2.88203 8.90081C2.72361 9.31235 2.33945 9.6032 1.89848 9.6032H1C0.447716 9.6032 0 10.0509 0 10.6032V14.3968C0 14.9491 0.447715 15.3968 1 15.3968H1.89848C2.33945 15.3968 2.72361 15.6877 2.88203 16.0992C2.97361 16.3371 3.07434 16.5717 3.18408 16.8026C3.38096 17.2169 3.31391 17.7169 2.98327 18.0348L2.427 18.5697C2.01781 18.9631 2.01781 19.6179 2.427 20.0113L5.24477 22.7207C5.63188 23.093 6.24388 23.093 6.63099 22.7207L7.40068 21.9806C7.64276 21.7479 8.00589 21.6995 8.31045 21.8409C8.79587 22.0665 9.32441 21.6924 9.32441 21.1571V18.8304C9.32441 18.4785 9.13602 18.1569 8.84949 17.9526C7.09258 16.6998 6.03584 14.7169 6.03584 12.5745C6.03584 9.86835 7.71296 7.4433 10.3086 6.39651C10.8136 6.19281 11.3644 6.56456 11.3644 7.10912V11.2271C11.3644 11.5842 11.5548 11.9143 11.864 12.0929L12.5004 12.4607C12.81 12.6396 13.1915 12.6396 13.5011 12.4607L14.1375 12.0929C14.4467 11.9143 14.6371 11.5842 14.6371 11.2271V7.10912C14.6371 6.56456 15.1879 6.19281 15.693 6.39651C18.2886 7.4433 19.9657 9.86835 19.9657 12.5745C19.9657 14.7146 18.9105 16.6965 17.1562 17.9495C16.8701 18.1539 16.682 18.4752 16.682 18.8268V21.1595C16.682 21.6926 17.2083 22.065 17.6917 21.8402C17.9948 21.6992 18.3566 21.7472 18.5976 21.979L19.3691 22.7208C19.7562 23.093 20.3682 23.093 20.7553 22.7208L23.5731 20.0114C23.9822 19.6179 23.9822 18.9632 23.5731 18.5697L23.0167 18.0348C22.6861 17.7169 22.6191 17.2169 22.8159 16.8027C22.9257 16.5718 23.0264 16.3372 23.118 16.0993C23.2764 15.6877 23.6606 15.3969 24.1016 15.3969H25.9999C26 15.3969 26 15.3968 26 15.3968Z" fill="#13377D"/>
<path d="M15.1593 17.3991C15.1593 17.3991 15.1593 17.3991 15.1593 17.3991L15.5617 17.1923C17.339 16.2789 18.443 14.5094 18.443 12.5745C18.443 11.4994 18.1042 10.4812 17.5047 9.6323C17.0409 8.97554 16.1599 9.40222 16.1599 10.2063V12.0554C16.1599 12.4125 15.9694 12.7425 15.6602 12.9212L13.5012 14.169C13.1916 14.3479 12.81 14.3479 12.5005 14.169L10.3414 12.9212C10.0322 12.7425 9.84179 12.4125 9.84179 12.0554V10.2062C9.84179 9.40219 8.96077 8.9755 8.49691 9.63225C7.89735 10.4811 7.55859 11.4994 7.55859 12.5745C7.55859 14.5114 8.66426 16.2817 10.4442 17.1945C10.6916 17.3214 10.8472 17.5761 10.8472 17.8541V24C10.8472 24.5523 11.2949 25 11.8472 25H14.1593C14.7116 25 15.1593 24.5523 15.1593 24V17.3992C15.1593 17.3991 15.1593 17.3991 15.1593 17.3991Z" fill="#13377D"/>
</svg>
