<svg width="142" height="126" viewBox="0 0 142 126" fill="none" xmlns="http://www.w3.org/2000/svg">
<path fill-rule="evenodd" clip-rule="evenodd" d="M91.6837 62.0959C91.4318 62.0959 91.2243 62.3038 91.2243 62.5564C91.2243 62.8089 91.4318 63.0168 91.6837 63.0168C91.9357 63.0168 92.1432 62.8089 92.1432 62.5564C92.1432 62.3038 91.9357 62.0959 91.6837 62.0959Z" fill="#182E7F"/>
<path fill-rule="evenodd" clip-rule="evenodd" d="M93.1508 66.359C93.1508 66.6116 93.3583 66.8195 93.6103 66.8195C93.8622 66.8195 94.0697 66.6116 94.0697 66.359C94.0697 66.1065 93.8622 65.8986 93.6103 65.8986C93.3435 65.8986 93.1508 66.1065 93.1508 66.359Z" fill="#182E7F"/>
<path fill-rule="evenodd" clip-rule="evenodd" d="M91.6837 65.8986C91.4318 65.8986 91.2243 66.1065 91.2243 66.359C91.2243 66.6116 91.4318 66.8195 91.6837 66.8195C91.9357 66.8195 92.1432 66.6116 92.1432 66.359C92.1432 66.1065 91.9357 65.8986 91.6837 65.8986Z" fill="#182E7F"/>
<path fill-rule="evenodd" clip-rule="evenodd" d="M95.0474 66.359C95.0474 66.6116 95.255 66.8195 95.5069 66.8195C95.7589 66.8195 95.9664 66.6116 95.9664 66.359C95.9664 66.1065 95.7589 65.8986 95.5069 65.8986C95.255 65.8986 95.0474 66.1065 95.0474 66.359Z" fill="#182E7F"/>
<path fill-rule="evenodd" clip-rule="evenodd" d="M91.0614 57.8625L91.1503 58.9469L90.2314 58.8429V60.0609L91.1503 59.957L91.0614 61.0859H92.3064L92.2175 59.957L93.1364 60.0609V58.8429L92.2175 58.9469L92.3064 57.8625H91.0614Z" fill="#182E7F"/>
<path fill-rule="evenodd" clip-rule="evenodd" d="M92.469 61.7245V65.6015H96.2337C95.9076 63.6259 94.3958 62.0662 92.469 61.7245Z" fill="#182E7F"/>
<path fill-rule="evenodd" clip-rule="evenodd" d="M91.6837 63.9824C91.4318 63.9824 91.2243 64.1903 91.2243 64.4429C91.2243 64.6954 91.4318 64.9033 91.6837 64.9033C91.9357 64.9033 92.1432 64.6954 92.1432 64.4429C92.1432 64.1903 91.9357 63.9824 91.6837 63.9824Z" fill="#182E7F"/>
<path fill-rule="evenodd" clip-rule="evenodd" d="M93.2693 68.9734C93.1359 68.9734 92.8543 69.9538 93.1508 70.6519C93.3138 71.0233 93.6843 71.1718 93.9808 71.0678C94.292 70.9639 94.3809 70.6816 94.3809 70.444C94.4106 69.6864 93.7436 68.9734 93.2693 68.9734Z" fill="#182E7F"/>
<path fill-rule="evenodd" clip-rule="evenodd" d="M90.0982 68.9734C89.6239 68.9734 88.9569 69.6864 88.9866 70.444C89.0014 70.6668 89.0903 70.9639 89.3868 71.0678C89.698 71.1718 90.0686 71.0084 90.2168 70.6519C90.5132 69.9389 90.2316 68.9734 90.0982 68.9734Z" fill="#182E7F"/>
<path fill-rule="evenodd" clip-rule="evenodd" d="M91.6838 68.4535C91.2984 68.4535 90.335 70.4291 91.0465 71.4244C91.1799 71.6175 91.417 71.7215 91.6838 71.7215C91.9357 71.7215 92.1729 71.6175 92.3211 71.4244C93.0325 70.4291 92.0691 68.4535 91.6838 68.4535Z" fill="#182E7F"/>
<path fill-rule="evenodd" clip-rule="evenodd" d="M87.0602 66.359C87.0602 65.958 87.1343 65.6015 87.1343 65.6015H90.8983V65.2747V62.5118V61.7245C89.0755 62.0513 87.6233 63.4476 87.1935 65.2747C87.0898 65.4232 86.749 65.4975 86.5119 65.4826C85.1189 65.3044 82.3181 64.7993 82.3181 64.2052C82.3181 63.3585 82.8812 63.0168 83.4295 63.0168C84.2149 63.0168 85.0744 63.4476 85.7857 62.393C83.2369 62.5118 85.193 58.7983 83.0887 58.1001C83.1924 59.0508 83.0887 60.7145 82.7627 61.5908C82.7627 61.5908 82.0069 60.7887 81.1622 60.4768C81.2215 61.1601 81.103 62.5861 80.7918 63.2397C80.7918 63.2397 79.9026 62.4078 78.969 62.0959C79.8285 63.3436 79.7989 65.1113 79.5618 66.1956C79.5025 66.5076 79.7248 66.8938 80.3768 66.8641C81.3993 66.8195 84.8818 66.9681 86.3933 67.5919C86.8675 67.785 87.2676 68.0079 87.4603 68.3495C87.6233 68.7951 88.0086 69.5081 88.4976 69.8646C88.7199 69.0774 89.6535 68.2455 90.261 68.2752C90.4389 68.2901 90.6463 68.5872 90.6908 68.8843C90.7501 68.602 91.1946 67.8445 91.6837 67.8445C92.143 67.8445 92.5728 68.4832 92.721 69.0179C92.7654 68.6763 92.9729 68.3198 93.1507 68.3198C93.7583 68.3198 94.5289 68.8694 94.8104 69.7606C95.0475 69.4636 96.1145 68.0821 96.2479 67.176H87.1343C87.1343 67.1612 87.0602 66.775 87.0602 66.359Z" fill="#182E7F"/>
<path fill-rule="evenodd" clip-rule="evenodd" d="M89.3571 66.359C89.3571 66.6116 89.5646 66.8195 89.8166 66.8195C90.0685 66.8195 90.276 66.6116 90.276 66.359C90.276 66.1065 90.0685 65.8986 89.8166 65.8986C89.5646 65.8986 89.3571 66.1065 89.3571 66.359Z" fill="#182E7F"/>
<path fill-rule="evenodd" clip-rule="evenodd" d="M87.5047 66.359C87.5047 66.6116 87.7122 66.8195 87.9642 66.8195C88.2162 66.8195 88.4237 66.6116 88.4237 66.359C88.4237 66.1065 88.2162 65.8986 87.9642 65.8986C87.7122 65.8986 87.5047 66.1065 87.5047 66.359Z" fill="#182E7F"/>
<path fill-rule="evenodd" clip-rule="evenodd" d="M51.2874 69.9983C51.3466 70.2508 51.4949 70.3697 51.732 70.3548C51.984 70.34 52.1174 70.2063 52.1618 69.9389C52.2508 69.3299 51.8061 68.3792 51.6431 68.2455C51.48 68.3941 51.1391 69.3893 51.2874 69.9983Z" fill="#182E7F"/>
<path fill-rule="evenodd" clip-rule="evenodd" d="M54.8737 70.9787C54.6662 71.2015 54.4587 71.3649 54.3401 71.4392C54.4291 71.5283 54.6662 71.6769 54.9626 71.6769C55.1257 71.6769 55.2887 71.6323 55.4369 71.5283C55.7334 71.0381 55.4518 70.5331 55.3184 70.4143C55.2294 70.5331 55.0812 70.7559 54.8737 70.9787Z" fill="#182E7F"/>
<path fill-rule="evenodd" clip-rule="evenodd" d="M53.6587 69.7607C53.9699 69.4339 54.0885 69.1814 53.9996 68.9883C53.881 68.7209 53.1696 67.9188 52.2358 67.0127C52.2062 67.2058 52.1617 67.384 52.1173 67.5623C52.7398 68.3941 52.9769 69.2854 52.7694 70.0429C52.8435 70.0875 52.888 70.1172 52.9176 70.1321C53.1696 70.2509 53.466 69.9687 53.6587 69.7607Z" fill="#182E7F"/>
<path fill-rule="evenodd" clip-rule="evenodd" d="M54.8589 69.8349C54.8885 69.6864 54.8737 69.5824 54.7996 69.5081C54.77 69.4784 54.7551 69.4784 54.7403 69.4784C54.681 69.4784 54.5625 69.627 54.4439 69.7755C54.3401 69.8944 54.2216 70.0429 54.0734 70.2063C53.9251 70.3697 53.7769 70.5034 53.6732 70.6074C53.5398 70.7262 53.4064 70.8599 53.3916 70.9193C53.3916 70.9341 53.4064 70.949 53.436 70.9787C53.4805 71.0233 53.5546 71.053 53.6287 71.053C53.7473 71.053 54.0141 70.9936 54.4142 70.5628C54.7255 70.2063 54.8292 69.9686 54.8589 69.8349Z" fill="#182E7F"/>
<path fill-rule="evenodd" clip-rule="evenodd" d="M49.1238 65.2302C49.1238 65.2302 49.0052 65.349 48.9311 65.4976C49.1238 65.4976 49.3461 65.5273 49.5536 65.5867C49.5388 65.4084 49.524 65.1559 49.5388 64.948C49.3758 64.9925 49.1979 65.1559 49.1238 65.2302Z" fill="#182E7F"/>
<path fill-rule="evenodd" clip-rule="evenodd" d="M51.4504 65.4826C51.4652 65.4975 53.2583 67.0869 53.8511 67.6662C53.9993 67.7999 54.1919 67.8296 54.3845 67.7256C54.5031 67.6662 54.6365 67.6068 54.7847 67.5325C56.5777 66.8938 59.5267 66.8195 60.6085 66.8789C61.2605 66.9086 61.4828 66.5224 61.4235 66.2105C61.2161 65.1856 61.1568 63.3585 62.0163 62.1108C61.0975 62.4227 60.1936 63.2545 60.1936 63.2545C59.8824 62.6009 59.7638 61.1749 59.8231 60.4917C58.9784 60.7887 58.2226 61.6057 58.2226 61.6057C57.8966 60.7293 57.7929 59.0508 57.8966 58.115C55.8072 58.8131 57.7633 62.5267 55.1996 62.4078C55.9109 63.4476 56.7852 63.0317 57.5558 63.0317C58.1041 63.0317 58.7858 63.3882 58.6672 64.22C58.5931 64.8142 55.1551 65.5569 53.777 65.5569C52.8137 65.5569 52.1617 65.2598 51.6875 64.5914C51.4504 64.2646 51.2133 64.1161 50.9466 64.1606C50.6206 64.2052 50.2353 64.5468 50.2353 65.3341C50.2353 65.8837 50.4575 67.1166 51.1244 67.1166C51.6134 67.0869 51.6431 66.1214 51.4504 65.4826Z" fill="#182E7F"/>
<path fill-rule="evenodd" clip-rule="evenodd" d="M48.0273 64.9182C48.1014 64.9479 48.1903 64.9331 48.2644 64.8885C48.0125 65.245 48.0273 65.4827 48.131 65.5867C48.3088 65.7649 48.4274 65.4381 48.8571 64.9777C49.2869 64.5172 49.5981 64.3686 49.4202 64.2052C49.3165 64.1013 49.0794 64.0864 48.7386 64.3686C48.783 64.2795 48.7979 64.2052 48.7682 64.131C48.62 63.7151 47.9532 63.1506 47.5827 63.1506C47.5234 63.1506 47.479 63.1655 47.4345 63.1803C47.5975 62.9129 47.5531 62.7198 47.4493 62.6159C47.3308 62.497 47.2567 62.5861 47.1233 62.7495C47.1381 62.6307 47.1085 62.4822 47.0048 62.3188C46.4565 61.4721 43.5223 58.7092 42.8555 58.427C42.4554 58.2636 42.322 58.4864 42.322 58.4864C42.322 58.4864 42.0997 58.6349 42.2775 59.036C42.5739 59.7193 45.3747 62.601 46.2045 63.1506C46.3824 63.2546 46.5157 63.2843 46.6343 63.2694C46.4713 63.418 46.3972 63.4922 46.5157 63.6111C46.6195 63.7151 46.8121 63.7596 47.064 63.5814C47.0492 63.6259 47.0344 63.6853 47.0344 63.7448C47.0492 64.1161 47.6123 64.7846 48.0273 64.9182Z" fill="#182E7F"/>
<path fill-rule="evenodd" clip-rule="evenodd" d="M50.0875 67.0126C50.0875 66.7156 49.5391 66.2254 48.8869 66.2254C47.9235 66.2254 47.4937 66.8492 47.4937 67.1612C47.4937 67.7554 48.0569 67.8296 48.2348 67.8445C48.9166 67.8742 50.0282 67.176 50.0875 67.0126Z" fill="#182E7F"/>
<path fill-rule="evenodd" clip-rule="evenodd" d="M49.2571 68.4832C49.0051 68.81 48.9014 69.1368 48.9755 69.4487C49.0496 69.8201 49.4201 69.9835 49.7462 69.9835C50.0871 69.9835 50.3983 69.8201 50.5762 69.5379C50.9467 68.9437 50.9616 67.6514 50.843 67.5028C50.5169 67.5177 49.6869 67.9336 49.2571 68.4832Z" fill="#182E7F"/>
<path fill-rule="evenodd" clip-rule="evenodd" d="M40.7363 54.9214C40.4548 54.654 39.9065 55.0551 39.5656 54.862C39.7138 54.0301 40.3066 54.9065 40.8697 54.2975C41.092 54.0598 40.9734 53.6736 40.84 53.5697C40.5881 53.8222 40.2177 53.733 40.188 53.5994C40.84 52.0694 39.5656 50.3463 38.3653 50.5691C38.6024 50.8959 38.6765 52.01 38.5728 52.307C39.0321 52.6338 38.7061 53.4211 38.2023 53.1983C37.8615 53.0646 37.2539 52.2031 37.9504 51.594C37.9355 51.3712 37.5503 51.3267 37.1501 51.8466C37.4465 50.881 35.6238 51.1781 35.2533 51.4158C35.0459 51.802 34.8088 53.6885 35.7275 53.3617C35.2385 53.7925 35.2978 54.1935 35.5053 54.2084C36.0684 53.4805 36.913 54.0747 37.0612 54.4163C37.2983 54.9362 36.5426 55.2927 36.2166 54.8323C35.935 54.9511 34.8532 54.9065 34.5272 54.6689C34.3642 55.9315 36.0535 57.1792 37.5206 56.4662C37.654 56.4959 37.7577 56.8821 37.5206 57.1347C37.6392 57.2683 38.0096 57.3723 38.2319 57.1347C38.795 56.5256 37.9355 55.9463 38.7358 55.7681C38.9284 56.1097 38.5579 56.7039 38.8247 56.9713C39.2692 57.4169 39.8175 56.5553 40.351 56.5256C40.3658 55.9612 41.1809 55.367 40.7363 54.9214ZM36.1869 52.9903C36.1869 52.9903 35.9054 52.7824 36.2462 52.411C36.6019 52.0545 36.7945 52.3368 36.7945 52.3368C36.7945 52.3368 37.1205 53.0498 37.2094 53.3765C36.8982 53.2874 36.1869 52.9903 36.1869 52.9903ZM39.0025 55.159C38.8247 55.1888 38.4098 55.5601 38.2023 55.3522L37.2391 54.4015L37.7133 53.8964L38.1875 53.3914L39.1507 54.3421C39.3582 54.5352 39.0173 54.9808 39.0025 55.159Z" fill="#182E7F"/>
<path fill-rule="evenodd" clip-rule="evenodd" d="M40.9883 56.7336C40.8994 56.7336 40.7808 56.7484 40.6919 56.8524C40.6029 56.9564 40.5733 57.1049 40.6029 57.2832C40.6326 57.4763 40.7512 57.6694 40.9142 57.8328C41.1069 58.0259 41.344 58.1447 41.5515 58.1447C41.6405 58.1447 41.759 58.1298 41.848 58.0259C42.0406 57.8179 41.9517 57.3723 41.6405 57.0603C41.4478 56.8375 41.1958 56.7336 40.9883 56.7336Z" fill="#182E7F"/>
<path fill-rule="evenodd" clip-rule="evenodd" d="M38.2326 53.8519L37.9806 54.1192L37.7287 54.4015C37.7287 54.4015 38.2622 55.0996 38.6921 54.8322C38.9292 54.3718 38.2326 53.8519 38.2326 53.8519Z" fill="#182E7F"/>
<path fill-rule="evenodd" clip-rule="evenodd" d="M88.9569 49.1877C88.8087 49.559 88.5568 50.1532 88.3345 50.5542C88.4679 50.7771 88.6457 51.0296 88.7939 51.193C88.7791 51.3267 88.0678 51.7129 87.5639 50.7325C87.0453 50.6285 86.5266 50.4651 86.171 50.3166C86.7785 51.5495 87.312 52.5595 88.1715 53.1092C89.4311 53.9261 91.4465 53.7479 92.0985 52.8418C91.0019 52.2476 89.6682 50.7028 88.9569 49.1877Z" fill="#182E7F"/>
<path fill-rule="evenodd" clip-rule="evenodd" d="M100.916 32.239C102.339 31.63 104.324 30.2783 105.258 29.3276C105.376 29.491 105.717 30.2783 104.665 31.1547C103.909 31.7934 102.353 32.5064 101.168 32.9818C100.634 33.769 99.6415 34.6603 98.2189 35.6109C100.99 35.1802 104.324 34.0661 105.94 32.4767C109.022 29.4465 107.377 25.7478 106.977 24.9605C104.991 27.456 101.168 30.0852 97.6261 31.4963C98.8116 31.63 100.042 31.8825 100.916 32.239Z" fill="#182E7F"/>
<path fill-rule="evenodd" clip-rule="evenodd" d="M98.6338 26.6242C100.427 25.1388 102.398 22.1679 102.709 21.1133C103.109 21.4104 103.317 22.2571 102.753 23.2374C101.775 24.9159 100.101 26.4014 98.6338 27.56C98.5746 28.6443 98.1004 29.8921 97.6113 30.8279C99.7749 29.387 102.264 27.1738 103.391 25.7032C104.858 23.7722 105.465 21.8411 105.199 19.9695C105.288 17.8305 103.746 15.647 103.109 15.1271C102.709 17.5037 100.308 21.4846 98.2337 23.7573C98.4708 24.5892 98.619 25.6735 98.6338 26.6242Z" fill="#182E7F"/>
<path fill-rule="evenodd" clip-rule="evenodd" d="M97.2555 40.4088C97.6704 40.9139 98.1446 41.5229 98.4262 42.0428C100.056 42.3993 102.101 42.325 102.101 42.325C102.101 42.325 101.983 43.2014 100.842 43.2608C100.338 43.2905 98.7967 43.0232 98.1594 42.8449C97.8927 42.9638 96.6924 43.246 95.4624 43.4094C97.1962 44.0184 99.7154 44.672 101.301 44.672C101.464 44.672 101.597 44.672 101.731 44.6571C104.265 44.4343 105.554 42.0874 105.613 40.7356C104.858 40.8842 103.554 40.9882 102.205 40.9882C101.079 40.9733 98.93 40.8693 97.2555 40.4088Z" fill="#182E7F"/>
<path fill-rule="evenodd" clip-rule="evenodd" d="M107.747 33.7839C105.495 34.9871 101.479 36.2348 98.3373 36.2051C99.1375 36.6953 99.8933 37.2598 100.382 37.7351C101.701 37.6608 103.494 37.2449 104.561 36.829C104.576 37.0221 104.606 37.8539 103.376 38.2253C102.546 38.4778 101.257 38.5075 100.308 38.5224C99.5524 39.0125 98.3817 39.5027 97.4333 39.8147C98.3076 39.9335 99.3894 40.0375 100.412 40.0375C102.086 40.0375 103.598 39.8592 104.532 39.5622C105.421 39.2651 108.266 38.0025 107.747 33.7839Z" fill="#182E7F"/>
<path fill-rule="evenodd" clip-rule="evenodd" d="M95.5663 45.7415C96.5295 46.1871 97.5372 46.4842 98.4115 46.5882C98.4115 46.5882 98.2633 47.4348 96.9148 47.2566C96.1738 47.1675 95.2699 46.5882 95.0773 46.4545C94.4845 46.5436 93.2545 46.5139 92.7803 46.4099C94.2622 47.4646 96.5443 48.6826 98.456 48.8757C98.5449 48.8906 98.6486 48.8905 98.7375 48.8905C100.738 48.8905 102.309 46.8704 102.709 45.9049C100.679 45.8752 97.2704 45.0582 95.1662 43.8847C95.2995 44.3749 95.4774 45.0136 95.5663 45.7415Z" fill="#182E7F"/>
<path fill-rule="evenodd" clip-rule="evenodd" d="M92.143 48.4153C92.6765 48.9946 93.5212 49.3956 93.5212 49.3956C93.5212 49.3956 93.2989 49.8264 92.7803 49.8264C92.6024 49.8264 92.4246 49.7818 92.2468 49.6779C91.8911 49.4699 91.4169 48.9203 91.4169 48.9203C90.7501 48.846 90.1425 48.7272 89.5497 48.5341C90.6019 49.871 92.3505 51.4455 94.2029 51.906C94.4696 51.9803 94.7512 52.01 95.0476 52.01C96.7221 52.01 98.0706 50.7622 98.4411 49.975C96.5294 49.6927 93.788 48.2667 92.3357 46.811C92.3061 47.4052 92.2468 47.9845 92.143 48.4153Z" fill="#182E7F"/>
<path fill-rule="evenodd" clip-rule="evenodd" d="M79.71 69.7755C80.6288 69.7755 81.2956 69.3893 81.6809 68.4535C80.4213 69.0625 78.9839 68.7209 76.435 67.9485C76.435 67.9485 75.4421 68.3792 74.8938 68.4386C76.435 68.914 78.6727 69.6418 79.0431 70.5034C79.1913 71.2312 78.7616 71.3501 78.7616 71.3501C77.8724 70.3103 76.8648 69.6864 74.6419 69.018C74.6419 69.419 74.5678 69.7012 74.5678 69.7012C74.5678 69.7012 74.0936 69.8201 73.1008 69.6418C73.9751 70.3697 76.0794 72.1522 76.3313 74.0981C76.4943 75.4052 75.5903 75.4646 75.5903 75.4646C75.457 73.5039 74.6123 72.271 72.7599 70.236C72.7599 70.236 72.4635 70.7113 72.0486 70.949C72.0486 70.949 71.3669 70.8302 70.8038 70.444C71.0261 73.0286 71.1447 79.2673 71.0113 80.2922C70.9224 81.0052 70.5074 81.3023 70.5074 81.3023C70.5074 81.3023 70.0925 81.0052 70.0036 80.2922C69.8702 79.2822 70.0036 73.0286 70.2111 70.444C69.648 70.8153 68.9663 70.949 68.9663 70.949C68.5662 70.7113 68.255 70.236 68.255 70.236C66.4026 72.271 65.5579 73.5039 65.4246 75.4646C65.4246 75.4646 64.5206 75.4052 64.6836 74.0981C64.9355 72.1522 67.0398 70.3697 67.9141 69.6418C66.9213 69.8201 66.4471 69.7012 66.4471 69.7012C66.4471 69.7012 66.373 69.419 66.373 69.018C64.1501 69.6864 63.1425 70.3103 62.2533 71.3501C62.2533 71.3501 61.8236 71.2312 61.9718 70.5034C62.3422 69.6418 64.5799 68.914 66.1211 68.4386C65.5728 68.3792 64.5799 67.9485 64.5799 67.9485C62.031 68.7209 60.5936 69.0774 59.334 68.4535C59.7193 69.3893 60.3861 69.7755 61.3049 69.7755C60.1342 70.2211 58.9339 71.3946 58.6227 72.6275C59.497 75.8212 62.2385 76.7867 62.2385 76.7867C61.542 75.2715 61.8384 72.1967 65.9877 70.0875C63.4388 72.6424 62.446 74.9448 63.1276 77.1283C63.75 79.1336 65.7654 79.9506 67.2918 79.9803C66.21 76.6678 66.699 73.6673 68.9366 71.2758C67.9734 73.8901 66.6249 81.9559 70.5223 83.2928C74.4048 81.9559 73.0563 73.8901 72.1079 71.2758C74.3455 73.6673 74.8197 76.6678 73.7528 79.9803C75.2791 79.9506 77.2945 79.1336 77.9169 77.1283C78.5986 74.9448 77.6205 72.6424 75.0568 70.0875C79.2061 72.1967 79.5025 75.2567 78.806 76.7867C78.806 76.7867 81.5475 75.8212 82.4218 72.6275C82.0958 71.3798 80.8807 70.2211 79.71 69.7755Z" fill="#182E7F"/>
<path fill-rule="evenodd" clip-rule="evenodd" d="M52.2061 51.2078C52.3543 51.0296 52.5321 50.777 52.6655 50.5691C52.4581 50.168 52.1913 49.559 52.0431 49.2025C51.317 50.7176 49.9981 52.2625 48.8867 52.8715C49.5387 53.7776 51.5541 53.9707 52.8137 53.1388C53.6584 52.5892 54.1919 51.5792 54.8143 50.3463C54.4586 50.4948 53.9399 50.6582 53.4213 50.7622C52.9323 51.7129 52.221 51.3415 52.2061 51.2078Z" fill="#182E7F"/>
<path fill-rule="evenodd" clip-rule="evenodd" d="M42.7962 35.6109C41.3588 34.6603 40.3659 33.7839 39.8472 32.9818C38.6469 32.5213 37.1057 31.8083 36.35 31.1547C35.2978 30.2783 35.6387 29.4762 35.7572 29.3276C36.676 30.2783 38.6765 31.63 40.0992 32.239C40.9883 31.8974 42.2183 31.6449 43.4186 31.4963C39.8621 30.0852 36.0536 27.456 34.0679 24.9605C33.6678 25.7478 32.0229 29.4465 35.1052 32.4767C36.6908 34.0661 40.0251 35.1653 42.7962 35.6109Z" fill="#182E7F"/>
<path fill-rule="evenodd" clip-rule="evenodd" d="M43.4037 30.8279C42.9147 29.8921 42.4405 28.6443 42.3812 27.56C40.9141 26.4014 39.2248 24.9308 38.2615 23.2374C37.6984 22.2571 37.9059 21.4104 38.306 21.1133C38.6024 22.1679 40.5881 25.1388 42.3812 26.6242C42.396 25.6735 42.559 24.5892 42.7961 23.7573C40.7215 21.4846 38.306 17.4889 37.9207 15.1271C37.2835 15.647 35.7423 17.8305 35.8312 19.9695C35.5645 21.8411 36.1721 23.7722 37.6391 25.7032C38.7506 27.1886 41.2253 29.387 43.4037 30.8279Z" fill="#182E7F"/>
<path fill-rule="evenodd" clip-rule="evenodd" d="M39.6991 44.6571C41.2847 44.6571 43.8039 44.0184 45.5377 43.3945C44.3078 43.2311 43.1074 42.9341 42.8407 42.8301C42.2035 43.0083 40.6623 43.2757 40.1585 43.246C39.0174 43.1866 38.8989 42.3102 38.8989 42.3102C38.8989 42.3102 40.9439 42.3993 42.574 42.0279C42.8703 41.5081 43.3297 40.899 43.7446 40.394C42.0701 40.8545 39.9214 40.9585 38.7803 40.9585C37.4318 40.9585 36.1277 40.8693 35.372 40.7059C35.4313 42.0577 36.7205 44.4046 39.2545 44.6274C39.4027 44.6571 39.5509 44.6571 39.6991 44.6571Z" fill="#182E7F"/>
<path fill-rule="evenodd" clip-rule="evenodd" d="M40.603 40.0375C41.6255 40.0375 42.7073 39.9484 43.5816 39.8147C42.6332 39.4879 41.4625 38.9977 40.7067 38.5224C39.7583 38.5075 38.4691 38.4778 37.6392 38.2253C36.4241 37.8539 36.4389 37.0221 36.4537 36.829C37.5058 37.2598 39.2989 37.6608 40.6326 37.7351C41.1217 37.2598 41.8774 36.6953 42.6776 36.2051C39.536 36.2348 35.5201 34.9871 33.2676 33.7839C32.749 37.9876 35.609 39.2651 36.4982 39.5473C37.4317 39.8592 38.9285 40.0375 40.603 40.0375Z" fill="#182E7F"/>
<path fill-rule="evenodd" clip-rule="evenodd" d="M45.9378 46.4693C45.7303 46.603 44.8412 47.1675 44.1002 47.2715C42.7369 47.4497 42.6035 46.603 42.6035 46.603C43.4778 46.4991 44.4855 46.202 45.4488 45.7563C45.5525 45.0285 45.7155 44.3898 45.8489 43.9144C43.7594 45.0879 40.3362 45.9049 38.306 45.9346C38.7062 46.9001 40.2918 48.9203 42.2775 48.9203C42.3664 48.9203 42.4702 48.9203 42.5591 48.9054C44.4559 48.7123 46.7528 47.4943 48.2347 46.4396C47.7605 46.5139 46.5305 46.5436 45.9378 46.4693Z" fill="#182E7F"/>
<path fill-rule="evenodd" clip-rule="evenodd" d="M51.4651 48.5341C50.8724 48.7272 50.2648 48.846 49.598 48.9203C49.598 48.9203 49.1238 49.4699 48.7681 49.6779C48.5903 49.7818 48.3976 49.8264 48.2346 49.8264C47.716 49.8264 47.4937 49.3956 47.4937 49.3956C47.4937 49.3956 48.3384 48.9946 48.8718 48.4153C48.7681 47.9845 48.694 47.4052 48.6792 46.811C47.2269 48.2816 44.4855 49.7076 42.5738 49.975C42.9591 50.7622 44.2928 52.01 45.9673 52.01C46.2489 52.01 46.5305 51.9803 46.812 51.906C48.6644 51.4455 50.4278 49.871 51.4651 48.5341Z" fill="#182E7F"/>
<path fill-rule="evenodd" clip-rule="evenodd" d="M69.797 4.4618C69.797 4.86286 70.1082 5.18966 70.5084 5.18966C70.8938 5.18966 71.2199 4.86286 71.2199 4.4618C71.2199 4.06074 70.9086 3.73395 70.5084 3.73395C70.1082 3.73395 69.797 4.06074 69.797 4.4618Z" fill="#182E7F"/>
<path fill-rule="evenodd" clip-rule="evenodd" d="M70.0194 2.91695H70.9828L70.8791 1.74347L71.9166 1.86231V0.941349L70.8791 1.04533L70.9828 -0.113297H70.0194L70.1232 1.04533L69.0857 0.941349V1.86231L70.1232 1.74347L70.0194 2.91695Z" fill="#182E7F"/>
<path fill-rule="evenodd" clip-rule="evenodd" d="M66.6844 14.4289C66.7881 14.4586 66.9067 14.4884 67.0401 14.4884H73.9605C74.0939 14.4884 74.2124 14.4735 74.3161 14.4289C74.5384 14.3547 74.6718 14.1764 74.7311 13.909H66.2695C66.3139 14.1764 66.4621 14.3547 66.6844 14.4289Z" fill="#182E7F"/>
<path fill-rule="evenodd" clip-rule="evenodd" d="M66.9513 13.3743H74.0495C74.257 13.3743 74.42 13.2109 74.42 13.0029V12.9584C74.42 12.7504 74.257 12.587 74.0495 12.587H66.9513C66.7438 12.587 66.5808 12.7504 66.5808 12.9584V13.0029C66.5956 13.2109 66.7586 13.3743 66.9513 13.3743Z" fill="#182E7F"/>
<path fill-rule="evenodd" clip-rule="evenodd" d="M75.0865 12.0522C75.2792 11.8146 76.2572 9.92809 76.2572 8.02676C76.2572 6.31853 74.1085 5.36787 72.834 5.3233C72.6858 7.77424 71.7374 11.6066 70.5075 11.6066C69.3368 11.6066 68.3143 7.78909 68.1809 5.3233C66.9065 5.36787 64.7577 6.30368 64.7577 8.02676C64.7577 9.92809 65.721 11.8146 65.9284 12.0522H75.0865Z" fill="#182E7F"/>
<path fill-rule="evenodd" clip-rule="evenodd" d="M70.5086 10.4035C71.0866 10.4035 71.8425 8.54668 72.0352 6.77903C72.0352 6.42253 71.4572 5.87293 70.5086 5.85808C69.56 5.87293 68.982 6.42253 68.982 6.77903C69.145 8.41299 69.9305 10.4035 70.5086 10.4035Z" fill="#182E7F"/>
<path fill-rule="evenodd" clip-rule="evenodd" d="M87.668 14.9934L87.6977 14.9785C87.6977 14.9785 87.1048 13.5674 88.0534 13.196C89.002 12.8247 87.7273 13.0624 88.3943 11.1165C89.1947 8.81406 90.9436 9.34881 90.9436 9.34881C89.7431 8.36844 88.7945 8.45756 88.1275 8.97746C87.7125 9.30425 87.1048 9.98754 86.675 11.369C86.1118 13.196 86.7195 14.83 87.668 14.9934Z" fill="#182E7F"/>
<path fill-rule="evenodd" clip-rule="evenodd" d="M92.1431 11.6066C92.2172 14.4735 97.0333 15.6767 97.0333 15.6767C97.0333 15.6767 94.2622 13.6862 94.8105 12.2008C94.8105 12.2008 96.6332 12.9881 98.7375 12.6464C94.2918 11.7255 95.744 10.3292 94.6771 9.17056C93.5657 7.98223 91.8022 7.84854 91.3873 7.81884C90.2759 7.75942 90.187 7.75942 88.8829 8.04165C91.7726 8.13077 92.0838 9.70531 92.1431 11.6066Z" fill="#182E7F"/>
<path fill-rule="evenodd" clip-rule="evenodd" d="M78.243 19.7615L78.1393 19.4942C75.8424 19.4942 74.3457 17.7562 73.9307 15.2013H71.6635C72.434 18.7366 75.2793 19.7615 78.243 19.7615Z" fill="#182E7F"/>
<path fill-rule="evenodd" clip-rule="evenodd" d="M91.4762 16.9987C92.1134 14.7111 90.9575 13.7308 90.9575 13.7308C90.6018 13.3297 88.7791 13.3743 88.1419 13.805C88.1419 13.805 89.8757 13.7753 89.609 16.3154C89.3571 18.8406 85.8894 19.3456 84.9262 19.4645L84.8225 19.7764C86.4674 19.7764 90.8389 19.2862 91.4762 16.9987Z" fill="#182E7F"/>
<path fill-rule="evenodd" clip-rule="evenodd" d="M78.7319 19.7615H84.3039C84.3039 19.7615 84.4372 19.4199 84.6151 18.9297H78.4208C78.5838 19.4348 78.7319 19.7615 78.7319 19.7615Z" fill="#182E7F"/>
<path fill-rule="evenodd" clip-rule="evenodd" d="M81.5031 13.6268C81.7996 13.6268 82.0367 13.3743 82.0367 13.0772C82.0367 12.7653 81.7996 12.5276 81.5031 12.5276C81.2067 12.5276 80.9696 12.7801 80.9696 13.0772C80.9696 13.3743 81.2067 13.6268 81.5031 13.6268Z" fill="#182E7F"/>
<path fill-rule="evenodd" clip-rule="evenodd" d="M84.8373 18.3207C85.0744 17.578 85.3411 16.4342 85.3411 15.8846C85.3411 14.8745 84.7928 13.7605 82.8367 13.4188C82.8367 14.6517 82.244 17.6077 81.5326 17.6077H81.4586C80.7472 17.6077 80.1545 14.6369 80.1545 13.4188C78.2132 13.7605 77.6649 14.8745 77.6649 15.8846C77.6649 16.4342 77.9317 17.578 78.1688 18.3207H84.8373Z" fill="#182E7F"/>
<path fill-rule="evenodd" clip-rule="evenodd" d="M81.5033 16.7759C81.8738 16.7759 82.1702 15.3499 82.1702 14.6517C82.1702 14.2655 81.8738 14.013 81.5033 14.013C81.1327 14.013 80.8363 14.2655 80.8363 14.6517C80.8363 15.3499 81.1327 16.7759 81.5033 16.7759Z" fill="#182E7F"/>
<path fill-rule="evenodd" clip-rule="evenodd" d="M81.1475 11.6215H81.859L81.77 10.7005L82.6593 10.7897V10.0618L81.77 10.1509L81.859 9.22997H81.1475L81.2365 10.1509L80.3324 10.0618V10.7897L81.2365 10.7005L81.1475 11.6215Z" fill="#182E7F"/>
<path fill-rule="evenodd" clip-rule="evenodd" d="M49.7314 9.34882C49.7314 9.34882 51.4803 8.81407 52.2807 11.1165C52.9625 13.0624 51.6878 12.8247 52.6216 13.196C53.5702 13.5674 52.9773 14.9785 52.9773 14.9785L53.0069 14.9934C53.9555 14.83 54.5632 13.1812 54 11.369C53.5553 9.98755 52.9625 9.30425 52.5475 8.97746C51.8805 8.47242 50.9319 8.36844 49.7314 9.34882Z" fill="#182E7F"/>
<path fill-rule="evenodd" clip-rule="evenodd" d="M45.8488 12.2008C46.4119 13.6862 43.626 15.6767 43.626 15.6767C43.626 15.6767 48.4421 14.4883 48.5162 11.6066C48.5755 9.69043 48.8719 8.13075 51.7764 8.05648C50.4575 7.77425 50.3834 7.75939 49.272 7.83366C48.857 7.86337 47.0788 7.99706 45.9822 9.18539C44.9004 10.344 46.3675 11.7255 41.9218 12.6613C44.0261 12.9881 45.8488 12.2008 45.8488 12.2008Z" fill="#182E7F"/>
<path fill-rule="evenodd" clip-rule="evenodd" d="M62.4312 19.7615C65.395 19.7615 68.2402 18.7366 68.996 15.2013H66.7287C66.3286 17.7562 64.8319 19.4942 62.5201 19.4942L62.4312 19.7615Z" fill="#182E7F"/>
<path fill-rule="evenodd" clip-rule="evenodd" d="M52.5321 13.805C51.8949 13.3594 50.0721 13.3297 49.7165 13.7308C49.7165 13.7308 48.5606 14.7111 49.1978 16.9987C49.835 19.2862 54.2066 19.7764 55.8367 19.7764L55.733 19.4645C54.7845 19.3456 51.3021 18.8257 51.065 16.3154C50.7983 13.7753 52.5321 13.805 52.5321 13.805Z" fill="#182E7F"/>
<path fill-rule="evenodd" clip-rule="evenodd" d="M56.3703 19.7615H61.9422C61.9422 19.7615 62.0756 19.4199 62.2534 18.9297H56.0591C56.2369 19.4348 56.3703 19.7615 56.3703 19.7615Z" fill="#182E7F"/>
<path fill-rule="evenodd" clip-rule="evenodd" d="M59.1712 13.6268C59.4677 13.6268 59.7048 13.3743 59.7048 13.0772C59.7048 12.7653 59.4677 12.5276 59.1712 12.5276C58.8748 12.5276 58.6377 12.7801 58.6377 13.0772C58.6377 13.3743 58.8748 13.6268 59.1712 13.6268Z" fill="#182E7F"/>
<path fill-rule="evenodd" clip-rule="evenodd" d="M62.4905 18.3207C62.7276 17.578 62.9943 16.4342 62.9943 15.8846C62.9943 14.8745 62.4608 13.7605 60.5047 13.4188C60.5047 14.6369 59.912 17.6077 59.2007 17.6077H59.1266C58.4153 17.6077 57.8225 14.6517 57.8225 13.4188C55.8664 13.7605 55.3181 14.8745 55.3181 15.8846C55.3181 16.4342 55.5848 17.578 55.8219 18.3207H62.4905Z" fill="#182E7F"/>
<path fill-rule="evenodd" clip-rule="evenodd" d="M59.1712 16.7759C59.5417 16.7759 59.8382 15.3499 59.8382 14.6517C59.8382 14.2655 59.5417 14.013 59.1712 14.013C58.8007 14.013 58.5042 14.2655 58.5042 14.6517C58.4894 15.3499 58.8007 16.7759 59.1712 16.7759Z" fill="#182E7F"/>
<path fill-rule="evenodd" clip-rule="evenodd" d="M58.8155 11.6215H59.5269L59.438 10.7005L60.3273 10.7897V10.0618L59.438 10.1509L59.5269 9.22997H58.8155L58.9044 10.1509L58.0003 10.0618V10.7897L58.9044 10.7005L58.8155 11.6215Z" fill="#182E7F"/>
<path fill-rule="evenodd" clip-rule="evenodd" d="M89.0162 27.7828C89.0606 27.7234 89.0162 27.7085 88.9717 27.7383C88.9421 27.768 88.0529 28.2879 86.1413 27.0401C84.2297 25.7924 82.7478 25.2725 81.992 25.1388C81.992 25.1388 81.2807 25.6438 80.6139 26.2231C82.4069 26.3717 83.7999 27.4709 83.9629 27.8422C83.9778 27.8719 84.0222 27.8719 84.0222 27.8422C84.2148 27.2629 83.9629 26.7727 83.9629 26.7727C83.9629 26.7727 84.7928 27.2926 86.408 28.2284C88.0233 29.194 88.7642 28.1393 89.0162 27.7828Z" fill="#182E7F"/>
<path fill-rule="evenodd" clip-rule="evenodd" d="M78.48 25.2576C78.9986 26.3865 78.9838 26.8619 78.9838 26.8619C80.0952 25.3467 82.9256 24.5 83.963 20.9945C84.0667 20.6677 83.9481 20.4746 83.6518 20.4746C83.4888 20.4746 78.48 20.4597 78.48 20.4597C75.4569 20.6677 73.2489 20.1181 72.0337 19.3159C71.8411 20.1775 73.0562 23.2226 74.9382 23.7722C74.39 24.5892 73.323 25.5101 72.4931 25.4804C73.4564 26.2231 75.2643 25.9706 76.7313 24.6783C76.8647 25.5101 76.6869 26.743 76.5387 27.055C77.1759 26.9213 78.1243 25.8369 78.48 25.2576ZM81.9772 21.5292C82.3922 21.5292 82.3477 21.7817 82.2291 21.9897C82.1106 22.1977 81.7253 22.8364 81.7253 22.8364C81.7253 22.8364 81.3252 22.4056 80.525 22.0788C79.7248 21.752 79.5025 21.7075 79.5025 21.5292H81.9772Z" fill="#182E7F"/>
<path fill-rule="evenodd" clip-rule="evenodd" d="M82.496 24.6783C82.407 24.7674 82.4663 24.7674 82.5552 24.7377C87.075 23.5345 87.8604 25.822 87.8456 25.8963C87.8308 25.9854 87.89 26.0151 87.9493 25.9409C88.0382 25.822 89.5349 24.2029 88.4532 22.7027C87.3714 21.2173 84.6299 21.3064 84.6299 21.3064C84.3187 22.5393 83.3406 24.0247 82.496 24.6783ZM84.7929 22.5096C84.9411 22.2868 85.1041 21.8857 85.1041 21.8857C85.4449 21.8857 86.0525 22.0045 86.0525 22.4204C85.6376 22.3313 85.1485 22.3462 84.7929 22.5096Z" fill="#182E7F"/>
<path fill-rule="evenodd" clip-rule="evenodd" d="M74.5975 33.7096C74.716 32.8481 75.4125 31.4964 75.8867 31.0062C76.3609 32.0014 76.9092 32.9669 78.7912 34.0364C78.0058 32.8926 77.8724 30.4566 78.6578 28.273C78.643 27.6194 78.3466 26.9807 78.1984 26.8025C77.6057 27.5897 76.6721 28.0502 75.3384 27.9165C75.3384 27.9165 75.9608 26.8767 76.0645 25.9855C75.4421 26.5945 74.6864 26.8025 73.8269 26.7133C73.8269 26.7133 72.9674 28.4513 72.2413 30.3972C72.8488 31.4072 73.9751 33.16 74.5975 33.7096Z" fill="#182E7F"/>
<path fill-rule="evenodd" clip-rule="evenodd" d="M51.9395 27.7828C51.895 27.7234 51.9395 27.7085 51.984 27.7383C52.0136 27.768 52.9027 28.2879 54.8144 27.0401C56.726 25.7924 58.2079 25.2725 58.9636 25.1388C58.9636 25.1388 59.6749 25.6438 60.3418 26.2231C58.5487 26.3717 57.1557 27.4709 56.9927 27.8422C56.9779 27.8719 56.9335 27.8719 56.9335 27.8422C56.7408 27.2629 56.9927 26.7727 56.9927 26.7727C56.9927 26.7727 56.1629 27.2926 54.5476 28.2284C52.9324 29.194 52.2062 28.1393 51.9395 27.7828Z" fill="#182E7F"/>
<path fill-rule="evenodd" clip-rule="evenodd" d="M64.4169 27.0698C64.2687 26.7579 64.0909 25.525 64.2243 24.6932C65.6913 25.9855 67.4992 26.238 68.4625 25.4953C67.6326 25.525 66.5656 24.6041 66.0173 23.7871C67.9142 23.2375 69.1145 20.1775 68.9218 19.3308C67.6919 20.133 65.4987 20.6826 62.4756 20.4746C62.4756 20.4746 57.452 20.4894 57.3038 20.4894C57.0075 20.4894 56.8889 20.6826 56.9926 21.0093C58.03 24.5149 60.8604 25.3616 61.9718 26.8767C61.9718 26.8767 61.957 26.4014 62.4756 25.2725C62.8313 25.8369 63.7945 26.9213 64.4169 27.0698ZM61.4679 21.5292C61.4679 21.6926 61.2457 21.7521 60.4454 22.0788C59.6452 22.4056 59.2451 22.8364 59.2451 22.8364C59.2451 22.8364 58.8598 22.1977 58.7413 21.9897C58.6227 21.7818 58.5783 21.5292 58.9932 21.5292H61.4679Z" fill="#182E7F"/>
<path fill-rule="evenodd" clip-rule="evenodd" d="M56.311 21.3361C56.311 21.3361 53.5547 21.2321 52.4877 22.7324C51.4059 24.2178 52.9026 25.8518 52.9915 25.9706C53.0508 26.0449 53.1101 26.0151 53.0953 25.926C53.0805 25.8517 53.8659 23.5494 58.3856 24.7674C58.4894 24.7971 58.5486 24.7971 58.4449 24.708C57.6299 24.0247 56.637 22.5393 56.311 21.3361ZM56.1628 22.5096C55.8071 22.3462 55.3181 22.3313 54.9032 22.4204C54.9032 22.0045 55.5108 21.8857 55.8516 21.8857C55.8516 21.8857 56.0146 22.2868 56.1628 22.5096Z" fill="#182E7F"/>
<path fill-rule="evenodd" clip-rule="evenodd" d="M66.3582 33.7096C66.2396 32.8481 65.5431 31.4964 65.0689 31.0062C64.5947 32.0014 64.0464 32.9669 62.1644 34.0364C62.9498 32.8926 63.0832 30.4566 62.2978 28.273C62.3126 27.6194 62.609 26.9807 62.7572 26.8025C63.3499 27.5897 64.2835 28.0502 65.6172 27.9165C65.6172 27.9165 64.9948 26.8767 64.8911 25.9855C65.5135 26.5945 66.2692 26.8025 67.1287 26.7133C67.1287 26.7133 67.9882 28.4513 68.7144 30.3972C68.1216 31.4072 66.9954 33.16 66.3582 33.7096Z" fill="#182E7F"/>
<path d="M78.1243 34.7791C77.2055 34.4077 76.1385 33.1451 75.9014 32.7738C75.6791 33.4868 75.279 34.4969 75.1753 35.7149C74.3751 35.1802 72.6561 33.368 71.841 31.526C71.2038 33.264 70.8185 35.2396 70.4925 36.725C70.1665 35.2544 69.7664 33.264 69.1292 31.526C68.2993 33.368 66.5803 35.1802 65.7801 35.7149C65.6616 34.4969 65.2615 33.4868 65.054 32.7738C64.8169 33.1451 63.7499 34.4226 62.8312 34.7791C63.2757 37.0221 61.453 37.23 61.4234 37.6905H70.4777H79.532C79.5024 37.23 77.6797 37.0072 78.1243 34.7791Z" fill="#182E7F"/>
<path d="M81.4883 53.4805V38.9234C81.4883 38.6857 81.2957 38.4926 81.0586 38.4926H59.9861C59.749 38.4926 59.5563 38.6857 59.5563 38.9234V53.3913V53.4508L59.5415 53.525C59.5415 53.525 59.5119 54.2677 59.912 55.159C60.3862 56.2136 62.1348 57.9664 64.4466 59.1548C67.6771 60.8036 69.5739 62.1404 70.5075 62.8831C71.4411 62.1404 73.3379 60.8036 76.5684 59.1548C78.8802 57.9664 80.6436 56.2136 81.1178 55.159C81.5476 54.2529 81.4883 53.4953 81.4883 53.4805ZM74.3901 44.2263L74.4197 44.3452C74.7161 45.3998 74.9235 46.4842 75.0273 47.5685C75.9016 48.2518 76.687 48.9648 77.3538 49.6927C78.6431 48.1924 79.3396 46.7961 79.3544 45.7266C79.3396 45.7266 79.3248 45.7266 79.3248 45.7266C78.7172 45.7266 78.2133 45.2216 78.2133 44.6125C78.2133 44.3897 78.2874 44.1966 78.406 44.0332C77.8429 43.7362 77.1167 43.647 76.524 43.647C76.0201 43.647 75.4718 43.7064 74.8791 43.8104C74.8494 43.8104 74.8198 43.8253 74.7902 43.8401L74.6123 43.8847L74.6568 43.7659C74.7161 43.6173 74.7605 43.4688 74.7902 43.3648L74.805 43.3202H74.8494C76.5833 43.0083 77.9318 43.142 78.8061 43.6767C78.9691 43.5876 79.1469 43.5133 79.3544 43.5133C79.962 43.5133 80.4658 44.0184 80.4658 44.6274C80.4658 45.0433 80.2287 45.3998 79.8879 45.5929C79.9175 46.8258 79.1617 48.4152 77.7243 50.0789C77.7984 50.168 77.8725 50.2571 77.9466 50.3462C77.9911 50.4057 78.0355 50.4651 78.08 50.5245L78.1096 50.5691L78.0651 50.6136C77.991 50.6879 77.917 50.777 77.828 50.8661L77.7984 50.9107L77.7539 50.881C77.7391 50.881 77.7243 50.8661 77.7095 50.8661L77.6947 50.8513C77.6502 50.7919 77.6058 50.7473 77.5613 50.6879C77.502 50.6136 77.4428 50.5393 77.3835 50.4651C77.2205 50.6433 77.0278 50.8216 76.85 50.9998L76.7166 51.1335C76.4351 51.3118 76.198 51.3563 75.9905 51.2672L75.9016 51.2226L75.9757 51.1632C76.4054 50.777 76.7611 50.4205 77.0575 50.0937C76.4943 49.4847 75.8423 48.8757 75.131 48.2815C75.1755 48.8905 75.2051 49.4996 75.2051 50.0937C75.2051 50.6285 75.1755 51.1929 75.131 51.8614V51.8911L75.1014 51.9059C75.0125 51.9505 74.8643 52.0396 74.7161 52.1287L74.6123 52.1882L74.6272 52.0693C74.6864 51.3563 74.7161 50.7027 74.7161 50.0937C74.7161 49.8858 74.7013 49.6778 74.7013 49.4699V49.3213V49.3065C74.7161 48.9054 74.6123 47.6428 74.4938 46.8407L74.4642 46.8258V46.7961C74.3604 46.098 74.227 45.3998 74.0492 44.7462L74.0344 44.7017L74.0789 44.672C74.0937 44.672 74.0937 44.6571 74.0937 44.6571L74.1233 44.6274C74.2122 44.5383 74.2863 44.4343 74.3604 44.3452L74.3901 44.2263ZM67.2177 42.5775C68.092 40.5276 69.2775 39.3987 70.5223 39.3987C71.7819 39.3987 72.9526 40.5276 73.8269 42.5775L73.8418 42.6221L73.7973 42.6518C73.7528 42.6815 73.6343 42.7409 73.4565 42.8152L73.3972 42.8449L73.3676 42.7855C72.5822 40.9436 71.5448 39.8889 70.5075 39.8889C69.4702 39.8889 68.4329 40.9436 67.6475 42.7855L67.6178 42.8449L67.5586 42.8152C67.3807 42.7409 67.2622 42.6815 67.2177 42.6518L67.1733 42.6221L67.2177 42.5775ZM66.9213 43.142C67.2177 43.3202 68.0031 43.7064 68.833 43.4688C69.5887 43.246 70.5223 43.246 70.5223 43.246C70.5223 43.246 71.4559 43.246 72.2117 43.4688C73.0415 43.7213 73.8121 43.3351 74.1233 43.142C74.1826 43.1123 74.2419 43.1568 74.2271 43.2163C74.153 43.5876 73.8418 44.464 72.5525 44.7759C71.3374 45.0582 70.7743 46.4545 70.5964 47.0338C70.5816 47.108 70.4779 47.108 70.4631 47.0338C70.2852 46.4693 69.7221 45.0582 68.507 44.7759C67.2177 44.4789 66.9065 43.5876 66.8324 43.2163C66.8028 43.1568 66.8621 43.1123 66.9213 43.142ZM69.0256 46.6327C69.2479 46.6327 69.4406 46.5584 69.6184 46.4396C69.7369 46.6624 69.811 46.8555 69.8703 47.0189C69.6184 47.1675 69.322 47.2566 69.0256 47.2566C68.092 47.2566 67.3363 46.499 67.3363 45.5632C67.3363 45.3404 67.3955 45.1324 67.4696 44.9393C67.6326 45.0433 67.8253 45.1176 68.0476 45.1919C68.0031 45.3107 67.9587 45.4295 67.9587 45.5632C67.9735 46.1574 68.4477 46.6327 69.0256 46.6327ZM68.5514 45.5781C68.5514 45.5186 68.5662 45.4444 68.5959 45.3998C68.8774 45.5186 69.1145 45.7266 69.2924 45.9643C69.2183 46.0237 69.1294 46.0534 69.0256 46.0534C68.7589 46.0534 68.5514 45.8454 68.5514 45.5781ZM69.0256 47.821C69.4109 47.821 69.7962 47.7171 70.1519 47.5091C70.2556 47.5834 70.389 47.9399 70.5223 47.9399C70.6705 47.9399 70.7891 47.5982 70.9076 47.5091C71.2633 47.7171 71.6486 47.8359 72.0339 47.8359C72.6414 47.8359 73.1897 47.5982 73.5898 47.1972C73.5898 47.212 73.6047 47.2269 73.6195 47.2566C73.8269 47.925 73.8566 48.8163 73.8121 49.1876C73.7677 49.5441 73.6788 49.9303 73.575 50.2423C73.4416 50.673 73.3083 50.9998 73.3083 50.9998C73.3083 50.9998 73.2786 51.1038 73.2194 51.2523C73.1008 51.5643 72.8637 52.1585 72.5525 52.8269C71.9005 52.4258 71.1299 52.203 70.3149 52.203C69.5739 52.203 68.8774 52.3961 68.2699 52.7229C68.0031 52.1287 67.7957 51.6088 67.6771 51.2969C67.603 51.1187 67.5734 51.0147 67.5586 50.9998C67.5586 50.9998 67.3955 50.6136 67.2474 50.1086C67.1584 49.8264 67.0843 49.4996 67.0547 49.1876C67.0251 48.9202 66.9954 48.0141 67.2177 47.3011C67.2473 47.1972 67.2918 47.108 67.3363 47.0041C67.7216 47.4943 68.3291 47.821 69.0256 47.821ZM72.019 46.6327C72.597 46.6327 73.0712 46.1574 73.0712 45.5781C73.0712 45.4444 73.0415 45.3255 72.9823 45.2067C73.1897 45.1324 73.3824 45.0582 73.5602 44.9542C73.6491 45.1473 73.6936 45.3552 73.6936 45.5781C73.6936 46.5139 72.9378 47.2714 72.0042 47.2714C71.693 47.2714 71.4115 47.1823 71.1447 47.0189C71.204 46.8704 71.2929 46.6624 71.3966 46.4396C71.6041 46.5733 71.8116 46.6327 72.019 46.6327ZM71.7523 45.9494C71.9449 45.7117 72.182 45.5038 72.4636 45.385C72.4932 45.4444 72.5081 45.5038 72.5081 45.5781C72.5081 45.8454 72.3006 46.0534 72.0339 46.0534C71.9153 46.0534 71.8264 46.0088 71.7523 45.9494ZM61.6754 43.4985C61.8977 43.4985 62.0904 43.5727 62.2682 43.6916C62.8313 43.3351 63.5871 43.142 64.5355 43.142C65.0393 43.142 65.5876 43.1865 66.1804 43.2905L66.2693 43.3054L66.2841 43.3499C66.3138 43.4539 66.3582 43.6025 66.4175 43.751L66.462 43.8698L66.2693 43.8253C66.21 43.8104 66.1508 43.7956 66.1063 43.7807C65.558 43.6916 65.0245 43.6322 64.5503 43.6322C63.9427 43.6322 63.2018 43.7213 62.6239 44.0332C62.7276 44.1966 62.8017 44.3897 62.8017 44.5977C62.8017 45.2067 62.3127 45.6969 61.7051 45.7117C61.7347 46.7812 62.4312 48.1775 63.7205 49.6778C64.3873 48.95 65.1727 48.237 66.0322 47.5537C66.1508 46.4842 66.3434 45.3998 66.6398 44.3452L66.6694 44.2263L66.7435 44.3303C66.8176 44.4343 66.8917 44.5234 66.9806 44.6125C67.0102 44.6423 67.0251 44.6571 67.0399 44.672L67.0695 44.7017V44.7462C66.8917 45.3998 66.7583 46.0831 66.6546 46.7812L66.6398 46.8258H66.5953C66.5212 47.3309 66.4471 48.029 66.4175 48.7569C66.3879 49.2619 66.373 49.6778 66.373 50.0789C66.373 50.5839 66.3879 51.1335 66.4471 51.7722L66.462 51.8762L66.3582 51.8317C66.2248 51.7722 66.1063 51.7425 66.0026 51.7425H65.9433V51.6831C65.9137 51.2078 65.884 50.6582 65.884 50.0789C65.884 49.4847 65.9137 48.8757 65.9581 48.2667C65.2468 48.846 64.5948 49.455 64.0465 50.064C64.5207 50.5839 65.0838 51.1187 65.7358 51.6831L65.8247 51.7574L65.7062 51.7871C65.4839 51.8465 65.2764 51.8317 65.0542 51.7574L65.0393 51.7425C64.491 51.2523 64.0613 50.8364 63.6908 50.4502C63.6167 50.5394 63.5426 50.6285 63.4685 50.7176L63.4093 50.7919H63.3944C63.2907 50.8216 63.187 50.8661 63.0981 50.9256L63.0536 50.9553L63.0091 50.9256C62.9795 50.8959 62.9499 50.881 62.9202 50.8513C62.8906 50.8364 62.8758 50.8216 62.8461 50.7919L62.8017 50.7473L62.8461 50.7027C63.024 50.4651 63.2018 50.2571 63.3648 50.064C61.9274 48.4152 61.1864 46.8407 61.2012 45.6078C60.8308 45.4295 60.5788 45.0582 60.5788 44.6125C60.564 44.0035 61.0679 43.4985 61.6754 43.4985ZM74.0492 56.986C73.3972 58.724 72.5377 59.9123 71.6041 60.4322C71.5152 60.9521 71.0854 61.368 70.5371 61.368C69.9888 61.368 69.5591 60.967 69.4702 60.4322C68.5366 59.9123 67.6771 58.7388 67.0251 57.0158L66.9954 56.9563L67.4696 56.8227L67.4845 56.8821C68.0328 58.3526 68.7292 59.3776 69.485 59.8826C69.6332 59.4518 70.0333 59.1399 70.5223 59.1399C70.9965 59.1399 71.3966 59.4518 71.5596 59.8826C72.3154 59.3776 73.0119 58.3526 73.5602 56.8969L73.575 56.8524L73.6343 56.8672C73.7528 56.8821 73.8862 56.9118 74.0048 56.9266L74.0789 56.9415L74.0492 56.986ZM69.5591 56.8969C69.5591 56.5404 69.6776 55.6195 69.811 55.2778C70.0037 55.1441 70.2408 55.0699 70.4927 55.0699C70.7891 55.0699 71.0558 55.1738 71.2633 55.3372C71.3818 55.6789 71.4856 56.5553 71.4856 56.8969C71.4856 57.2683 70.6557 57.5208 70.5075 57.5505C70.389 57.5208 69.5591 57.2683 69.5591 56.8969ZM80.7029 53.3913C80.6436 53.4656 80.5695 53.525 80.4658 53.5696C80.4658 53.5696 80.451 53.5696 80.451 53.5845C80.3621 53.629 80.2435 53.6439 80.1102 53.6587H80.0212C79.8434 53.6587 79.6804 53.629 79.5619 53.5696C79.5174 53.5399 79.4729 53.5102 79.4285 53.4805L79.4137 53.4953C79.1173 53.525 78.5245 53.7033 78.3467 53.7924C78.4504 53.7924 79.1766 53.8518 79.7397 54.2826C79.9916 54.4163 80.4806 54.5648 80.6733 54.5648C80.6881 54.654 79.799 55.2778 78.1985 54.9213L77.7836 54.8173C77.0426 54.6094 76.3017 54.5351 75.5459 54.5797C75.6348 54.6094 75.7089 54.6391 75.7534 54.6539C75.9609 54.7282 76.1535 54.8173 76.3313 54.8916C76.361 54.9065 76.3758 54.9213 76.3906 54.951C76.4351 54.9362 76.4795 54.9362 76.5092 54.951C76.5833 54.9659 76.6574 54.9807 76.7314 54.9956C76.8204 55.0253 76.9093 55.0699 77.013 55.1293C77.1464 55.2036 77.2353 55.2927 77.3094 55.3818C77.3538 55.4412 77.3835 55.5006 77.3983 55.5601C77.4279 55.6937 77.3983 55.8423 77.3242 55.976C77.0278 56.3325 76.7018 56.3325 76.361 55.976C76.3462 55.9611 76.3017 55.9166 76.3017 55.9017C76.2424 55.8571 76.1239 55.7086 76.0794 55.5452C76.0646 55.5155 76.0498 55.4709 76.0498 55.4264C76.035 55.4115 76.0053 55.4264 75.9905 55.4115C75.8571 55.2927 75.7089 55.1887 75.5608 55.1293C75.2644 55.0104 74.968 54.9213 74.6864 54.8768C74.5975 54.8619 74.5383 54.8619 74.4642 54.8471C74.7309 55.0253 74.9384 55.2036 75.0865 55.4115C75.0865 55.4264 75.1014 55.4412 75.1162 55.4561C75.294 55.7383 75.2644 55.976 75.3533 56.1988C75.6052 56.7484 75.7089 56.7929 75.9312 56.986C75.7089 57.0603 74.4049 57.0455 73.7528 56.1542C73.7232 56.1097 73.7084 56.0651 73.6788 56.0057C73.5306 55.6937 73.412 55.3075 73.3527 55.0699C73.2786 54.7876 73.3972 54.5797 73.249 54.4906C73.086 54.4014 73.0119 54.5203 73.0119 54.5203C73.0119 54.5203 72.9971 54.5351 72.9823 54.55L72.9674 54.5648L72.9526 54.5797L72.9378 54.5945L72.8489 54.5797C72.7896 54.6391 72.7748 54.654 72.76 54.6985L72.7303 54.7579C72.7007 54.8025 72.6859 54.8322 72.6711 54.8619C72.6562 54.8768 72.6414 54.9065 72.6266 54.9213C72.6118 54.951 72.5822 54.9659 72.5673 54.9807C72.5525 54.9956 72.5229 55.0105 72.5081 55.0105C72.4636 55.0402 72.4191 55.0402 72.3747 55.0105C72.3599 55.0253 72.3451 55.0402 72.3302 55.055C72.3154 55.0699 72.271 55.0996 72.2561 55.0996C72.182 55.1441 72.0931 55.159 72.0042 55.159C71.9153 55.159 71.8412 55.0996 71.8264 55.0105C71.8116 54.9659 71.8264 54.9213 71.856 54.8768L71.8264 54.8916C71.7671 54.9065 71.7227 54.9213 71.6634 54.9213C71.6041 54.9213 71.5448 54.8916 71.4856 54.8322C71.4559 54.7728 71.4559 54.6985 71.5004 54.6391C71.5597 54.5797 71.5152 54.5797 71.5152 54.5797C71.4559 54.6242 71.3966 54.6688 71.3374 54.6985C71.2781 54.7282 71.2188 54.7134 71.1595 54.6688C71.1151 54.6242 71.0854 54.5648 71.1003 54.5054L71.1151 54.4311C71.1151 54.4163 71.1151 54.4014 71.1299 54.3866C71.1299 54.3717 71.1299 54.342 71.1299 54.342C71.1299 54.342 71.1299 54.3272 71.1299 54.3123C71.1151 54.3123 71.0854 54.2975 71.0706 54.2975L71.0114 54.2826C70.9965 54.2826 70.9965 54.2826 70.9817 54.2826C70.8483 54.2529 70.7298 54.2232 70.6112 54.1935C70.5964 54.1935 70.5816 54.1935 70.5668 54.1786C70.552 54.1786 70.552 54.1786 70.5371 54.1935C70.4334 54.238 70.3149 54.2677 70.1963 54.3123C70.1963 54.3123 70.1815 54.3123 70.1667 54.3123L70.1222 54.3272C70.0926 54.342 70.0629 54.342 70.0481 54.3569C70.0333 54.342 70.0333 54.3272 70.0185 54.3123L70.0037 54.2975C69.9888 54.2826 69.9888 54.2529 69.974 54.238C70.0037 54.1935 70.0185 54.1638 70.0333 54.1489C70.0333 54.1341 70.0333 54.1192 70.0333 54.1043C70.0185 54.1043 70.0185 54.1043 70.0037 54.1043C69.9444 54.1043 69.8851 54.1192 69.8258 54.1192C69.8258 54.1638 69.8258 54.2083 69.7962 54.238C69.7814 54.2529 69.7666 54.2677 69.7369 54.2826C69.7369 54.3123 69.7517 54.3569 69.7517 54.3866V54.4311V54.446V54.4906C69.7666 54.55 69.7369 54.6391 69.6925 54.6837C69.6332 54.7282 69.5739 54.7431 69.5146 54.7282C69.485 54.7134 69.4554 54.6985 69.4257 54.6837C69.3961 54.6688 69.3665 54.6391 69.3368 54.6242C69.322 54.6242 69.322 54.6094 69.3072 54.6094C69.3072 54.6094 69.2924 54.6094 69.2775 54.5797L69.2627 54.5648C69.2479 54.55 69.2479 54.5351 69.2331 54.5351C69.2331 54.55 69.2479 54.5648 69.2479 54.5797C69.2479 54.5797 69.2479 54.5945 69.2627 54.6094C69.2627 54.6094 69.2775 54.6539 69.2924 54.6539C69.3072 54.6688 69.3368 54.7134 69.3368 54.7282C69.3665 54.7876 69.3516 54.8471 69.322 54.8916C69.2627 54.9659 69.2034 54.9807 69.1294 54.9659C69.1145 54.9659 69.0701 54.951 69.0404 54.951C69.0108 54.9362 68.996 54.9213 68.9663 54.9213C69.0108 54.9659 69.0256 55.0253 69.0108 55.0847C68.996 55.159 68.9219 55.2036 68.8478 55.2036C68.7885 55.2036 68.7144 55.2036 68.6551 55.1887C68.6403 55.1887 68.6255 55.1738 68.5959 55.159C68.5811 55.159 68.5366 55.1293 68.5218 55.1144C68.4773 55.0847 68.4625 55.0699 68.4477 55.055C68.4032 55.0996 68.3588 55.0996 68.3143 55.0699C68.2995 55.0699 68.2699 55.0253 68.255 55.0253C68.2106 54.9807 68.1958 54.951 68.1661 54.9065L68.1513 54.8768C68.1513 54.8768 68.1365 54.8619 68.1365 54.8471C68.1365 54.8322 68.1217 54.8173 68.1217 54.8173L68.092 54.7728L68.0624 54.7282C67.8549 54.55 67.6178 55.159 67.603 55.1738C66.788 56.8524 64.9208 57.1494 64.8911 57.0603C64.906 57.0306 65.3209 56.8524 65.4543 56.2433C65.5284 55.9017 65.5284 55.7829 65.721 55.4858C65.7506 55.4412 65.7803 55.3967 65.8099 55.3521C65.9433 55.1887 66.1211 55.055 66.3286 54.9213C66.3286 54.9213 66.3286 54.9213 66.3138 54.9065C66.2397 54.9065 66.1804 54.9213 66.0915 54.9362C65.8247 54.9807 65.5432 55.0699 65.232 55.1887C65.0986 55.2481 64.9504 55.3372 64.8022 55.4709C64.7874 55.4858 64.7578 55.4858 64.743 55.4858C64.743 55.5303 64.7281 55.5601 64.7133 55.6046C64.6837 55.7086 64.6096 55.8126 64.5207 55.9166C64.5059 55.9463 64.4762 55.9611 64.4466 55.9908L64.4169 56.0205C64.0909 56.3622 63.7797 56.377 63.4685 56.0502C63.4389 56.0205 63.4241 55.976 63.4093 55.9314C63.3648 55.8126 63.35 55.7086 63.3648 55.5898C63.3944 55.4858 63.4389 55.3967 63.513 55.3224C63.5723 55.2481 63.6612 55.1887 63.7501 55.1441C63.8538 55.0847 63.9427 55.0402 64.0317 55.0105C64.0909 54.9956 64.165 54.9659 64.2243 54.9659C64.2688 54.9659 64.3132 54.9659 64.3577 54.9659C64.3725 54.9362 64.4021 54.9213 64.4169 54.9065C64.5059 54.8619 64.5948 54.8173 64.6985 54.7728C64.7874 54.7282 64.8763 54.6985 64.9652 54.6391C65.0097 54.6242 65.0542 54.5945 65.0986 54.5797C64.3873 54.5351 63.676 54.6242 62.9647 54.8173C62.8461 54.8471 62.698 54.8768 62.5498 54.9213C61.6903 55.1293 60.0454 54.654 60.0602 54.5648C60.075 54.4757 60.4603 54.4906 60.9641 54.2232C61.2753 54.0598 61.5124 53.8667 61.7792 53.8221C61.9866 53.7627 62.446 53.7478 62.5498 53.7478C62.3719 53.6587 61.6014 53.5399 61.3198 53.4953C61.305 53.4953 61.305 53.4805 61.305 53.4805C61.2605 53.5102 61.2161 53.5399 61.1716 53.5696C60.9938 53.6439 60.816 53.6736 60.6233 53.6587C60.4899 53.6587 60.3862 53.629 60.2825 53.5845C60.2825 53.5845 60.2825 53.5845 60.2677 53.5845C60.1639 53.5399 60.075 53.4805 60.0157 53.4062C59.9565 53.3319 59.8972 53.1834 59.9416 52.9903C60.0305 52.6189 60.3566 52.4555 60.7863 52.5892C61.0086 52.6635 61.1864 52.7675 61.305 52.8863C61.3346 52.916 61.3494 52.9457 61.3643 52.9754H61.3791C61.6458 53.02 61.9718 53.1091 62.2978 53.2577C62.6239 53.3913 62.8906 53.4805 63.1129 53.525C63.0536 53.4953 62.9647 53.4508 62.8758 53.4062C62.8165 53.3765 62.7424 53.3319 62.6683 53.2874C62.5794 53.228 62.4757 53.1834 62.4016 53.1388C61.8977 52.9012 61.3791 52.6486 61.0234 52.2327C60.7419 51.9059 60.6826 51.6683 60.6085 51.4009C60.5048 50.6433 60.1491 50.2868 60.2084 50.2126C60.2677 50.1383 61.4828 50.7176 61.9126 51.2078C62.2089 51.5346 62.283 51.8168 62.3423 52.0545L62.3571 52.1139C62.4164 52.3813 62.698 52.6189 63.0981 52.9012C63.1573 52.9457 63.2018 52.9754 63.2611 53.0051C63.1573 52.8714 63.0684 52.7378 62.9943 52.6041C62.9795 52.5744 62.9795 52.5447 62.9795 52.515C62.9351 52.4852 62.9054 52.4704 62.861 52.4407C62.8165 52.411 62.772 52.3516 62.7276 52.2921C62.6683 52.203 62.6239 52.1139 62.5794 52.0248C62.4757 51.7722 62.4609 51.5494 62.5498 51.3712C62.5942 51.2821 62.6831 51.1781 62.8906 51.1187C63.2314 51.0295 63.4834 51.2226 63.6315 51.698C63.6464 51.802 63.6464 51.9059 63.6464 51.9802C63.6464 52.0693 63.6315 52.1436 63.6167 52.2179C63.6019 52.2476 63.6019 52.2624 63.5871 52.2921C63.6019 52.307 63.6167 52.3218 63.6167 52.3367C63.7945 52.8863 64.2391 53.3171 64.7133 53.629C64.1057 53.0943 63.7797 51.9208 63.8538 51.8762C63.9279 51.8317 64.5059 52.1584 65.0097 52.3664C65.2913 52.4852 65.5432 52.6189 65.7803 52.7675C65.9433 52.8714 66.0915 52.9903 66.2397 53.124C66.373 53.2428 66.4768 53.3616 66.5805 53.4656L66.625 53.5102C66.7139 53.6142 66.788 53.6736 66.8472 53.733C66.9065 53.7776 66.9658 53.8221 67.0399 53.8667C67.1881 53.9558 67.44 53.8518 67.44 53.8518C67.4845 53.837 67.5882 53.8221 67.6919 53.8073C67.7067 53.7924 67.7067 53.7776 67.7216 53.7627C67.7512 53.733 67.766 53.7181 67.766 53.7033C67.8549 53.629 67.9587 53.5844 68.0328 53.5696C68.0328 53.5399 68.0328 53.525 68.0328 53.4953C68.0624 53.3616 68.1513 53.2428 68.2995 53.1537C68.344 53.1388 68.3736 53.1091 68.418 53.1091C68.4477 53.1091 68.4773 53.0943 68.507 53.0943C68.5366 53.0943 68.5514 53.0943 68.5811 53.0943C68.6107 53.0943 68.6403 53.0943 68.67 53.1091C68.6996 53.0348 68.7441 52.9754 68.8182 52.9309C68.833 52.9309 68.833 52.916 68.8478 52.916C69.0404 52.812 69.2775 52.8715 69.4257 53.02C69.4998 53.0943 69.5443 53.1982 69.5591 53.3022C69.5591 53.3171 69.5591 53.3616 69.5591 53.3765C69.5591 53.4211 69.5591 53.4656 69.5591 53.5102C69.5591 53.5696 69.5739 53.6142 69.5887 53.6736V53.6884C69.7073 53.6884 69.8258 53.7033 69.9444 53.7033C69.9592 53.7033 69.974 53.7033 69.9888 53.7033C69.9888 53.7033 70.0037 53.7033 70.0185 53.7033H70.0333C70.0926 53.7033 70.1519 53.7181 70.2111 53.733C70.3 53.7478 70.389 53.7627 70.4779 53.7776C70.552 53.7478 70.6409 53.733 70.715 53.7181C70.7742 53.7033 70.8187 53.6884 70.878 53.6736C70.878 53.6736 70.878 53.6736 70.8928 53.6736C70.9076 53.6736 70.9076 53.6736 70.9224 53.6587C70.9373 53.6587 70.9521 53.6587 70.9669 53.6587C71.0114 53.6439 71.041 53.6439 71.0854 53.6439C71.1003 53.5696 71.1151 53.4805 71.1151 53.3616C71.1151 53.2577 71.1299 53.1982 71.1595 53.1388C71.1744 53.1091 71.204 53.0646 71.2336 53.0348C71.2633 53.0051 71.2929 52.9754 71.3225 52.9606C71.4559 52.8566 71.6486 52.8417 71.8116 52.916L71.856 52.9457C71.9153 52.9903 71.9746 53.0497 72.0042 53.124C72.0635 53.1091 72.1228 53.1091 72.182 53.124C72.2265 53.1388 72.2561 53.1388 72.2858 53.1537C72.3154 53.1685 72.3302 53.1685 72.3451 53.1834H72.3599C72.5081 53.2577 72.597 53.3765 72.6118 53.525C72.6118 53.5399 72.6118 53.5399 72.6118 53.5547C72.6266 53.5547 72.6414 53.5547 72.6562 53.5547H72.6711C72.7155 53.5547 72.7452 53.5547 72.7896 53.5547C72.8044 53.5547 72.8193 53.5547 72.8193 53.5547C72.8193 53.5696 73.2342 53.5696 73.3676 53.5993L73.8121 53.629C73.8714 53.5845 73.9159 53.525 73.9751 53.4656C74.0789 53.3468 74.1974 53.2279 74.3308 53.1091C74.479 52.9754 74.6272 52.8566 74.7902 52.7526C75.0421 52.5892 75.3681 52.5298 75.6645 52.411C76.5536 52.0248 76.6425 51.5197 76.7166 51.5791C76.7907 51.6237 76.5092 53.0646 75.9164 53.5993C76.3906 53.2874 76.8204 52.8566 76.9982 52.307C76.9982 52.2921 77.013 52.2773 77.0278 52.2624C77.013 52.2327 76.9982 52.2179 76.9982 52.1882C76.9834 52.1139 76.9685 52.0396 76.9685 51.9505C76.9685 51.8614 76.9685 51.7722 76.9834 51.6683C77.1316 51.1929 77.3687 50.9998 77.7095 51.0741C77.917 51.1187 78.0059 51.2375 78.0503 51.3266C78.1392 51.49 78.1244 51.7128 78.0207 51.9654C77.9762 52.0693 77.9318 52.1584 77.8725 52.2327C77.828 52.307 77.7836 52.3516 77.7391 52.3961C77.7095 52.4258 77.665 52.4555 77.6206 52.4704C77.6206 52.5001 77.6206 52.5298 77.6058 52.5595C77.5317 52.6932 77.4279 52.8417 77.2946 53.0051C77.3538 52.9606 77.4131 52.916 77.4872 52.8714C77.917 52.5447 78.1689 52.2921 78.2282 52.0248C78.2874 51.7722 78.3615 51.5049 78.6579 51.1781C79.058 50.7176 79.1469 50.5988 79.6508 50.3314C79.7693 50.2868 80.3324 50.1234 80.3917 50.1977C80.451 50.272 79.9471 50.4799 79.799 51.3563C79.7249 51.6237 79.6656 52.0396 79.3692 52.3664C79.0136 52.7675 78.7024 52.8566 78.1985 53.1091L78.0948 53.1537C77.991 53.1982 77.8873 53.2577 77.7836 53.3022C77.6502 53.3765 77.5317 53.4359 77.4279 53.5102C77.665 53.4508 77.9614 53.3616 78.2874 53.2131C78.5838 53.0794 78.895 52.9754 79.221 52.9309H79.2358C79.2507 52.9012 79.2803 52.8566 79.3099 52.8269C79.4137 52.7081 79.5915 52.6189 79.8138 52.5447C80.2583 52.411 80.5695 52.5744 80.6584 52.9457C80.8215 53.1685 80.7622 53.3022 80.7029 53.3913Z" fill="#182E7F"/>
<path fill-rule="evenodd" clip-rule="evenodd" d="M100.19 32.8481C98.9598 32.447 96.5146 32.1796 95.1365 32.1499C97.9965 30.1892 98.1003 25.9706 97.2556 22.9106C96.6036 25.3764 94.8697 27.3223 93.6842 28.5701C93.788 29.7584 93.4027 31.8528 92.7506 33.1303C93.6842 33.4868 94.7957 34.0215 95.5959 34.6306C95.0772 35.2842 93.951 36.3091 93.2397 36.8735C93.8324 37.4974 94.8401 38.656 95.2847 39.3096C94.6178 39.7998 93.1804 40.3791 92.4395 40.6316C92.8099 41.3744 93.3286 42.7409 93.4619 43.6767C92.6173 43.8104 91.4614 43.9144 90.2611 43.8996C90.3204 44.8057 90.187 46.1871 90.0388 47.0338C88.9126 46.9447 87.5937 46.4842 87.0009 46.1871C86.6897 47.4348 85.9191 48.638 85.8895 48.6974C84.8077 47.524 83.7852 47.0635 82.8516 47.0635V46.2762C83.8297 46.2465 84.8225 46.6476 85.6079 47.3903C85.9488 46.7664 86.3193 45.6226 86.4526 44.9839C87.1639 45.3701 88.2605 45.7712 89.2386 45.9049C89.3275 45.073 89.4164 43.9293 89.2978 43.0232C90.2463 43.1271 91.328 43.1271 92.395 42.9192C92.232 42.1468 91.5503 40.8396 91.1206 40.1117C92.0986 39.8444 93.3138 39.369 93.9213 38.9977C93.4323 38.3292 92.5135 37.3192 91.9208 36.7844C92.6469 36.2794 93.7435 35.3584 94.2029 34.8385C93.4619 34.3483 92.3654 33.8136 91.5059 33.4868C92.6765 31.7934 92.9877 28.4215 92.7358 26.8916C91.654 30.4417 88.5569 33.056 86.6749 34.2592C85.8154 34.8088 86.1266 35.8486 86.4082 36.2942C88.4087 39.6364 86.0229 42.3102 82.8664 42.325V37.5865C82.8664 37.334 82.659 37.1409 82.4219 37.1409H70.5223H70.4927H58.5931C58.3412 37.1409 58.1485 37.3489 58.1485 37.5865V42.325C54.9921 42.3102 52.5915 39.6364 54.6068 36.2942C54.8884 35.8338 55.1996 34.794 54.3401 34.2592C52.4433 33.056 49.3609 30.4417 48.2792 26.8916C48.0272 28.4215 48.3384 31.7934 49.5091 33.4868C48.6496 33.8136 47.553 34.3483 46.8121 34.8385C47.2863 35.3733 48.3681 36.2942 49.0942 36.7844C48.5014 37.3192 47.5679 38.3292 47.0937 38.9977C47.716 39.369 48.9164 39.8444 49.8944 40.1117C49.4499 40.8396 48.783 42.1468 48.62 42.9192C49.687 43.1271 50.7687 43.1271 51.7171 43.0232C51.5986 43.9293 51.6727 45.073 51.7764 45.9049C52.7545 45.7563 53.8511 45.3553 54.5624 44.9839C54.6957 45.6078 55.081 46.7664 55.4071 47.3903C56.1925 46.6476 57.1853 46.2465 58.1634 46.2762V47.0635C57.2446 47.0635 56.2073 47.524 55.1255 48.6974C55.0958 48.638 54.3253 47.42 54.0141 46.1871C53.4213 46.4842 52.1024 46.9447 50.9762 47.0338C50.8132 46.2019 50.6946 44.8057 50.7539 43.8996C49.5388 43.9144 48.3829 43.8253 47.553 43.6767C47.6864 42.7409 48.2199 41.3744 48.5755 40.6316C47.8346 40.3643 46.3972 39.7998 45.7303 39.3096C46.1749 38.6412 47.1826 37.4974 47.7753 36.8735C47.064 36.3239 45.9378 35.299 45.4191 34.6306C46.2045 34.0364 47.3159 33.4868 48.2643 33.1303C47.6123 31.8528 47.227 29.7584 47.3308 28.5701C46.1452 27.3223 44.4114 25.3764 43.7594 22.9106C42.9147 25.9706 43.0185 30.1892 45.8785 32.1499C44.5003 32.1796 42.0701 32.4619 40.8253 32.8481C41.6699 33.8582 43.8631 35.3139 45.1672 35.9377C44.1447 36.3239 42.3072 37.3192 41.5514 38.0322C42.5294 38.6412 44.693 39.3393 45.7155 39.577C45.1227 40.0672 43.8928 41.4635 43.4482 42.221C44.2929 42.4884 46.0415 42.7112 47.1381 42.7855C46.7825 43.5282 46.3823 44.8354 46.2786 45.6969C46.8269 45.7563 48.6496 45.6523 49.5684 45.4592C49.4943 46.202 49.524 47.5537 49.6425 48.1478C50.5316 48.0142 51.8209 47.6577 52.4136 47.42C52.5915 48.0884 53.199 49.5144 53.4213 49.8561C53.8214 49.7818 54.266 49.6481 54.6809 49.4996C55.8516 49.0688 57.2298 49.5738 57.7336 50.7176C58.6079 52.7229 58.2671 55.0996 56.5777 54.6094C54.6365 54.9213 55.9702 57.3574 54.8884 58.1298C56.3851 59.1548 56.8297 56.7335 58.6672 57.1346C58.4746 58.0407 58.4894 59.6598 58.6376 60.3282C59.2451 59.8678 60.0898 59.4964 60.6381 59.4667C60.5047 60.0015 60.401 61.2344 60.5937 62.0068C60.979 61.7097 63.4241 61.0858 63.4241 61.0858C63.4241 61.0858 62.4608 63.0317 63.0832 64.9182C63.4093 65.1707 65.6469 64.0863 65.6617 63.4179C65.721 64.2052 64.7726 65.958 63.3352 66.2699C64.906 67.7999 66.2841 67.7405 66.4916 67.7405C66.7139 67.7405 66.9213 67.6959 67.1288 67.6068C67.0102 68.0524 66.9658 68.6169 67.0547 68.9882C67.1436 68.9882 67.2473 69.0031 67.3363 69.0031C67.7215 69.0031 68.0772 68.9437 68.3884 68.7951C68.4328 69.211 68.6255 69.7012 68.9367 70.0429C68.996 70.1023 69.0552 70.1765 69.1293 70.2211C69.485 70.2211 70.3445 69.8052 70.5223 69.5527L70.5371 69.5378L70.5519 69.5527C70.7446 69.8201 71.5893 70.2211 71.9449 70.2211C72.019 70.1765 72.0783 70.1023 72.1376 70.0429C72.4488 69.7012 72.6266 69.211 72.6859 68.7951C72.9971 68.9437 73.3527 69.0031 73.738 69.0031C73.8269 69.0031 73.9307 69.0031 74.0196 68.9882C74.1085 68.602 74.064 68.0524 73.9455 67.6068C74.1381 67.6959 74.3604 67.7405 74.5827 67.7405C74.7902 67.7405 76.1683 67.7999 77.7391 66.2699C76.3017 65.9431 75.3533 64.2052 75.4125 63.4179C75.4422 64.1012 77.665 65.1707 77.991 64.9182C78.5986 63.0317 77.6502 61.0858 77.6502 61.0858C77.6502 61.0858 80.0805 61.7097 80.4806 62.0068C80.6733 61.2344 80.5695 60.0015 80.4361 59.4667C80.9844 59.4964 81.8291 59.8529 82.4367 60.3282C82.5849 59.6598 82.5997 58.0407 82.4071 57.1346C84.2446 56.7335 84.6892 59.1548 86.1859 58.1298C85.1041 57.3574 86.423 54.9213 84.4965 54.6094C82.8072 55.0847 82.4812 52.7229 83.3407 50.7176C83.8445 49.5738 85.2227 49.0688 86.3933 49.4996C86.8083 49.6481 87.2528 49.7818 87.6529 49.8561C87.8752 49.5144 88.4828 48.0884 88.6606 47.42C89.2534 47.6577 90.5278 48.0142 91.4318 48.1478C91.5503 47.5685 91.5799 46.2168 91.5059 45.4592C92.4098 45.6672 94.2474 45.7563 94.7957 45.6969C94.6919 44.8502 94.2918 43.5282 93.9362 42.7855C95.0476 42.7261 96.7814 42.4884 97.6261 42.221C97.1815 41.4635 95.9515 40.0672 95.3588 39.577C96.3813 39.3542 98.5448 38.656 99.5229 38.0322C98.7523 37.3192 96.9296 36.3239 95.9071 35.9377C97.1519 35.3139 99.345 33.8582 100.19 32.8481ZM81.7995 55.4858C81.7402 55.6195 81.6513 55.768 81.5624 55.9017C81.5327 55.9463 81.5031 55.9908 81.4735 56.0503C81.3994 56.1542 81.3253 56.2582 81.2512 56.377C81.2067 56.4365 81.1623 56.4959 81.1178 56.5553C80.9993 56.689 80.8807 56.8375 80.7473 56.9712C80.6584 57.0603 80.5695 57.1643 80.4658 57.2534C80.3917 57.3277 80.3176 57.402 80.2435 57.4763C80.1398 57.5802 80.0212 57.6842 79.9175 57.7733C79.8582 57.8328 79.7841 57.8922 79.7248 57.9367C79.4433 58.1892 79.1321 58.4269 78.8061 58.6646C78.3763 58.9765 77.9169 59.2587 77.4427 59.541C77.2797 59.6301 77.1167 59.7341 76.9389 59.8232C73.0415 61.8285 71.1151 63.3585 70.5371 63.8635H70.4927C69.9147 63.3585 67.9883 61.8285 64.0909 59.8232C63.9131 59.7341 63.7501 59.6301 63.5871 59.541C63.0981 59.2736 62.6387 58.9765 62.2237 58.6646C61.8977 58.4269 61.5865 58.1744 61.305 57.9367C61.2457 57.8773 61.1716 57.8179 61.1123 57.7733C60.9938 57.6694 60.89 57.5654 60.7863 57.4763C60.7122 57.402 60.6381 57.3277 60.564 57.2534C60.4751 57.1643 60.3714 57.0603 60.2825 56.9712C60.1491 56.8227 60.0305 56.689 59.912 56.5553C59.8675 56.4959 59.8231 56.4365 59.7786 56.377C59.6897 56.2731 59.6156 56.1542 59.5563 56.0503C59.5267 56.0057 59.4971 55.9463 59.4674 55.9017C59.3785 55.7532 59.2896 55.6046 59.2303 55.4858C58.7117 54.342 58.8006 53.4211 58.8006 53.4211V53.3914V38.2104C58.8006 37.9579 59.008 37.7648 59.2451 37.7648H60.5788H70.5075H70.5223H70.5371H80.4658H81.7995C82.0514 37.7648 82.2441 37.9728 82.2441 38.2104V53.3914V53.4211C82.2292 53.4211 82.3181 54.342 81.7995 55.4858Z" fill="#182E7F"/>
<path d="M11.6059 102.752H10.5664V96.3465H11.6252L13.7812 99.2211L15.918 96.3465H16.9575V102.752H15.918V97.8899L14.0699 100.301H13.4732L11.6059 97.8899V102.752Z" fill="#231F20"/>
<path d="M19.7283 102.752H18.8428V96.3465H19.8823V101.054L23.5206 96.3465H24.4253V102.752H23.3858V98.025L19.7283 102.752Z" fill="#231F20"/>
<path d="M27.3691 102.752H26.3296V96.3465H27.3691V98.8738H30.8341V96.3465H31.8736V102.752H30.8341V99.7999H27.3691V102.752Z" fill="#231F20"/>
<path d="M34.6443 102.752H33.7588V96.3465H34.7984V101.054L38.4366 96.3465H39.3414V102.752H38.3019V98.025L34.6443 102.752Z" fill="#231F20"/>
<path d="M44.4415 102.867C43.4405 102.867 42.6127 102.559 41.9389 101.941C41.2844 101.305 40.9379 100.514 40.9379 99.5491C40.9379 98.5844 41.2652 97.7934 41.9389 97.1761C42.5934 96.5394 43.4212 96.2308 44.4415 96.2308C45.1152 96.2308 45.712 96.3658 46.251 96.6552V97.6777C45.712 97.3497 45.1152 97.1761 44.4607 97.1761C43.7677 97.1761 43.1902 97.4076 42.7089 97.8513C42.2469 98.295 42.0159 98.8738 42.0159 99.5491C42.0159 100.244 42.2469 100.803 42.7089 101.266C43.171 101.71 43.7677 101.941 44.48 101.941C45.2307 101.941 45.866 101.748 46.3665 101.363V102.385C45.8275 102.713 45.173 102.867 44.4415 102.867Z" fill="#231F20"/>
<path d="M47.4819 97.2725V96.3465H52.9104V97.2725H50.7159V102.752H49.6764V97.2725H47.4819Z" fill="#231F20"/>
<path d="M59.1076 102.752H54.2758V96.3465H58.9921V97.2725H55.2961V98.8738H58.2991V99.7999H55.2961V101.826H59.0884V102.752H59.1076Z" fill="#231F20"/>
<path d="M61.5514 102.752H60.5119V96.3465H63.3609C64.0539 96.3465 64.5929 96.5201 64.9779 96.8674C65.3822 97.1954 65.5747 97.6391 65.5747 98.1986C65.5747 98.7581 65.3822 99.2211 64.9779 99.5684C64.5929 99.9156 64.0539 100.109 63.3609 100.109H61.5514V102.752ZM61.5514 97.2725V99.1825H63.2839C63.6689 99.1825 63.9769 99.1053 64.2079 98.9317C64.4197 98.7581 64.5352 98.5266 64.5352 98.2179C64.5352 97.9092 64.4197 97.6777 64.2079 97.504C63.9962 97.3304 63.6882 97.2533 63.2839 97.2533H61.5514V97.2725Z" fill="#231F20"/>
<path d="M70.2898 102.867C69.2888 102.867 68.4611 102.559 67.7873 101.941C67.1328 101.305 66.7863 100.514 66.7863 99.5491C66.7863 98.5844 67.1136 97.7934 67.7873 97.1761C68.4418 96.5394 69.2696 96.2308 70.2898 96.2308C70.9636 96.2308 71.5604 96.3658 72.0994 96.6552V97.6777C71.5604 97.3497 70.9636 97.1761 70.3091 97.1761C69.6161 97.1761 69.0386 97.4076 68.5573 97.8513C68.0953 98.295 67.8643 98.8738 67.8643 99.5491C67.8643 100.244 68.0953 100.803 68.5573 101.266C69.0193 101.71 69.6161 101.941 70.3283 101.941C71.0791 101.941 71.7144 101.748 72.2149 101.363V102.385C71.6951 102.713 71.0406 102.867 70.2898 102.867Z" fill="#231F20"/>
<path d="M73.3304 97.2725V96.3465H78.759V97.2725H76.5644V102.752H75.5249V97.2725H73.3304Z" fill="#231F20"/>
<path d="M83.3775 102.752H80.1242V96.3465H83.1465C83.7433 96.3465 84.2245 96.4815 84.571 96.7709C84.9175 97.0603 85.0908 97.4269 85.0908 97.9285C85.0908 98.2372 85.0138 98.5266 84.8405 98.7581C84.6673 98.9896 84.4555 99.1632 84.2053 99.2597C84.6288 99.3369 84.956 99.5298 85.2255 99.8192C85.4951 100.128 85.6106 100.514 85.6106 100.957C85.6106 101.498 85.3988 101.941 85.0138 102.269C84.6095 102.597 84.0705 102.752 83.3775 102.752ZM81.1637 97.2725V98.9317H82.954C83.3005 98.9317 83.57 98.8545 83.7625 98.7195C83.955 98.5844 84.0513 98.3722 84.0513 98.1021C84.0513 97.832 83.955 97.6198 83.7625 97.4848C83.57 97.3497 83.3005 97.2725 82.954 97.2725H81.1637ZM81.1637 99.8192V101.826H83.185C83.5893 101.826 83.8973 101.729 84.1475 101.556C84.3785 101.382 84.494 101.131 84.494 100.803C84.494 100.494 84.3785 100.244 84.1475 100.07C83.9165 99.8963 83.6085 99.8192 83.185 99.8192H81.1637Z" fill="#231F20"/>
<path d="M92.7128 101.922C92.0775 102.559 91.269 102.867 90.2872 102.867C89.3055 102.867 88.4969 102.559 87.8617 101.922C87.2264 101.266 86.8992 100.494 86.8992 99.5491C86.8992 98.6037 87.2264 97.832 87.8617 97.1954C88.4969 96.5587 89.3055 96.2308 90.2872 96.2308C91.269 96.2308 92.0775 96.5587 92.7128 97.1954C93.348 97.832 93.6753 98.623 93.6753 99.5491C93.6753 100.475 93.3673 101.285 92.7128 101.922ZM88.6317 101.266C89.0745 101.71 89.6327 101.941 90.2872 101.941C90.9417 101.941 91.4807 101.71 91.9427 101.266C92.3855 100.803 92.6165 100.244 92.6165 99.5683C92.6165 98.8931 92.3855 98.3336 91.9427 97.8706C91.5 97.4076 90.9417 97.1761 90.2872 97.1761C89.6327 97.1761 89.0937 97.4076 88.6317 97.8706C88.1889 98.3143 87.9772 98.8738 87.9772 99.5683C87.9772 100.263 88.2082 100.803 88.6317 101.266Z" fill="#231F20"/>
<path d="M98.6015 102.752H97.562V96.3465H98.6015V98.8738H102.066V96.3465H103.106V102.752H102.066V99.7999H98.6015V102.752Z" fill="#231F20"/>
<path d="M105.511 102.752H104.395L107.301 96.3079H108.302L111.209 102.752H110.093L109.38 101.17H106.243L105.511 102.752ZM107.802 97.5812L106.589 100.263H109.015L107.802 97.5812Z" fill="#231F20"/>
<path d="M113.422 102.867C112.998 102.867 112.69 102.809 112.479 102.713V101.768C112.729 101.864 112.979 101.922 113.229 101.922C113.499 101.922 113.711 101.864 113.884 101.729C114.057 101.594 114.25 101.305 114.461 100.88L111.863 96.3465H113.037L115 99.8191L116.637 96.3465H117.753L115.308 101.382C114.846 102.385 114.211 102.867 113.422 102.867Z" fill="#231F20"/>
<path d="M120.1 102.752H119.061V96.3465H120.1V98.9703L122.815 96.3465H124.143L121.082 99.279L124.643 102.752H123.238L120.12 99.6841V102.752H120.1Z" fill="#231F20"/>
<path d="M126.759 102.752H125.874V96.3465H126.913V101.054L130.552 96.3465H131.457V102.752H130.417V98.025L126.759 102.752Z" fill="#231F20"/>
<path d="M0.885512 113.806H0V107.401H1.03951V112.108L4.67781 107.401H5.58257V113.806H4.54306V109.08L0.885512 113.806Z" fill="#231F20"/>
<path d="M12.9729 113.806H9.7196V107.401H12.7419C13.3387 107.401 13.8199 107.536 14.1664 107.826C14.5129 108.115 14.6862 108.482 14.6862 108.983C14.6862 109.292 14.6092 109.581 14.4359 109.813C14.2627 110.044 14.0509 110.218 13.8007 110.314C14.2242 110.391 14.5514 110.584 14.8209 110.874C15.0904 111.182 15.2059 111.568 15.2059 112.012C15.2059 112.552 14.9942 112.996 14.6092 113.324C14.2049 113.633 13.6659 113.806 12.9729 113.806ZM10.7591 108.327V109.986H12.5494C12.8959 109.986 13.1654 109.909 13.3579 109.774C13.5504 109.639 13.6467 109.427 13.6467 109.157C13.6467 108.887 13.5504 108.674 13.3579 108.539C13.1654 108.404 12.8959 108.327 12.5494 108.327H10.7591ZM10.7591 110.874V112.88H12.7804C13.1846 112.88 13.4927 112.784 13.7429 112.61C13.9739 112.436 14.0894 112.186 14.0894 111.858C14.0894 111.549 13.9739 111.298 13.7429 111.125C13.5119 110.951 13.2039 110.874 12.7804 110.874H10.7591Z" fill="#231F20"/>
<path d="M19.2664 113.806H16.7446V107.401H17.7841V109.62H19.2664C20.0364 109.62 20.6524 109.813 21.0951 110.199C21.5379 110.584 21.7496 111.086 21.7496 111.723C21.7496 112.34 21.5186 112.842 21.0759 113.227C20.6331 113.613 20.0171 113.806 19.2664 113.806ZM17.7841 110.546V112.88H19.2086C19.6706 112.88 20.0364 112.784 20.3059 112.572C20.5561 112.359 20.6909 112.089 20.6909 111.723C20.6909 111.356 20.5561 111.067 20.3059 110.854C20.0364 110.642 19.6899 110.546 19.2279 110.546H17.7841ZM23.6939 113.806H22.6544V107.401H23.6939V113.806Z" fill="#231F20"/>
<path d="M28.7745 113.922C27.7735 113.922 26.9457 113.613 26.272 112.996C25.6175 112.359 25.271 111.568 25.271 110.604C25.271 109.639 25.5982 108.848 26.272 108.231C26.9265 107.594 27.7543 107.285 28.7745 107.285C29.4483 107.285 30.045 107.42 30.584 107.71V108.732C30.045 108.404 29.4483 108.231 28.7938 108.231C28.1008 108.231 27.5232 108.462 27.042 108.906C26.58 109.35 26.349 109.928 26.349 110.604C26.349 111.298 26.58 111.858 27.042 112.321C27.504 112.764 28.1008 112.996 28.813 112.996C29.5638 112.996 30.199 112.803 30.6995 112.417V113.44C30.1605 113.748 29.506 113.922 28.7745 113.922Z" fill="#231F20"/>
<path d="M40.3028 113.806H32.2384V107.401H33.2777V112.88H35.7413V107.401H36.7806V112.88H39.2442V107.401H40.2835V113.806H40.3028Z" fill="#231F20"/>
<path d="M47.04 113.806H42.2082V107.401H46.9245V108.327H43.2477V109.928H46.2507V110.854H43.2477V112.88H47.04V113.806Z" fill="#231F20"/>
<path d="M49.4836 113.806H48.4441V107.401H53.0834V108.327H49.4836V113.806Z" fill="#231F20"/>
<path d="M59.8009 112.977C59.1656 113.613 58.3571 113.922 57.3753 113.922C56.3936 113.922 55.585 113.613 54.9498 112.977C54.3145 112.321 53.9873 111.549 53.9873 110.604C53.9873 109.658 54.3145 108.887 54.9498 108.25C55.585 107.613 56.3936 107.285 57.3753 107.285C58.3571 107.285 59.1656 107.613 59.8009 108.25C60.4361 108.887 60.7634 109.678 60.7634 110.604C60.7634 111.549 60.4554 112.34 59.8009 112.977ZM55.739 112.301C56.1818 112.745 56.7401 112.977 57.3946 112.977C58.0491 112.977 58.5881 112.745 59.0501 112.301C59.4928 111.838 59.7238 111.279 59.7238 110.604C59.7238 109.928 59.4928 109.369 59.0501 108.906C58.6073 108.443 58.0491 108.211 57.3946 108.211C56.7401 108.211 56.2011 108.443 55.739 108.906C55.2963 109.35 55.0845 109.909 55.0845 110.604C55.0653 111.279 55.2963 111.858 55.739 112.301Z" fill="#231F20"/>
<path d="M70.2133 112.977C69.5781 113.613 68.7695 113.922 67.7878 113.922C66.806 113.922 65.9975 113.613 65.3622 112.977C64.727 112.321 64.3997 111.549 64.3997 110.604C64.3997 109.658 64.727 108.887 65.3622 108.25C65.9975 107.613 66.806 107.285 67.7878 107.285C68.7695 107.285 69.5781 107.613 70.2133 108.25C70.8486 108.887 71.1758 109.678 71.1758 110.604C71.1758 111.549 70.8678 112.34 70.2133 112.977ZM66.1515 112.301C66.5943 112.745 67.1525 112.977 67.807 112.977C68.4615 112.977 69.0005 112.745 69.4625 112.301C69.9053 111.838 70.1363 111.279 70.1363 110.604C70.1363 109.928 69.9053 109.369 69.4625 108.906C69.0198 108.443 68.4615 108.211 67.807 108.211C67.1525 108.211 66.6135 108.443 66.1515 108.906C65.7087 109.35 65.497 109.909 65.497 110.604C65.4777 111.279 65.7087 111.858 66.1515 112.301Z" fill="#231F20"/>
<path d="M75.5635 113.806H72.753V107.401H77.4308V108.327H73.7925V109.678H75.5635C76.3143 109.678 76.911 109.871 77.3538 110.256C77.7965 110.642 78.0083 111.125 78.0083 111.742C78.0083 112.359 77.7965 112.861 77.3538 113.227C76.9303 113.613 76.3335 113.806 75.5635 113.806ZM73.8117 110.604V112.88H75.4865C75.9485 112.88 76.3143 112.784 76.5645 112.591C76.8148 112.398 76.9495 112.108 76.9495 111.761C76.9495 111.395 76.8148 111.125 76.5645 110.912C76.3143 110.719 75.9485 110.604 75.4865 110.604H73.8117Z" fill="#231F20"/>
<path d="M80.5288 113.806H79.4893V107.401H82.3383C83.0313 107.401 83.5703 107.575 83.9553 107.922C84.3596 108.25 84.5521 108.694 84.5521 109.253C84.5521 109.813 84.3596 110.276 83.9553 110.623C83.5703 110.97 83.0313 111.163 82.3383 111.163H80.5288V113.806ZM80.5288 108.327V110.237H82.2613C82.6463 110.237 82.9543 110.16 83.1853 109.986C83.397 109.813 83.5126 109.581 83.5126 109.273C83.5126 108.964 83.397 108.732 83.1853 108.559C82.9735 108.385 82.6655 108.308 82.2613 108.308H80.5288V108.327Z" fill="#231F20"/>
<path d="M85.8986 113.806H84.7821L87.6889 107.363H88.6899L91.5967 113.806H90.4802L89.7679 112.205H86.6301L85.8986 113.806ZM88.1894 108.636L86.9766 111.318H89.4022L88.1894 108.636Z" fill="#231F20"/>
<path d="M94.9256 113.922C94.0016 113.922 93.2316 113.748 92.5963 113.382V112.398C92.8851 112.572 93.2316 112.726 93.6166 112.822C94.0208 112.938 94.3866 112.996 94.7524 112.996C95.3106 112.996 95.7534 112.9 96.0806 112.687C96.4079 112.475 96.5619 112.205 96.5619 111.877C96.5619 111.568 96.4079 111.337 96.1191 111.163C95.8304 110.99 95.4261 110.893 94.9449 110.893H94.1171V109.967H95.0604C95.4646 109.967 95.7726 109.89 96.0036 109.736C96.2154 109.581 96.3309 109.369 96.3309 109.099C96.3309 108.829 96.1961 108.617 95.9459 108.482C95.6956 108.327 95.3491 108.25 94.9064 108.25C94.1941 108.25 93.5203 108.404 92.8658 108.713V107.787C93.5203 107.459 94.2133 107.305 94.9641 107.305C95.6764 107.305 96.2731 107.459 96.7159 107.787C97.1586 108.096 97.3704 108.52 97.3704 109.041C97.3704 109.388 97.2549 109.678 97.0431 109.909C96.8314 110.141 96.6004 110.295 96.3309 110.372C96.6774 110.469 96.9854 110.662 97.2356 110.932C97.4859 111.202 97.6206 111.549 97.6206 111.954C97.6206 112.533 97.3704 112.996 96.8891 113.382C96.4464 113.729 95.7726 113.922 94.9256 113.922Z" fill="#231F20"/>
<path d="M104.761 112.977C104.126 113.613 103.317 113.922 102.336 113.922C101.354 113.922 100.545 113.613 99.9102 112.977C99.2749 112.321 98.9476 111.549 98.9476 110.604C98.9476 109.658 99.2749 108.887 99.9102 108.25C100.545 107.613 101.354 107.285 102.336 107.285C103.317 107.285 104.126 107.613 104.761 108.25C105.396 108.887 105.724 109.678 105.724 110.604C105.724 111.549 105.396 112.34 104.761 112.977ZM100.68 112.301C101.123 112.745 101.681 112.977 102.336 112.977C102.99 112.977 103.529 112.745 103.991 112.301C104.434 111.838 104.665 111.279 104.665 110.604C104.665 109.928 104.434 109.369 103.991 108.906C103.548 108.443 102.99 108.211 102.336 108.211C101.681 108.211 101.142 108.443 100.68 108.906C100.237 109.35 100.026 109.909 100.026 110.604C100.026 111.279 100.237 111.858 100.68 112.301Z" fill="#231F20"/>
<path d="M110.573 113.806H107.32V107.401H110.342C110.939 107.401 111.42 107.536 111.767 107.826C112.113 108.115 112.287 108.482 112.287 108.983C112.287 109.292 112.21 109.581 112.036 109.813C111.863 110.044 111.651 110.218 111.401 110.314C111.825 110.391 112.152 110.584 112.421 110.874C112.691 111.182 112.806 111.568 112.806 112.012C112.806 112.552 112.595 112.996 112.21 113.324C111.805 113.633 111.247 113.806 110.573 113.806ZM108.34 108.327V109.986H110.131C110.477 109.986 110.747 109.909 110.939 109.774C111.132 109.639 111.228 109.427 111.228 109.157C111.228 108.887 111.132 108.674 110.939 108.539C110.747 108.404 110.477 108.327 110.131 108.327H108.34ZM108.34 110.874V112.88H110.362C110.766 112.88 111.074 112.784 111.324 112.61C111.555 112.436 111.671 112.186 111.671 111.858C111.671 111.549 111.555 111.298 111.324 111.125C111.093 110.951 110.785 110.874 110.362 110.874H108.34Z" fill="#231F20"/>
<path d="M114.788 113.806H113.672L116.578 107.363H117.579L120.486 113.806H119.37L118.657 112.205H115.52L114.788 113.806ZM117.079 108.636L115.866 111.318H118.292L117.079 108.636Z" fill="#231F20"/>
<path d="M122.833 113.806H121.794V107.401H122.833V109.928H126.298V107.401H127.338V113.806H126.298V110.854H122.833V113.806Z" fill="#231F20"/>
<path d="M130.108 113.806H129.223V107.401H130.262V112.108L133.901 107.401H134.805V113.806H133.766V109.08L130.108 113.806Z" fill="#231F20"/>
<path d="M137.422 113.806H136.171L138.289 110.99C137.827 110.893 137.461 110.681 137.191 110.372C136.941 110.064 136.806 109.678 136.806 109.234C136.806 108.674 136.999 108.231 137.403 107.903C137.807 107.575 138.327 107.401 139.001 107.401H142.023V113.806H140.984V111.105H139.424L137.422 113.806ZM139.059 110.218H140.984V108.327H139.059C138.693 108.327 138.385 108.404 138.173 108.578C137.961 108.752 137.865 108.983 137.865 109.273C137.865 109.581 137.961 109.793 138.173 109.967C138.385 110.121 138.674 110.218 139.059 110.218Z" fill="#231F20"/>
<path d="M3.52281 124.861H2.48329V118.456H5.33233C6.02534 118.456 6.56435 118.629 6.94935 118.977C7.35361 119.305 7.54611 119.748 7.54611 120.308C7.54611 120.867 7.35361 121.33 6.94935 121.678C6.56435 122.025 6.02534 122.218 5.33233 122.218H3.52281V124.861ZM3.52281 119.382V121.292H5.25533C5.64033 121.292 5.94834 121.215 6.17934 121.041C6.39109 120.867 6.50659 120.636 6.50659 120.327C6.50659 120.019 6.39109 119.787 6.17934 119.613C5.96759 119.44 5.65958 119.363 5.25533 119.363H3.52281V119.382Z" fill="#231F20"/>
<path d="M14.5902 124.012C13.9549 124.649 13.1464 124.957 12.1646 124.957C11.1829 124.957 10.3743 124.649 9.73909 124.012C9.10383 123.356 8.77658 122.584 8.77658 121.639C8.77658 120.694 9.10383 119.922 9.73909 119.285C10.3743 118.649 11.1829 118.321 12.1646 118.321C13.1464 118.321 13.9549 118.649 14.5902 119.285C15.2254 119.922 15.5527 120.713 15.5527 121.639C15.5527 122.565 15.2254 123.375 14.5902 124.012ZM10.5091 123.356C10.9519 123.8 11.5101 124.031 12.1646 124.031C12.8191 124.031 13.3581 123.8 13.8201 123.356C14.2629 122.893 14.4939 122.334 14.4939 121.658C14.4939 120.983 14.2629 120.424 13.8201 119.961C13.3774 119.498 12.8191 119.266 12.1646 119.266C11.5101 119.266 10.9711 119.498 10.5091 119.961C10.0663 120.404 9.85459 120.964 9.85459 121.658C9.85459 122.353 10.0663 122.893 10.5091 123.356Z" fill="#231F20"/>
<path d="M20.4214 124.977C19.4204 124.977 18.5926 124.668 17.9189 124.051C17.2644 123.414 16.9179 122.623 16.9179 121.658C16.9179 120.694 17.2451 119.903 17.9189 119.285C18.5734 118.649 19.4011 118.34 20.4214 118.34C21.0952 118.34 21.6919 118.475 22.2309 118.764V119.787C21.6919 119.459 21.0952 119.285 20.4407 119.285C19.7477 119.285 19.1701 119.517 18.6889 119.961C18.2269 120.404 17.9959 120.983 17.9959 121.658C17.9959 122.353 18.2269 122.912 18.6889 123.375C19.1509 123.819 19.7476 124.051 20.4599 124.051C21.2107 124.051 21.8459 123.858 22.3464 123.472V124.494C21.8074 124.803 21.1722 124.977 20.4214 124.977Z" fill="#231F20"/>
<path d="M26.9845 124.977C25.9835 124.977 25.1558 124.668 24.482 124.051C23.8275 123.414 23.481 122.623 23.481 121.658C23.481 120.694 23.8082 119.903 24.482 119.285C25.1365 118.649 25.9643 118.34 26.9845 118.34C27.6583 118.34 28.2551 118.475 28.7941 118.764V119.787C28.2551 119.459 27.6583 119.285 27.0038 119.285C26.3108 119.285 25.7333 119.517 25.252 119.961C24.79 120.404 24.559 120.983 24.559 121.658C24.559 122.353 24.79 122.912 25.252 123.375C25.714 123.819 26.3108 124.051 27.023 124.051C27.7738 124.051 28.4091 123.858 28.9096 123.472V124.494C28.3706 124.803 27.7353 124.977 26.9845 124.977Z" fill="#231F20"/>
<path d="M31.3339 124.861H30.4484V118.456H31.4879V123.163L35.1262 118.456H36.031V124.861H34.9915V120.134L31.3339 124.861Z" fill="#231F20"/>
<path d="M38.8209 124.861H37.9354V118.456H38.9749V123.163L42.6132 118.456H43.518V124.861H42.4784V120.134L38.8209 124.861ZM40.7267 118.07C40.2262 118.07 39.8219 117.935 39.5139 117.665C39.2059 117.395 39.0519 117.028 39.0326 116.565H39.8989C39.8989 116.797 39.9759 116.97 40.1107 117.105C40.2647 117.24 40.4572 117.318 40.6882 117.318C40.9384 117.318 41.1309 117.24 41.2849 117.105C41.4389 116.97 41.4967 116.777 41.5159 116.565H42.3822C42.3822 117.028 42.2089 117.395 41.9009 117.665C41.6122 117.935 41.2079 118.07 40.7267 118.07Z" fill="#231F20"/>
<path d="M48.618 124.977C47.617 124.977 46.7892 124.668 46.1155 124.051C45.461 123.414 45.1145 122.623 45.1145 121.658C45.1145 120.694 45.4417 119.903 46.1155 119.285C46.77 118.649 47.5978 118.34 48.618 118.34C49.2918 118.34 49.8885 118.475 50.4275 118.764V119.787C49.8885 119.459 49.2918 119.285 48.6373 119.285C47.9443 119.285 47.3667 119.517 46.8855 119.961C46.4235 120.404 46.1925 120.983 46.1925 121.658C46.1925 122.353 46.4235 122.912 46.8855 123.375C47.3475 123.819 47.9443 124.051 48.6565 124.051C49.4073 124.051 50.0425 123.858 50.543 123.472V124.494C50.004 124.803 49.3495 124.977 48.618 124.977Z" fill="#231F20"/>
<path d="M53.1214 124.861H52.0819V118.456H53.1214V121.08L55.8357 118.456H57.1639L54.1032 121.388L57.6645 124.861H56.2399L53.1214 121.793V124.861Z" fill="#231F20"/>
<path d="M63.8426 124.012C63.2074 124.649 62.3989 124.957 61.4171 124.957C60.4354 124.957 59.6268 124.649 58.9916 124.012C58.3563 123.356 58.0291 122.584 58.0291 121.639C58.0291 120.694 58.3563 119.922 58.9916 119.285C59.6268 118.649 60.4354 118.321 61.4171 118.321C62.3989 118.321 63.2074 118.649 63.8426 119.285C64.4779 119.922 64.8052 120.713 64.8052 121.639C64.8052 122.565 64.4779 123.375 63.8426 124.012ZM59.7616 123.356C60.2043 123.8 60.7626 124.031 61.4171 124.031C62.0716 124.031 62.6106 123.8 63.0726 123.356C63.5154 122.893 63.7464 122.334 63.7464 121.658C63.7464 120.983 63.5154 120.424 63.0726 119.961C62.6299 119.498 62.0716 119.266 61.4171 119.266C60.7626 119.266 60.2236 119.498 59.7616 119.961C59.3188 120.404 59.1071 120.964 59.1071 121.658C59.1071 122.353 59.3188 122.893 59.7616 123.356Z" fill="#231F20"/>
<path d="M67.2677 124.861H66.3822V118.456H67.4217V123.163L71.06 118.456H71.9648V124.861H70.9252V120.134L67.2677 124.861ZM69.1735 118.07C68.673 118.07 68.2687 117.935 67.9607 117.665C67.6527 117.395 67.4987 117.028 67.4794 116.565H68.3457C68.3457 116.797 68.4227 116.97 68.5575 117.105C68.7115 117.24 68.904 117.318 69.135 117.318C69.3852 117.318 69.5777 117.24 69.7317 117.105C69.8857 116.97 69.9435 116.777 69.9627 116.565H70.829C70.829 117.028 70.6557 117.395 70.3477 117.665C70.059 117.935 69.674 118.07 69.1735 118.07Z" fill="#231F20"/>
<path d="M80.1436 125.073H79.1042V124.359C78.0649 124.34 77.2565 124.051 76.6984 123.53C76.1402 122.99 75.8708 122.353 75.8708 121.601C75.8708 121.253 75.9285 120.906 76.0632 120.597C76.198 120.269 76.3904 119.98 76.6406 119.729C76.8909 119.478 77.2373 119.266 77.6607 119.093C78.0842 118.938 78.5653 118.842 79.1042 118.822V118.224H80.1436V118.822C80.6825 118.842 81.1637 118.919 81.5871 119.073C82.0105 119.228 82.357 119.44 82.6072 119.691C82.8574 119.941 83.0691 120.231 83.1846 120.559C83.3193 120.887 83.377 121.215 83.377 121.562C83.377 121.909 83.3193 122.257 83.1846 122.565C83.0498 122.893 82.8574 123.183 82.6072 123.433C82.357 123.684 82.0105 123.896 81.5871 124.051C81.1637 124.205 80.6825 124.302 80.1436 124.302V125.073ZM79.1042 123.472V119.729C78.3921 119.729 77.8532 119.922 77.4683 120.269C77.1026 120.617 76.9293 121.06 76.9293 121.601C76.9293 122.121 77.1026 122.584 77.4683 122.932C77.8339 123.298 78.3729 123.472 79.1042 123.472ZM80.1436 119.729V123.472C80.875 123.453 81.4139 123.279 81.7795 122.932C82.1452 122.584 82.3377 122.141 82.3377 121.601C82.3377 121.06 82.1452 120.636 81.7795 120.269C81.3946 119.922 80.8557 119.729 80.1436 119.729Z" fill="#231F20"/>
<path d="M89.7487 124.861H84.9169V118.456H89.6332V119.382H85.9564V120.983H88.9594V121.909H85.9564V123.935H89.7487V124.861Z" fill="#231F20"/>
<path d="M91.7688 126.231H90.787V123.935H91.4223C91.7688 123.433 92.019 122.835 92.1923 122.141C92.3655 121.446 92.4425 120.501 92.4425 119.324V118.437H96.8316V123.916H97.7941V126.211H96.8123V124.842H91.788V126.231H91.7688ZM92.558 123.935H95.7728V119.382H93.4436C93.4436 120.443 93.3858 121.35 93.251 122.064C93.1163 122.797 92.8853 123.414 92.558 123.935Z" fill="#231F20"/>
<path d="M103.972 124.861H99.1403V118.456H103.857V119.382H100.18V120.983H103.183V121.909H100.18V123.935H103.972V124.861Z" fill="#231F20"/>
<path d="M106.416 124.861H105.376V118.456H108.225C108.918 118.456 109.457 118.629 109.842 118.977C110.246 119.305 110.439 119.748 110.439 120.308C110.439 120.867 110.246 121.33 109.842 121.678C109.457 122.025 108.918 122.218 108.225 122.218H106.416V124.861ZM106.416 119.382V121.292H108.148C108.533 121.292 108.841 121.215 109.072 121.041C109.284 120.867 109.399 120.636 109.399 120.327C109.399 120.019 109.284 119.787 109.072 119.613C108.86 119.44 108.552 119.363 108.148 119.363H106.416V119.382Z" fill="#231F20"/>
<path d="M111.805 124.861H110.688L113.595 118.417H114.596L117.503 124.861H116.386L115.674 123.26H112.536L111.805 124.861ZM114.096 119.691L112.883 122.372H115.308L114.096 119.691Z" fill="#231F20"/>
<path d="M125.105 126.231H124.124V124.861H118.81V118.456H119.85V123.935H123.103V118.456H124.143V123.935H125.105V126.231Z" fill="#231F20"/>
<path d="M127.337 124.861H126.451V118.456H127.491V123.163L131.129 118.456H132.034V124.861H130.994V120.134L127.337 124.861Z" fill="#231F20"/>
<path d="M134.824 124.861H133.938V118.456H134.978V123.163L138.616 118.456H139.521V124.861H138.481V120.134L134.824 124.861Z" fill="#231F20"/>
</svg>
