<svg width="250" height="70" viewBox="0 0 250 70" fill="none" xmlns="http://www.w3.org/2000/svg">
<g clip-path="url(#clip0_8_29)">
<path d="M77.551 25.9583H76.2391V17.9375H77.551L80.2478 21.5833L82.9446 17.9375H84.2566V25.9583H82.9446V19.8333L80.6123 22.8958H79.8105L77.4781 19.8333L77.551 25.9583Z" fill="#58595B"/>
<path d="M87.5365 25.9583H86.3703V17.9375H87.6823V23.8437L92.2741 17.9375H93.4403V25.9583H92.1283V20.0521L87.5365 25.9583Z" fill="#58595B"/>
<path d="M96.793 25.9583H95.4811V17.9375H96.793V21.1458H101.166V17.9375H102.478V25.9583H101.166V22.2396H96.793V25.9583Z" fill="#58595B"/>
<path d="M105.685 25.9583H104.592V17.9375H105.904V23.8437L110.496 17.9375H111.662V25.9583H110.35V20.0521L105.685 25.9583Z" fill="#58595B"/>
<path d="M117.711 26.1042C116.472 26.1042 115.379 25.7396 114.577 24.9375C113.703 24.1354 113.338 23.1146 113.338 21.9479C113.338 20.7084 113.776 19.7604 114.577 18.9584C115.452 18.1563 116.472 17.7917 117.711 17.7917C118.586 17.7917 119.315 18.0104 119.971 18.3021V19.5417C119.315 19.1042 118.586 18.8854 117.711 18.8854C116.837 18.8854 116.108 19.1771 115.525 19.7604C114.942 20.3438 114.65 21 114.65 21.875C114.65 22.75 114.942 23.4792 115.525 23.9896C116.108 24.5729 116.837 24.8646 117.784 24.8646C118.732 24.8646 119.534 24.6459 120.19 24.1354V25.375C119.388 25.8854 118.586 26.1042 117.711 26.1042Z" fill="#58595B"/>
<path d="M121.21 19.1042V17.9375H128.061V19.1042H125.292V26.0312H123.98V19.1042H121.21Z" fill="#58595B"/>
<path d="M135.568 25.9583H129.446V17.9375H135.423V19.1042H130.758V21.1458H134.548V22.3125H130.758V24.7917H135.568V25.9583Z" fill="#58595B"/>
<path d="M138.265 25.9583H137.026V17.9375H140.671C141.545 17.9375 142.274 18.1562 142.711 18.5937C143.222 19.0312 143.513 19.6146 143.513 20.2708C143.513 20.9271 143.222 21.5104 142.711 22.0208C142.201 22.4583 141.545 22.6771 140.671 22.6771H138.338V25.9583H138.265ZM138.265 19.1042V21.5104H140.452C140.962 21.5104 141.327 21.3646 141.618 21.2187C141.91 21 142.055 20.7083 142.055 20.3437C142.055 19.9792 141.91 19.6875 141.618 19.4688C141.327 19.25 140.962 19.1771 140.452 19.1771L138.265 19.1042Z" fill="#58595B"/>
<path d="M148.98 26.1042C147.741 26.1042 146.647 25.7396 145.846 24.9375C144.971 24.1354 144.606 23.1146 144.606 21.9479C144.606 20.7084 145.044 19.7604 145.846 18.9584C146.72 18.1563 147.741 17.7917 148.98 17.7917C149.854 17.7917 150.583 18.0104 151.239 18.3021V19.5417C150.583 19.1042 149.854 18.8854 148.98 18.8854C148.105 18.8854 147.376 19.1771 146.793 19.7604C146.21 20.3438 145.918 21 145.918 21.875C145.918 22.75 146.21 23.4792 146.793 23.9896C147.376 24.5729 148.105 24.8646 149.053 24.8646C150 24.8646 150.802 24.6459 151.458 24.1354V25.375C150.729 25.8854 149.927 26.1042 148.98 26.1042Z" fill="#58595B"/>
<path d="M152.478 19.1042V17.9375H159.329V19.1042H156.56V26.0312H155.248V19.1042H152.478Z" fill="#58595B"/>
<path d="M164.796 25.9583H160.714V17.9375H164.504C165.306 17.9375 165.816 18.1562 166.327 18.4479C166.764 18.8125 166.983 19.3229 166.983 19.9062C166.983 20.2708 166.837 20.6354 166.691 20.9271C166.472 21.2187 166.254 21.4375 165.889 21.5104C166.399 21.5833 166.837 21.875 167.128 22.2396C167.42 22.6042 167.638 23.1146 167.638 23.6979C167.638 24.3542 167.347 24.9375 166.837 25.375C166.399 25.7396 165.743 25.9583 164.796 25.9583ZM162.026 19.1042V21.1458H164.286C164.723 21.1458 165.087 21.0729 165.306 20.8542C165.525 20.6354 165.671 20.4167 165.671 20.0521C165.671 19.6875 165.525 19.4687 165.306 19.25C165.087 19.0312 164.723 18.9583 164.286 18.9583H162.026V19.1042ZM162.026 22.2396V24.7917H164.577C165.087 24.7917 165.525 24.6458 165.743 24.4271C166.035 24.2083 166.181 23.9167 166.181 23.4792C166.181 23.1146 166.035 22.8229 165.743 22.5312C165.452 22.3125 165.087 22.2396 164.577 22.2396H162.026Z" fill="#58595B"/>
<path d="M176.239 24.9375C175.437 25.7396 174.417 26.1042 173.178 26.1042C171.939 26.1042 170.918 25.7396 170.117 24.9375C169.315 24.1354 168.95 23.1146 168.95 21.9479C168.95 20.7813 169.315 19.7604 170.117 19.0313C170.918 18.2292 171.939 17.7917 173.178 17.7917C174.417 17.7917 175.437 18.2292 176.239 19.0313C177.041 19.8334 177.478 20.8542 177.478 21.9479C177.478 23.0417 177.041 24.1354 176.239 24.9375ZM171.137 24.0625C171.72 24.6459 172.376 24.9375 173.178 24.9375C173.98 24.9375 174.708 24.6459 175.219 24.0625C175.802 23.4792 176.093 22.75 176.093 21.9479C176.093 21.0729 175.802 20.3438 175.219 19.8334C174.636 19.25 173.98 18.9584 173.178 18.9584C172.376 18.9584 171.647 19.25 171.137 19.8334C170.554 20.4167 170.262 21.0729 170.262 21.9479C170.262 22.8229 170.554 23.4792 171.137 24.0625Z" fill="#58595B"/>
<path d="M183.673 25.9583H182.362V17.9375H183.673V21.1458H188.047V17.9375H189.359V25.9583H188.047V22.2396H183.673V25.9583Z" fill="#58595B"/>
<path d="M192.055 25.9584H190.671L194.315 17.8646H195.554L199.198 25.9584H197.813L196.866 23.9896H192.93L192.055 25.9584ZM194.971 19.4688L193.44 22.823H196.501L194.971 19.4688Z" fill="#58595B"/>
<path d="M201.749 26.1042C201.239 26.1042 200.802 26.0313 200.583 25.8855V24.7188C200.875 24.8646 201.166 24.9375 201.531 24.9375C201.895 24.9375 202.114 24.8646 202.405 24.6459C202.624 24.5 202.843 24.1355 203.134 23.5521L199.854 17.8646H201.385L203.863 22.2396L205.904 17.8646H207.289L204.227 24.2084C203.571 25.5209 202.77 26.1042 201.749 26.1042Z" fill="#58595B"/>
<path d="M209.84 25.9583H208.528V17.9375H209.84V21.2187L213.265 17.9375H214.942L211.079 21.5833L215.598 25.9583H213.848L209.913 22.0937V25.9583H209.84Z" fill="#58595B"/>
<path d="M217.93 25.9583H216.837V17.9375H218.149V23.8437L222.741 17.9375H223.907V25.9583H222.595V20.0521L217.93 25.9583Z" fill="#58595B"/>
<path d="M77.4052 39.8855H76.312V31.8646H77.6239V37.7709L82.2157 31.8646H83.3819V39.8855H82.07V33.9792L77.4052 39.8855Z" fill="#58595B"/>
<path d="M92.6385 39.8855H88.5569V31.8646H92.347C93.1487 31.8646 93.6589 32.0834 94.1691 32.375C94.6064 32.7396 94.8251 33.25 94.8251 33.8334C94.8251 34.198 94.6793 34.5625 94.5336 34.8542C94.3878 35.1459 94.0963 35.3646 93.7318 35.4375C94.242 35.5105 94.6793 35.8021 94.9709 36.1667C95.2624 36.5313 95.4811 37.0417 95.4811 37.625C95.4811 38.2813 95.1895 38.8646 94.6793 39.3021C94.1691 39.6667 93.5132 39.8855 92.6385 39.8855ZM89.8688 32.9584V35H92.1283C92.5656 35 92.9301 34.9271 93.1487 34.7084C93.3674 34.4896 93.5132 34.2709 93.5132 33.9063C93.5132 33.5417 93.3674 33.323 93.1487 33.1042C92.9301 32.8855 92.5656 32.8125 92.1283 32.8125H89.8688V32.9584ZM89.8688 36.1667V38.7188H92.4199C92.9301 38.7188 93.3674 38.573 93.586 38.3542C93.8776 38.1355 94.0234 37.8438 94.0234 37.4063C94.0234 37.0417 93.8776 36.75 93.586 36.4584C93.2945 36.2396 92.9301 36.1667 92.4199 36.1667H89.8688Z" fill="#58595B"/>
<path d="M100.292 39.8855H97.0845V31.8646H98.3965V34.6355H100.292C101.239 34.6355 102.041 34.8542 102.624 35.3646C103.207 35.875 103.499 36.4584 103.499 37.2605C103.499 38.0625 103.207 38.6459 102.624 39.1563C101.968 39.6667 101.239 39.8855 100.292 39.8855ZM98.3965 35.8021V38.7188H100.219C100.802 38.7188 101.239 38.573 101.603 38.3542C101.968 38.1355 102.114 37.7709 102.114 37.2605C102.114 36.75 101.968 36.3855 101.603 36.1667C101.239 35.948 100.802 35.8021 100.219 35.8021H98.3965ZM105.831 39.8855H104.519V31.8646H105.831V39.8855Z" fill="#58595B"/>
<path d="M111.881 40.0313C110.641 40.0313 109.548 39.6667 108.746 38.8646C107.872 38.0625 107.507 37.0417 107.507 35.875C107.507 34.6354 107.945 33.6875 108.746 32.8854C109.621 32.0833 110.641 31.7188 111.881 31.7188C112.755 31.7188 113.484 31.9375 114.14 32.2292V33.4688C113.484 33.0313 112.755 32.8125 111.881 32.8125C111.006 32.8125 110.277 33.1042 109.694 33.6875C109.111 34.2708 108.819 34.9271 108.819 35.8021C108.819 36.6771 109.111 37.4063 109.694 37.9167C110.277 38.5 111.006 38.7917 111.953 38.7917C112.901 38.7917 113.703 38.5729 114.359 38.0625V39.3021C113.63 39.8125 112.828 40.0313 111.881 40.0313Z" fill="#58595B"/>
<path d="M126.166 39.8855H115.962V31.8646H117.274V38.7917H120.408V31.8646H121.72V38.7917H124.854V31.8646H126.166V39.8855Z" fill="#58595B"/>
<path d="M134.257 39.8855H128.134V31.8646H134.111V33.0313H129.446V35H133.236V36.1667H129.446V38.7188H134.257V39.8855Z" fill="#58595B"/>
<path d="M137.026 39.8855H135.714V31.8646H141.618V33.0313H137.026V39.8855Z" fill="#58595B"/>
<path d="M149.708 38.8646C148.907 39.6667 147.886 40.0313 146.647 40.0313C145.408 40.0313 144.388 39.6667 143.586 38.8646C142.784 38.0625 142.42 37.0417 142.42 35.875C142.42 34.7083 142.784 33.6875 143.586 32.9583C144.388 32.1563 145.408 31.7188 146.647 31.7188C147.886 31.7188 148.907 32.1563 149.708 32.9583C150.51 33.7604 150.948 34.7813 150.948 35.875C150.948 36.9688 150.51 38.0625 149.708 38.8646ZM144.534 37.9896C145.117 38.5729 145.773 38.8646 146.574 38.8646C147.376 38.8646 148.105 38.5729 148.615 37.9896C149.198 37.4063 149.49 36.6771 149.49 35.875C149.49 35 149.198 34.2708 148.615 33.7604C148.032 33.1771 147.376 32.8854 146.574 32.8854C145.773 32.8854 145.044 33.1771 144.534 33.7604C143.95 34.3438 143.659 35 143.659 35.875C143.732 36.75 143.95 37.4063 144.534 37.9896Z" fill="#58595B"/>
<path d="M162.828 38.8646C162.026 39.6667 161.006 40.0313 159.767 40.0313C158.528 40.0313 157.507 39.6667 156.706 38.8646C155.904 38.0625 155.539 37.0417 155.539 35.875C155.539 34.7083 155.904 33.6875 156.706 32.9583C157.507 32.1563 158.528 31.7188 159.767 31.7188C161.006 31.7188 162.026 32.1563 162.828 32.9583C163.63 33.7604 164.067 34.7813 164.067 35.875C164.067 36.9688 163.63 38.0625 162.828 38.8646ZM157.653 37.9896C158.236 38.5729 158.892 38.8646 159.694 38.8646C160.496 38.8646 161.225 38.5729 161.735 37.9896C162.318 37.4063 162.609 36.6771 162.609 35.875C162.609 35 162.318 34.2708 161.735 33.7604C161.152 33.1771 160.496 32.8854 159.694 32.8854C158.892 32.8854 158.163 33.1771 157.653 33.7604C157.07 34.3438 156.778 35 156.778 35.875C156.851 36.75 157.143 37.4063 157.653 37.9896Z" fill="#58595B"/>
<path d="M169.242 39.8855H165.743V31.8646H171.647V33.0313H167.055V34.7084H169.315C170.262 34.7084 170.991 34.9271 171.574 35.4375C172.085 35.875 172.449 36.5313 172.449 37.3334C172.449 38.1355 172.157 38.7188 171.574 39.2292C170.991 39.6667 170.19 39.8855 169.242 39.8855ZM166.983 35.875V38.7188H169.096C169.679 38.7188 170.117 38.573 170.481 38.3542C170.773 38.0625 170.991 37.7709 170.991 37.3334C170.991 36.8959 170.846 36.5313 170.481 36.2396C170.117 35.948 169.679 35.875 169.096 35.875H166.983Z" fill="#58595B"/>
<path d="M175.146 39.8855H173.834V31.8646H177.405C178.28 31.8646 179.009 32.0834 179.446 32.5209C179.956 32.9584 180.248 33.5417 180.248 34.198C180.248 34.8542 179.956 35.4375 179.446 35.948C178.936 36.3855 178.28 36.6042 177.405 36.6042H175.073V39.8855H175.146ZM175.146 32.9584V35.3646H177.332C177.843 35.3646 178.207 35.2188 178.499 35.073C178.79 34.9271 178.936 34.5625 178.936 34.198C178.936 33.8334 178.79 33.5417 178.499 33.323C178.207 33.1042 177.843 33.0313 177.332 33.0313L175.146 32.9584Z" fill="#58595B"/>
<path d="M181.487 39.8854H180.102L183.746 31.7917H184.985L188.63 39.8854H187.318L186.37 37.9167H182.434L181.487 39.8854ZM184.402 33.3229L182.872 36.6771H185.933L184.402 33.3229Z" fill="#58595B"/>
<path d="M192.638 40.0313C191.472 40.0313 190.525 39.8125 189.723 39.375V38.1355C190.087 38.3542 190.525 38.573 191.035 38.6459C191.545 38.7917 191.983 38.8646 192.493 38.8646C193.149 38.8646 193.732 38.7188 194.169 38.5C194.606 38.2084 194.752 37.9167 194.752 37.4792C194.752 37.1146 194.534 36.823 194.169 36.5313C193.805 36.3125 193.294 36.1667 192.638 36.1667H191.691V35H192.857C193.367 35 193.805 34.8542 194.023 34.7084C194.315 34.4896 194.461 34.2709 194.461 33.9063C194.461 33.5417 194.315 33.323 193.95 33.1042C193.659 32.8855 193.149 32.8125 192.638 32.8125C191.764 32.8125 190.889 33.0313 190.087 33.3959V32.2292C190.889 31.7917 191.764 31.6459 192.711 31.6459C193.659 31.6459 194.388 31.8646 194.898 32.2292C195.481 32.5938 195.773 33.1771 195.773 33.8334C195.773 34.2709 195.627 34.6355 195.335 34.9271C195.044 35.2188 194.752 35.4375 194.461 35.5105C194.898 35.6563 195.262 35.875 195.627 36.2396C195.991 36.6042 196.137 37.0417 196.137 37.5521C196.137 38.2813 195.845 38.8646 195.19 39.375C194.461 39.8125 193.659 40.0313 192.638 40.0313Z" fill="#58595B"/>
<path d="M204.665 38.8646C203.863 39.6667 202.843 40.0313 201.603 40.0313C200.364 40.0313 199.344 39.6667 198.542 38.8646C197.741 38.0625 197.376 37.0417 197.376 35.875C197.376 34.7083 197.741 33.6875 198.542 32.9583C199.344 32.1563 200.364 31.7188 201.603 31.7188C202.843 31.7188 203.863 32.1563 204.665 32.9583C205.466 33.7604 205.904 34.7813 205.904 35.875C205.904 36.9688 205.466 38.0625 204.665 38.8646ZM199.49 37.9896C200.073 38.5729 200.729 38.8646 201.531 38.8646C202.332 38.8646 203.061 38.5729 203.571 37.9896C204.154 37.4063 204.446 36.6771 204.446 35.875C204.446 35 204.154 34.2708 203.571 33.7604C202.988 33.25 202.332 32.8854 201.531 32.8854C200.729 32.8854 200 33.1771 199.49 33.7604C198.907 34.3438 198.615 35 198.615 35.875C198.688 36.75 198.98 37.4063 199.49 37.9896Z" fill="#58595B"/>
<path d="M211.662 39.8855H207.58V31.8646H211.37C212.172 31.8646 212.682 32.0834 213.192 32.375C213.63 32.7396 213.848 33.25 213.848 33.8334C213.848 34.198 213.703 34.5625 213.557 34.8542C213.338 35.1459 213.12 35.3646 212.755 35.4375C213.265 35.5105 213.703 35.8021 213.994 36.1667C214.286 36.5313 214.504 37.0417 214.504 37.625C214.504 38.2813 214.213 38.8646 213.703 39.3021C213.192 39.6667 212.464 39.8855 211.662 39.8855ZM208.819 32.9584V35H211.079C211.516 35 211.88 34.9271 212.099 34.7084C212.318 34.4896 212.464 34.2709 212.464 33.9063C212.464 33.5417 212.318 33.323 212.099 33.1042C211.88 32.8855 211.516 32.8125 211.079 32.8125H208.819V32.9584ZM208.819 36.1667V38.7188H211.37C211.88 38.7188 212.318 38.573 212.536 38.3542C212.828 38.1355 212.974 37.8438 212.974 37.4063C212.974 37.0417 212.828 36.75 212.536 36.4584C212.245 36.2396 211.88 36.1667 211.37 36.1667H208.819Z" fill="#58595B"/>
<path d="M216.618 39.8854H215.233L218.878 31.7917H220.117L223.761 39.8854H222.376L221.429 37.9167H217.493L216.618 39.8854ZM219.534 33.3229L218.003 36.6771H221.064L219.534 33.3229Z" fill="#58595B"/>
<path d="M226.458 39.8854H225.146V31.8646H226.458V35H230.831V31.7917H232.143V39.8125H230.831V36.0938H226.458V39.8854Z" fill="#58595B"/>
<path d="M235.277 39.8855H234.184V31.8646H235.496V37.7709L240.087 31.8646H241.254V39.8855H239.942V33.9792L235.277 39.8855Z" fill="#58595B"/>
<path d="M244.169 39.8854H242.566L245.262 36.3854C244.679 36.2396 244.242 36.0208 243.878 35.5833C243.513 35.2188 243.367 34.7083 243.367 34.1979C243.367 33.5417 243.586 32.9583 244.096 32.5208C244.606 32.0833 245.262 31.9375 246.137 31.9375H249.927V39.9583H248.615V36.4583H246.647L244.169 39.8854ZM246.21 35.3646H248.688V32.9583H246.21C245.773 32.9583 245.335 33.1042 245.117 33.25C244.825 33.4688 244.752 33.7604 244.752 34.125C244.752 34.4896 244.898 34.7813 245.117 35C245.408 35.2188 245.773 35.3646 246.21 35.3646Z" fill="#58595B"/>
<path d="M77.551 53.8125H76.2391V45.7917H79.8834C80.758 45.7917 81.4869 46.0104 81.9242 46.4479C82.4344 46.8854 82.726 47.4688 82.726 48.125C82.726 48.7813 82.4344 49.3646 81.9242 49.875C81.414 50.3125 80.758 50.5313 79.8834 50.5313H77.551V53.8125ZM77.551 46.8854V49.2917H79.7376C80.2478 49.2917 80.6123 49.1459 80.9038 49C81.1953 48.7813 81.3411 48.4896 81.3411 48.125C81.3411 47.7604 81.1953 47.4688 80.9038 47.25C80.6123 47.0313 80.2478 46.9584 79.7376 46.9584L77.551 46.8854Z" fill="#58595B"/>
<path d="M91.1808 52.7188C90.379 53.5209 89.3586 53.8854 88.1196 53.8854C86.8805 53.8854 85.8601 53.5209 85.0583 52.7188C84.2566 51.9167 83.8922 50.8958 83.8922 49.7292C83.8922 48.5625 84.2566 47.5417 85.0583 46.8125C85.8601 46.0104 86.8805 45.5729 88.1196 45.5729C89.3586 45.5729 90.379 46.0104 91.1808 46.8125C91.9825 47.6146 92.4198 48.6354 92.4198 49.7292C92.4198 50.8958 91.9825 51.9167 91.1808 52.7188ZM86.0787 51.8438C86.6618 52.4271 87.3178 52.7188 88.1196 52.7188C88.9213 52.7188 89.6502 52.4271 90.1604 51.8438C90.7435 51.2604 91.035 50.5313 91.035 49.7292C91.035 48.9271 90.7435 48.125 90.1604 47.6146C89.5773 47.0313 88.9213 46.7396 88.1196 46.7396C87.3178 46.7396 86.5889 47.0313 86.0787 47.6146C85.4956 48.1979 85.2041 48.8542 85.2041 49.7292C85.2041 50.6042 85.4956 51.3333 86.0787 51.8438Z" fill="#58595B"/>
<path d="M98.2507 53.9584C97.0117 53.9584 95.9184 53.5938 95.1166 52.7917C94.242 51.9896 93.8776 50.9688 93.8776 49.8021C93.8776 48.5625 94.3149 47.6146 95.1166 46.8125C95.9913 46.0105 97.0117 45.6459 98.2507 45.6459C99.1254 45.6459 99.8542 45.8646 100.51 46.1563V47.3959C99.8542 46.9584 99.1254 46.7396 98.2507 46.7396C97.3761 46.7396 96.6472 47.0313 96.0642 47.6146C95.4811 48.198 95.1895 48.8542 95.1895 49.7292C95.1895 50.6042 95.4811 51.3334 96.0642 51.8438C96.6472 52.4271 97.3761 52.7188 98.3236 52.7188C99.2711 52.7188 100.073 52.5 100.729 51.9896V53.2292C100 53.7396 99.1983 53.9584 98.2507 53.9584Z" fill="#58595B"/>
<path d="M106.195 53.9584C104.956 53.9584 103.863 53.5938 103.061 52.7917C102.187 51.9896 101.822 50.9688 101.822 49.8021C101.822 48.5625 102.259 47.6146 103.061 46.8125C103.936 46.0105 104.956 45.6459 106.195 45.6459C107.07 45.6459 107.799 45.8646 108.455 46.1563V47.3959C107.799 46.9584 107.07 46.7396 106.195 46.7396C105.321 46.7396 104.592 47.0313 104.009 47.6146C103.426 48.198 103.134 48.8542 103.134 49.7292C103.134 50.6042 103.426 51.3334 104.009 51.8438C104.592 52.4271 105.321 52.7188 106.268 52.7188C107.216 52.7188 108.017 52.5 108.673 51.9896V53.2292C107.872 53.7396 107.07 53.9584 106.195 53.9584Z" fill="#58595B"/>
<path d="M111.297 53.8125H110.204V45.7917H111.516V51.6979L116.108 45.7917H117.274V53.8125H115.962V47.9063L111.297 53.8125Z" fill="#58595B"/>
<path d="M120.408 53.8125H119.315V45.7917H120.627V51.6979L125.219 45.7917H126.385V53.8125H125.073V47.9062L120.408 53.8125ZM122.813 45.2083C122.23 45.2083 121.647 44.9896 121.283 44.6979C120.918 44.3333 120.7 43.8958 120.7 43.3125H121.793C121.793 43.6042 121.866 43.8229 122.085 43.9687C122.303 44.1875 122.522 44.2604 122.813 44.2604C123.105 44.2604 123.397 44.1875 123.542 43.9687C123.761 43.75 123.834 43.5312 123.834 43.3125H124.927C124.927 43.8958 124.708 44.3333 124.344 44.6979C123.98 45.0625 123.469 45.2083 122.813 45.2083Z" fill="#58595B"/>
<path d="M132.434 53.9584C131.195 53.9584 130.102 53.5938 129.3 52.7917C128.426 51.9896 128.061 50.9688 128.061 49.8021C128.061 48.5625 128.499 47.6146 129.3 46.8125C130.175 46.0105 131.195 45.6459 132.434 45.6459C133.309 45.6459 134.038 45.8646 134.694 46.1563V47.3959C134.038 46.9584 133.309 46.7396 132.434 46.7396C131.56 46.7396 130.831 47.0313 130.248 47.6146C129.665 48.198 129.373 48.8542 129.373 49.7292C129.373 50.6042 129.665 51.3334 130.248 51.8438C130.831 52.4271 131.56 52.7188 132.507 52.7188C133.455 52.7188 134.257 52.5 134.913 51.9896V53.2292C134.184 53.7396 133.382 53.9584 132.434 53.9584Z" fill="#58595B"/>
<path d="M137.828 53.8125H136.516V45.7917H137.828V49.0729L141.254 45.7917H142.93L139.067 49.4375L143.586 53.8125H141.764L137.828 49.9479V53.8125Z" fill="#58595B"/>
<path d="M150.948 52.7188C150.146 53.5209 149.125 53.8854 147.886 53.8854C146.647 53.8854 145.627 53.5209 144.825 52.7188C144.023 51.9167 143.659 50.8958 143.659 49.7292C143.659 48.5625 144.023 47.5417 144.825 46.8125C145.627 46.0104 146.647 45.5729 147.886 45.5729C149.125 45.5729 150.146 46.0104 150.948 46.8125C151.749 47.6146 152.187 48.6354 152.187 49.7292C152.114 50.8958 151.749 51.9167 150.948 52.7188ZM145.773 51.8438C146.356 52.4271 147.012 52.7188 147.813 52.7188C148.615 52.7188 149.344 52.4271 149.854 51.8438C150.437 51.2604 150.729 50.5313 150.729 49.7292C150.729 48.9271 150.437 48.125 149.854 47.6146C149.271 47.0313 148.615 46.7396 147.813 46.7396C147.012 46.7396 146.283 47.0313 145.773 47.6146C145.189 48.1979 144.898 48.8542 144.898 49.7292C144.971 50.6042 145.189 51.3333 145.773 51.8438Z" fill="#58595B"/>
<path d="M154.956 53.8125H153.79V45.7917H155.102V51.6979L159.694 45.7917H160.86V53.8125H159.548V47.9062L154.956 53.8125ZM157.289 45.2083C156.706 45.2083 156.122 44.9896 155.758 44.6979C155.394 44.3333 155.175 43.8958 155.175 43.3125H156.268C156.268 43.6042 156.341 43.8229 156.56 43.9687C156.778 44.1875 156.997 44.2604 157.289 44.2604C157.58 44.2604 157.872 44.1875 158.018 43.9687C158.236 43.75 158.309 43.5312 158.309 43.3125H159.402C159.402 43.8958 159.184 44.3333 158.819 44.6979C158.382 45.0625 157.945 45.2083 157.289 45.2083Z" fill="#58595B"/>
<path d="M171.137 54.0313H169.825V53.1563C168.513 53.0834 167.493 52.7917 166.764 52.1355C166.108 51.4792 165.743 50.6771 165.743 49.7292C165.743 49.2917 165.816 48.8542 166.035 48.4896C166.181 48.0521 166.472 47.6875 166.764 47.3959C167.055 47.0313 167.566 46.8125 168.076 46.5938C168.586 46.375 169.242 46.3021 169.898 46.2292V45.4271H171.21V46.2292C171.866 46.2292 172.449 46.375 173.032 46.5209C173.542 46.7396 173.98 46.9584 174.344 47.323C174.708 47.6875 174.927 47.9792 175.073 48.4167C175.219 48.8542 175.364 49.2917 175.364 49.6563C175.364 50.0209 175.292 50.5313 175.073 50.8959C174.854 51.2605 174.636 51.698 174.344 51.9896C173.98 52.3542 173.542 52.573 173.032 52.7917C172.522 53.0105 171.866 53.0834 171.21 53.0834L171.137 54.0313ZM169.825 52.0625V47.323C168.95 47.323 168.222 47.5417 167.784 47.9792C167.347 48.4167 167.128 49 167.128 49.6563C167.128 50.3125 167.347 50.8959 167.784 51.3334C168.222 51.7709 168.95 51.9896 169.825 52.0625ZM171.137 47.323V52.0625C172.085 52.0625 172.741 51.8438 173.178 51.4063C173.615 50.9688 173.834 50.3855 173.834 49.7292C173.834 49.073 173.615 48.4896 173.178 48.0521C172.741 47.5417 172.012 47.323 171.137 47.323Z" fill="#58595B"/>
<path d="M182.872 53.8125H176.749V45.7917H182.726V46.9584H178.061V49H181.851V50.1667H178.061V52.7188H182.872V53.8125Z" fill="#58595B"/>
<path d="M185.204 55.4896H183.965V52.6459H184.767C185.204 51.9896 185.569 51.2604 185.714 50.3854C185.933 49.5104 186.006 48.3438 186.006 46.8854V45.7917H191.545V52.7188H192.711V55.5625H191.472V53.8125H185.131L185.204 55.4896ZM186.152 52.5729H190.233V46.8125H187.245C187.245 48.125 187.172 49.2917 186.953 50.1667C186.88 51.1875 186.589 51.9896 186.152 52.5729Z" fill="#58595B"/>
<path d="M200.219 53.8125H194.096V45.7917H200.073V46.9584H195.408V49H199.198V50.1667H195.408V52.7188H200.219V53.8125Z" fill="#58595B"/>
<path d="M202.988 53.8125H201.676V45.7917H205.321C206.195 45.7917 206.924 46.0104 207.362 46.4479C207.872 46.8854 208.163 47.4688 208.163 48.125C208.163 48.7813 207.872 49.3646 207.362 49.875C206.851 50.3125 206.195 50.5313 205.321 50.5313H202.988V53.8125ZM202.988 46.8854V49.2917H205.175C205.685 49.2917 206.05 49.1459 206.341 49C206.633 48.7813 206.778 48.4896 206.778 48.125C206.778 47.7604 206.633 47.4688 206.341 47.25C206.05 47.0313 205.685 46.9584 205.175 46.9584L202.988 46.8854Z" fill="#58595B"/>
<path d="M209.329 53.8125H207.945L211.589 45.7188H212.828L216.472 53.8125H215.087L214.14 51.8438H210.204L209.329 53.8125ZM212.245 47.25L210.714 50.6042H213.776L212.245 47.25Z" fill="#58595B"/>
<path d="M225.802 55.4896H224.563V53.7396H217.857V45.7188H219.169V52.6458H223.251V45.7188H224.563V52.6458H225.729V55.4896H225.802Z" fill="#58595B"/>
<path d="M228.28 53.8125H227.187V45.7917H228.499V51.6979L233.09 45.7917H234.257V53.8125H232.945V47.9063L228.28 53.8125Z" fill="#58595B"/>
<path d="M237.391 53.8125H236.297V45.7917H237.609V51.6979L242.201 45.7917H243.367V53.8125H242.055V47.9063L237.391 53.8125Z" fill="#58595B"/>
<path d="M49.1982 52.2083C48.9796 52.2083 48.8338 52.3541 48.8338 52.5729C48.8338 52.7916 48.9796 52.9375 49.1982 52.9375C49.4169 52.9375 49.5627 52.7916 49.5627 52.5729C49.5627 52.4271 49.4169 52.2083 49.1982 52.2083Z" fill="#13377D"/>
<path d="M50.4373 55.7813C50.4373 56 50.5831 56.1459 50.8017 56.1459C51.0204 56.1459 51.1662 56 51.1662 55.7813C51.1662 55.5625 51.0204 55.4167 50.8017 55.4167C50.5831 55.4167 50.4373 55.5625 50.4373 55.7813Z" fill="#13377D"/>
<path d="M49.1982 55.4167C48.9796 55.4167 48.8338 55.5625 48.8338 55.7813C48.8338 56 48.9796 56.1459 49.1982 56.1459C49.4169 56.1459 49.5627 56 49.5627 55.7813C49.5627 55.5625 49.4169 55.4167 49.1982 55.4167Z" fill="#13377D"/>
<path d="M52.0408 55.7813C52.0408 56 52.1866 56.1459 52.4053 56.1459C52.6239 56.1459 52.7697 56 52.7697 55.7813C52.7697 55.5625 52.6239 55.4167 52.4053 55.4167C52.1866 55.4167 52.0408 55.5625 52.0408 55.7813Z" fill="#13377D"/>
<path d="M48.688 48.6354L48.7609 49.5834L47.9592 49.5104V50.5313L48.7609 50.3854L48.688 51.3334H49.7084L49.6355 50.3854L50.4373 50.5313V49.5104L49.6355 49.5834L49.7084 48.6354H48.688Z" fill="#13377D"/>
<path d="M49.8542 51.9167V55.1979H52.9884C52.7697 53.5209 51.4577 52.2084 49.8542 51.9167Z" fill="#13377D"/>
<path d="M49.1982 53.8125C48.9796 53.8125 48.8338 53.9583 48.8338 54.1771C48.8338 54.3958 48.9796 54.5417 49.1982 54.5417C49.4169 54.5417 49.5627 54.3958 49.5627 54.1771C49.5627 53.9583 49.4169 53.8125 49.1982 53.8125Z" fill="#13377D"/>
<path d="M50.5102 57.9688C50.4373 57.9688 50.1458 58.7708 50.4373 59.3542C50.5831 59.6458 50.8747 59.7917 51.1662 59.7187C51.4577 59.6458 51.5306 59.3542 51.5306 59.2083C51.4577 58.5521 50.9475 57.9688 50.5102 57.9688Z" fill="#13377D"/>
<path d="M47.8863 57.9688C47.449 57.9688 46.9388 58.5521 46.9388 59.2083C46.9388 59.4271 47.0117 59.6458 47.3032 59.7187C47.5948 59.7917 47.8863 59.6458 48.0321 59.3542C48.1779 58.7708 47.9592 57.9688 47.8863 57.9688Z" fill="#13377D"/>
<path d="M49.1983 57.5312C48.9067 57.5312 48.0321 59.2083 48.6881 60.0104C48.8338 60.1562 48.9796 60.2292 49.1983 60.2292C49.4169 60.2292 49.6356 60.1562 49.7085 60.0104C50.2915 59.2083 49.4898 57.5312 49.1983 57.5312Z" fill="#13377D"/>
<path d="M45.3352 55.7812C45.3352 55.4167 45.4081 55.125 45.4081 55.125H48.5422V54.8333V52.5V51.8437C47.0116 52.1354 45.7726 53.3021 45.4081 54.8333C45.3352 54.9792 45.0437 55.0521 44.825 54.9792C43.6589 54.8333 41.3265 54.3958 41.3265 53.8854C41.3265 53.1562 41.8367 52.8646 42.274 52.8646C42.93 52.8646 43.6589 53.2292 44.242 52.3542C42.1283 52.4271 43.7317 49.3646 41.9825 48.7812C42.0554 49.5833 41.9825 50.9688 41.6909 51.6979C41.6909 51.6979 41.035 51.0417 40.379 50.75C40.4519 51.3333 40.3061 52.5 40.0874 53.0833C40.0874 53.0833 39.3586 52.3542 38.5568 52.1354C39.2857 53.1562 39.2857 54.6875 39.067 55.5625C38.9941 55.8542 39.2128 56.1458 39.723 56.1458C40.5976 56.0729 43.5131 56.2188 44.7522 56.7292C45.1166 56.875 45.481 57.0937 45.6268 57.3854C45.7726 57.75 46.0641 58.3333 46.5014 58.625C46.7201 57.9688 47.449 57.2396 47.9592 57.3125C48.1049 57.3125 48.2507 57.6042 48.3236 57.8229C48.3965 57.6042 48.7609 56.9479 49.1253 56.9479C49.4898 56.9479 49.8542 57.4583 50 57.8958C50.0729 57.6042 50.2186 57.3125 50.3644 57.3125C50.8746 57.3125 51.5306 57.75 51.7492 58.5521C51.9679 58.3333 52.8425 57.1667 52.9154 56.3646H45.3352C45.3352 56.4375 45.3352 56.1458 45.3352 55.7812Z" fill="#13377D"/>
<path d="M47.2303 55.7813C47.2303 56 47.3761 56.1459 47.5948 56.1459C47.8134 56.1459 47.9592 56 47.9592 55.7813C47.9592 55.5625 47.8134 55.4167 47.5948 55.4167C47.3761 55.4167 47.2303 55.5625 47.2303 55.7813Z" fill="#13377D"/>
<path d="M45.6997 55.7813C45.6997 56 45.8455 56.1459 46.0641 56.1459C46.2828 56.1459 46.4286 56 46.4286 55.7813C46.4286 55.5625 46.2828 55.4167 46.0641 55.4167C45.8455 55.4167 45.6997 55.5625 45.6997 55.7813Z" fill="#13377D"/>
<path d="M15.5248 57.3854C15.379 57.5313 15.0874 58.3334 15.2332 58.8438C15.3061 59.0625 15.379 59.1354 15.5976 59.1354C15.8163 59.1354 15.8892 58.9896 15.9621 58.7709C16.035 58.2604 15.6705 57.4584 15.5248 57.3854Z" fill="#13377D"/>
<path d="M18.2216 59.6459C18.0758 59.8646 17.8571 59.9375 17.7842 60.0104C17.8571 60.0834 18.0758 60.2292 18.2944 60.2292C18.4402 60.2292 18.586 60.1563 18.6589 60.0834C18.8775 59.6459 18.6589 59.2813 18.586 59.1354C18.5131 59.2813 18.4402 59.5 18.2216 59.6459Z" fill="#13377D"/>
<path d="M17.2012 58.625C17.4927 58.3334 17.5656 58.1146 17.4927 57.9688C17.4198 57.75 16.7638 57.0938 16.035 56.2917C16.035 56.4375 15.9621 56.5834 15.9621 56.7292C16.4723 57.4584 16.691 58.1875 16.5452 58.8438C16.6181 58.9167 16.6181 58.9167 16.691 58.9167C16.8367 59.0625 17.0554 58.8438 17.2012 58.625Z" fill="#13377D"/>
<path d="M18.2215 58.6979C18.2215 58.5521 18.2215 58.4792 18.1487 58.4062H18.0758C18.0029 58.4062 17.93 58.5521 17.8571 58.625C17.7842 58.6979 17.7113 58.8438 17.5656 58.9896C17.4198 59.1354 17.3469 59.2083 17.2011 59.3542C17.0554 59.4271 16.9825 59.5729 16.9825 59.6458C16.9825 59.6458 16.9825 59.6458 16.9825 59.7188C17.0554 59.7917 17.0554 59.7917 17.1283 59.7917C17.2011 59.7917 17.4198 59.7188 17.7842 59.3542C18.1487 58.9896 18.2215 58.8438 18.2215 58.6979Z" fill="#13377D"/>
<path d="M13.4111 54.8333C13.4111 54.8333 13.3382 54.9062 13.2653 55.0521C13.4111 55.0521 13.6297 55.0521 13.7755 55.125C13.7755 54.9791 13.7755 54.7604 13.7755 54.6146C13.6297 54.6146 13.484 54.7604 13.4111 54.8333Z" fill="#13377D"/>
<path d="M15.379 55.0521C15.379 55.0521 16.9096 56.3646 17.4198 56.875C17.5656 57.0209 17.7114 57.0209 17.8572 56.9479C17.9301 56.875 18.0758 56.875 18.2216 56.8021C19.7522 56.2917 22.2303 56.2188 23.105 56.2188C23.6881 56.2188 23.8338 55.9271 23.761 55.6354C23.6152 54.7604 23.5423 53.2292 24.2712 52.2084C23.4694 52.5 22.7405 53.1563 22.7405 53.1563C22.449 52.6459 22.3761 51.4063 22.449 50.8229C21.7201 51.0417 21.137 51.7709 21.137 51.7709C20.8455 51.0417 20.7726 49.6563 20.8455 48.8542C19.0962 49.4375 20.6997 52.5729 18.586 52.4271C19.1691 53.3021 19.898 52.9375 20.554 52.9375C20.9913 52.9375 21.5744 53.2292 21.5015 53.9584C21.4286 54.4688 18.586 55.0521 17.4198 55.0521C16.6181 55.0521 16.035 54.8334 15.6706 54.25C15.4519 53.9584 15.3061 53.8854 15.0875 53.8854C14.7959 53.9584 14.5044 54.1771 14.5044 54.9063C14.5044 55.3438 14.7231 56.3646 15.2333 56.3646C15.5248 56.4375 15.5248 55.5625 15.379 55.0521Z" fill="#13377D"/>
<path d="M12.4635 54.6146C12.5364 54.6146 12.6093 54.6146 12.6822 54.6146C12.4635 54.9063 12.4635 55.125 12.5364 55.1979C12.6822 55.3438 12.7551 55.0521 13.1195 54.6875C13.4839 54.3229 13.7026 54.1771 13.6297 54.0313C13.5568 53.9583 13.3382 53.9583 13.0466 54.1771C13.0466 54.1042 13.1195 54.0313 13.0466 53.9583C12.9008 53.5938 12.3906 53.1563 12.0262 53.1563C11.9533 53.1563 11.9533 53.1563 11.8804 53.1563C12.0262 52.9375 11.9533 52.7917 11.8804 52.6458C11.8076 52.5729 11.7347 52.6458 11.5889 52.7917C11.5889 52.7188 11.5889 52.5729 11.516 52.4271C11.0787 51.6979 8.60056 49.3646 8.01747 49.1458C7.65304 49 7.58015 49.2187 7.58015 49.2187C7.58015 49.2187 7.36149 49.3646 7.50726 49.6562C7.72592 50.2396 10.1312 52.6458 10.7871 53.0833C10.9329 53.1563 11.0787 53.2292 11.1516 53.1563C11.0058 53.3021 10.9329 53.3021 11.0787 53.4479C11.1516 53.5208 11.2973 53.5938 11.516 53.4479C11.516 53.5208 11.516 53.5208 11.516 53.5938C11.6618 53.8854 12.0991 54.4688 12.4635 54.6146Z" fill="#13377D"/>
<path d="M14.2128 56.3646C14.2128 56.1458 13.7755 55.7083 13.1924 55.7083C12.3907 55.7083 12.0262 56.2187 12.0262 56.5104C12.0262 57.0208 12.5364 57.0937 12.6822 57.0937C13.1924 57.0937 14.1399 56.5104 14.2128 56.3646Z" fill="#13377D"/>
<path d="M13.484 57.6041C13.2653 57.8958 13.1924 58.1875 13.2653 58.4062C13.3382 58.6979 13.6297 58.8437 13.9213 58.8437C14.2128 58.8437 14.5044 58.6979 14.6501 58.4791C14.9417 57.9687 14.9417 56.875 14.8688 56.8021C14.5773 56.8021 13.8484 57.0937 13.484 57.6041Z" fill="#13377D"/>
<path d="M6.34112 46.2292C6.12246 46.0104 5.61226 46.375 5.32071 46.1563C5.46649 45.4271 5.97669 46.1563 6.41401 45.7188C6.63267 45.5 6.48689 45.2083 6.41401 45.1354C6.19535 45.3542 5.9038 45.2813 5.83092 45.1354C6.34112 43.8229 5.32071 42.4375 4.30031 42.5834C4.51896 42.875 4.59185 43.8229 4.44608 44.0417C4.81051 44.3333 4.59185 44.9896 4.15453 44.7708C3.86299 44.625 3.35278 43.8958 3.93587 43.4583C3.93587 43.2396 3.57144 43.2396 3.2799 43.6771C3.49856 42.875 1.96794 43.0938 1.6764 43.3125C1.53063 43.6771 1.31197 45.2083 2.11372 44.9167C1.6764 45.2813 1.74928 45.6458 1.89506 45.6458C2.40526 45.0625 3.06124 45.5 3.20701 45.7917C3.42567 46.2292 2.76969 46.5208 2.47815 46.1563C2.25949 46.2292 1.31197 46.2292 1.09331 46.0104C0.947535 47.0313 2.40526 48.125 3.64433 47.5417C3.7901 47.5417 3.86299 47.9063 3.64433 48.125C3.71721 48.2708 4.08165 48.3438 4.22742 48.125C4.73762 47.6146 4.00876 47.1042 4.66474 46.9583C4.81051 47.25 4.51896 47.7604 4.73762 47.9792C5.10205 48.3438 5.53937 47.6146 6.04958 47.6146C6.04958 47.0313 6.70555 46.5938 6.34112 46.2292ZM2.55103 44.5521C2.55103 44.5521 2.33238 44.4063 2.62392 44.0417C2.91547 43.75 3.06124 43.9688 3.06124 43.9688C3.06124 43.9688 3.35278 44.5521 3.42567 44.8438C3.13412 44.8438 2.55103 44.5521 2.55103 44.5521ZM4.8834 46.375C4.73762 46.375 4.37319 46.7396 4.22742 46.5208L3.42567 45.7188L3.86299 45.2813L4.30031 44.8438L5.10205 45.6458C5.17494 45.8646 4.8834 46.2292 4.8834 46.375Z" fill="#13377D"/>
<path d="M6.55979 47.6875C6.48691 47.6875 6.41402 47.6875 6.34114 47.7604C6.26825 47.8333 6.26825 47.9792 6.26825 48.125C6.26825 48.2708 6.41402 48.4167 6.55979 48.5625C6.63268 48.7812 6.85134 48.8542 6.99711 48.8542C7.07 48.8542 7.14288 48.8542 7.21577 48.7812C7.36154 48.6354 7.28866 48.1979 7.07 47.9792C6.92423 47.8333 6.70557 47.6875 6.55979 47.6875Z" fill="#13377D"/>
<path d="M4.22742 45.2812L4.00876 45.5L3.7901 45.7188C3.7901 45.7188 4.22742 46.3021 4.59185 46.0833C4.81051 45.7188 4.22742 45.2812 4.22742 45.2812Z" fill="#13377D"/>
<path d="M46.793 43.0938C46.793 43.2396 46.2099 43.5313 45.7726 42.7292C45.3353 42.6563 44.898 42.5104 44.6064 42.3646C45.1166 43.3854 45.554 44.2604 46.2828 44.6979C47.3761 45.3542 49.0525 45.2084 49.5627 44.4792C48.6152 43.9688 47.5219 42.6563 46.9388 41.4167C46.793 41.7084 46.5744 42.2188 46.4286 42.5834C46.5015 42.7292 46.6473 42.9479 46.793 43.0938Z" fill="#13377D"/>
<path d="M56.9242 27.125C58.0904 26.6146 59.7668 25.4479 60.5685 24.7188C60.6414 24.8646 60.933 25.5208 60.0583 26.25C59.4024 26.7604 58.0904 27.4167 57.1429 27.7813C56.7056 28.4375 55.8309 29.1667 54.6647 29.9688C56.9971 29.6042 59.7668 28.6563 61.1516 27.3438C63.7026 24.7917 62.3907 21.7292 62.0263 21C60.3499 23.1146 57.1429 25.3021 54.1545 26.4688C55.1749 26.6146 56.1954 26.8333 56.9242 27.125Z" fill="#13377D"/>
<path d="M55.0292 22.4583C56.5598 21.2187 58.1633 18.7396 58.4548 17.8646C58.8193 18.0833 58.965 18.8125 58.5277 19.6146C57.726 21 56.2682 22.2396 55.0292 23.2604C54.9563 24.1354 54.5919 25.2291 54.1545 26.0312C55.9767 24.7916 58.0904 22.9687 59.0379 21.7291C60.277 20.125 60.7872 18.5208 60.5685 16.9166C60.6414 15.0937 59.3295 13.2708 58.8193 12.8333C58.4548 14.8021 56.4869 18.1562 54.7376 20.0521C54.8834 20.7083 55.0292 21.6562 55.0292 22.4583Z" fill="#13377D"/>
<path d="M53.863 33.9792C54.2274 34.4167 54.5919 34.9271 54.8834 35.3646C56.2682 35.6563 57.9446 35.5834 57.9446 35.5834C57.9446 35.5834 57.8717 36.3125 56.9242 36.3854C56.4869 36.3854 55.175 36.1667 54.6647 36.0209C54.4461 36.0938 53.4257 36.3854 52.4053 36.5313C53.863 37.0417 55.9767 37.5521 57.2887 37.5521C57.4344 37.5521 57.5073 37.5521 57.6531 37.5521C59.7668 37.3334 60.8601 35.3646 60.933 34.2709C60.277 34.4167 59.1837 34.4896 58.0904 34.4896C57.07 34.4896 55.2478 34.4167 53.863 33.9792Z" fill="#13377D"/>
<path d="M62.6822 28.4375C60.7872 29.4583 57.4344 30.4792 54.7376 30.4792C55.3936 30.9167 56.0495 31.3542 56.4869 31.7917C57.5802 31.7187 59.1108 31.3542 59.9854 31.0625C59.9854 31.2083 59.9854 31.9375 58.965 32.2292C58.2361 32.4479 57.2157 32.4479 56.414 32.4479C55.758 32.8854 54.8105 33.25 54.0087 33.5417C54.7376 33.6146 55.6851 33.6875 56.4869 33.6875C57.8717 33.6875 59.1837 33.5417 59.9854 33.25C60.7143 33.0312 63.1195 32.0104 62.6822 28.4375Z" fill="#13377D"/>
<path d="M52.4782 38.5C53.2799 38.8646 54.1546 39.1563 54.8834 39.2292C54.8834 39.2292 54.7376 39.9584 53.6443 39.8125C52.9884 39.7396 52.2595 39.2292 52.1137 39.1563C51.6035 39.2292 50.5831 39.2292 50.2187 39.1563C51.4578 40.0313 53.3528 41.0521 54.9563 41.1979C55.0292 41.1979 55.1021 41.1979 55.175 41.1979C56.8513 41.1979 58.1633 39.5209 58.5277 38.7188C56.8513 38.7188 53.9359 37.9896 52.1866 37.0417C52.2595 37.3334 52.4053 37.9167 52.4782 38.5Z" fill="#13377D"/>
<path d="M49.5627 40.7604C50 41.2709 50.7289 41.5625 50.7289 41.5625C50.7289 41.5625 50.5102 41.9271 50.0729 41.9271C49.9271 41.9271 49.7814 41.8542 49.6356 41.7813C49.344 41.6354 48.9067 41.125 48.9067 41.125C48.3236 41.0521 47.8134 40.9792 47.3032 40.8334C48.1779 41.9271 49.6356 43.3125 51.2391 43.6771C51.4577 43.75 51.6764 43.75 51.9679 43.75C53.3528 43.75 54.519 42.7292 54.8105 42.0729C53.207 41.8542 50.8746 40.6146 49.7085 39.4479C49.7085 39.8854 49.6356 40.3959 49.5627 40.7604Z" fill="#13377D"/>
<path d="M39.1399 58.625C39.9417 58.625 40.4519 58.3333 40.8163 57.5312C39.723 58.0417 38.5568 57.75 36.3703 57.0938C36.3703 57.0938 35.5685 57.4583 35.0583 57.5312C36.3703 57.8958 38.2653 58.5521 38.5568 59.2813C38.7026 59.8646 38.3382 60.0104 38.3382 60.0104C37.6093 59.1354 36.7347 58.625 34.8396 58.0417C34.8396 58.4062 34.7668 58.625 34.7668 58.625C34.7668 58.625 34.4023 58.6979 33.5277 58.5521C34.2566 59.1354 36.0058 60.6667 36.2245 62.2708C36.3703 63.3646 35.5685 63.4375 35.5685 63.4375C35.4956 61.7604 34.7668 60.7396 33.1633 59.0625C33.1633 59.0625 32.8717 59.4271 32.5802 59.6458C32.5802 59.6458 31.9971 59.5729 31.5598 59.2083C31.7784 61.3958 31.8513 66.6458 31.7055 67.4479C31.6327 68.0312 31.2682 68.3229 31.2682 68.3229C31.2682 68.3229 30.9038 68.1042 30.8309 67.4479C30.6851 66.5729 30.8309 61.3229 30.9767 59.2083C30.4665 59.5 29.9563 59.6458 29.9563 59.6458C29.5918 59.4271 29.3732 59.0625 29.3732 59.0625C27.8426 60.7396 27.1137 61.8333 26.9679 63.4375C26.9679 63.4375 26.2391 63.3646 26.3119 62.2708C26.5306 60.6667 28.2799 59.1354 29.0087 58.5521C28.207 58.6979 27.7697 58.625 27.7697 58.625C27.7697 58.625 27.6968 58.4062 27.6968 58.0417C25.8017 58.625 25 59.1354 24.1982 60.0104C24.1982 60.0104 23.8338 59.9375 23.9796 59.2813C24.2711 58.5521 26.1662 57.9687 27.4781 57.5312C27.0408 57.4583 26.1662 57.0938 26.1662 57.0938C24.0525 57.75 22.8134 58.0417 21.7201 57.5312C22.0117 58.3333 22.5947 58.625 23.3965 58.625C22.3761 58.9896 21.4286 60.0104 21.137 61.0312C21.8659 63.7292 24.1982 64.5312 24.1982 64.5312C23.6152 63.2187 23.8338 60.6667 27.3324 58.9167C25.2187 61.0313 24.344 63 24.9271 64.8229C25.4373 66.5 27.1866 67.1562 28.4257 67.2292C27.551 64.4583 27.9155 61.9062 29.8105 59.9375C29.0087 62.125 27.8426 68.9062 31.1224 70C34.4023 68.9062 33.2361 62.125 32.4344 59.9375C34.3294 61.9792 34.6939 64.4583 33.8192 67.2292C35.1312 67.2292 36.8076 66.5 37.3178 64.8229C37.9009 63 37.0991 61.0313 34.9125 58.9167C38.4111 60.6667 38.6297 63.2917 38.0466 64.5312C38.0466 64.5312 40.379 63.7292 41.1079 61.0312C41.1079 60.0104 40.0875 59.0625 39.1399 58.625Z" fill="#13377D"/>
<path d="M16.5452 44.6979C17.2741 44.2604 17.7114 43.3854 18.2216 42.3646C17.93 42.5104 17.4927 42.6563 17.0554 42.7292C16.6181 43.5313 16.035 43.2396 16.035 43.0938C16.1808 42.9479 16.3265 42.7292 16.3994 42.5834C16.2537 42.2188 16.035 41.7084 15.8892 41.4167C15.3061 42.7292 14.14 43.9688 13.2653 44.4792C13.7755 45.2084 15.4519 45.3542 16.5452 44.6979Z" fill="#13377D"/>
<path d="M8.09036 29.9688C6.85129 29.1667 6.04954 28.4375 5.61222 27.7813C4.59181 27.4167 3.27986 26.7604 2.69677 26.25C1.82214 25.5209 2.11368 24.8646 2.18657 24.7188C2.91543 25.5209 4.59181 26.6146 5.83088 27.125C6.55974 26.8334 7.58015 26.6146 8.60056 26.4688C5.61222 25.375 2.40523 23.1146 0.728841 21.0729C0.364409 21.7292 -1.02043 24.8646 1.60348 27.4167C2.91543 28.6563 5.758 29.6042 8.09036 29.9688Z" fill="#13377D"/>
<path d="M8.60057 25.9584C8.16325 25.1563 7.79882 24.1354 7.72594 23.1875C6.48687 22.2396 5.10203 21 4.22739 19.5417C3.79008 18.7396 3.93585 18.0104 4.30028 17.7917C4.59183 18.6667 6.19533 21.1459 7.72594 22.3854C7.72594 21.5834 7.87171 20.6354 8.09037 19.9792C6.3411 18.0834 4.30028 14.7292 4.00874 12.7604C3.49853 13.1979 2.18658 15.0209 2.25946 16.8438C2.04081 18.4479 2.55101 20.0521 3.79008 21.6563C4.66471 22.8959 6.77841 24.7917 8.60057 25.9584Z" fill="#13377D"/>
<path d="M7.8717 35.3646C8.09036 34.9271 8.52767 34.4167 8.8921 33.9792C7.50727 34.3438 5.68511 34.4167 4.73759 34.4167C3.5714 34.4167 2.47811 34.3438 1.89502 34.1979C1.96791 35.3646 3.0612 37.3334 5.1749 37.4792C5.32068 37.4792 5.39356 37.4792 5.53933 37.4792C6.85129 37.4792 8.96499 36.9688 10.4227 36.4584C9.40231 36.3125 8.3819 36.0938 8.16324 35.9479C7.58015 36.2396 6.2682 36.4584 5.83088 36.3854C4.88336 36.3125 4.81047 35.5834 4.81047 35.5834C4.81047 35.5834 6.48686 35.6563 7.8717 35.3646Z" fill="#13377D"/>
<path d="M2.76979 33.3229C3.57154 33.6146 4.81061 33.7604 6.26833 33.7604C7.14297 33.7604 8.0176 33.6875 8.74647 33.6146C7.94472 33.3229 6.99719 32.9584 6.34122 32.5209C5.53947 32.5209 4.44617 32.4479 3.7902 32.3021C2.76979 32.0104 2.76979 31.2813 2.76979 31.1354C3.64442 31.5 5.17504 31.8646 6.26833 31.8646C6.70565 31.5 7.28874 30.9896 8.0176 30.5521C5.3937 30.5521 1.96804 29.5313 0.0729959 28.5104C-0.364322 32.0104 2.04093 33.0313 2.76979 33.3229Z" fill="#13377D"/>
<path d="M7.65306 41.125C7.72595 41.125 7.79884 41.125 7.87172 41.125C9.47522 40.9792 11.3703 39.9583 12.6093 39.0833C12.2449 39.1562 11.1516 39.1562 10.7143 39.0833C10.5685 39.2291 9.76677 39.6666 9.18368 39.7396C8.01749 39.8854 7.94461 39.1562 7.94461 39.1562C8.67347 39.0833 9.54811 38.7916 10.3499 38.4271C10.4227 37.8437 10.5685 37.2604 10.7143 36.8958C8.89213 37.9166 5.97668 38.6458 4.30029 38.6458C4.66472 39.4479 5.97668 41.125 7.65306 41.125Z" fill="#13377D"/>
<path d="M10.7871 43.75C11.0058 43.75 11.2973 43.75 11.516 43.6771C13.0466 43.3125 14.5772 41.9271 15.4519 40.8334C14.9417 40.9792 14.4315 41.125 13.8484 41.125C13.8484 41.125 13.4839 41.5625 13.1195 41.7813C12.9737 41.8542 12.828 41.9271 12.6822 41.9271C12.2449 41.9271 12.0262 41.5625 12.0262 41.5625C12.0262 41.5625 12.7551 41.1979 13.1924 40.7604C13.1195 40.3959 13.0466 39.8854 13.0466 39.4479C11.8076 40.6875 9.54808 41.8542 7.94458 42.0729C8.23613 42.7292 9.32942 43.75 10.7871 43.75Z" fill="#13377D"/>
<path d="M30.758 3.8646C30.758 4.22918 31.0495 4.44793 31.3411 4.44793C31.6326 4.44793 31.9242 4.15627 31.9242 3.8646C31.9242 3.50002 31.6326 3.28127 31.3411 3.28127C31.0495 3.20835 30.758 3.50002 30.758 3.8646Z" fill="#13377D"/>
<path d="M30.9767 2.55208H31.7784L31.7055 1.53125L32.5802 1.67708V0.875L31.7055 0.947917L31.7784 0H30.9767L31.0496 0.947917L30.1749 0.875V1.67708L31.0496 1.53125L30.9767 2.55208Z" fill="#13377D"/>
<path d="M28.1341 12.1771C28.207 12.1771 28.3527 12.25 28.4256 12.25H34.2565C34.4023 12.25 34.4752 12.25 34.5481 12.1771C34.7667 12.1041 34.8396 11.9583 34.9125 11.7396H27.7697C27.8425 12.0312 27.9883 12.1041 28.1341 12.1771Z" fill="#13377D"/>
<path d="M34.5481 11.3021C34.621 11.3021 34.621 11.2292 34.621 11.2292V10.7917C34.621 10.7188 34.5481 10.7188 34.5481 10.7188H28.207C28.1341 10.7188 28.1341 10.7917 28.1341 10.7917V11.2292C28.1341 11.3021 28.207 11.3021 28.207 11.3021H34.5481Z" fill="#13377D"/>
<path d="M35.2041 10.2083C35.3499 9.98958 36.1516 8.45833 36.1516 6.85417C36.1516 5.39583 34.3295 4.59375 33.3091 4.59375C33.1633 6.63542 32.3615 9.84375 31.3411 9.84375C30.3936 9.84375 29.519 6.63542 29.3732 4.59375C28.2799 4.59375 26.5306 5.39583 26.5306 6.85417C26.5306 8.45833 27.3324 10.0625 27.4782 10.2083H35.2041Z" fill="#13377D"/>
<path d="M31.3411 8.8229C31.8513 8.8229 32.4344 7.29165 32.6531 5.7604C32.6531 5.46873 32.1429 5.03123 31.3411 4.95831C30.5394 4.95831 30.0292 5.39581 30.0292 5.7604C30.2478 7.14581 30.9038 8.8229 31.3411 8.8229Z" fill="#13377D"/>
<path d="M40.5976 32.7396C40.5976 32.5208 40.4519 32.375 40.2332 32.375H22.5218C22.3032 32.375 22.1574 32.5208 22.1574 32.7396V44.9167V44.9896V45.0625C22.1574 45.0625 22.1574 45.7187 22.449 46.4479C22.8134 47.3229 24.344 48.7812 26.239 49.8021C28.9358 51.1875 30.5393 52.2812 31.3411 52.9375C32.1428 52.2812 33.7463 51.1875 36.4431 49.8021C38.4111 48.7812 39.8688 47.3229 40.2332 46.4479C40.5976 45.6458 40.5248 45.0625 40.5248 45.0625L40.5976 32.7396ZM34.621 37.1875V37.2604C34.8396 38.1354 35.0583 39.0833 35.1312 39.9583C35.86 40.5417 36.516 41.125 37.0991 41.7083C38.1924 40.4687 38.7755 39.3021 38.7755 38.3542C38.2653 38.3542 37.828 37.9167 37.828 37.4062C37.828 37.1875 37.9008 37.0417 37.9737 36.8958C37.4635 36.6771 36.8804 36.6042 36.3702 36.6042C35.9329 36.6042 35.4956 36.6771 34.9854 36.75H34.9125L34.7667 36.8229L34.8396 36.75C34.9125 36.6042 34.9125 36.5312 34.9854 36.3854C36.4431 36.0937 37.6093 36.2396 38.3382 36.6771C38.4839 36.6042 38.6297 36.5312 38.7755 36.5312C39.2857 36.5312 39.723 36.9687 39.723 37.4792C39.723 37.8437 39.5043 38.1354 39.2128 38.2812C39.2128 39.3021 38.6297 40.6146 37.3906 42.0729C37.4635 42.1458 37.5364 42.2187 37.6093 42.2917C37.6822 42.3646 37.6822 42.3646 37.7551 42.4375V42.5104C37.6822 42.5833 37.6093 42.6562 37.5364 42.7292H37.4635C37.4635 42.7292 37.4635 42.7292 37.3906 42.7292C37.3178 42.6562 37.3178 42.6562 37.3178 42.5833C37.2449 42.5104 37.2449 42.4375 37.172 42.3646C37.0262 42.5104 36.8804 42.6562 36.7347 42.8021L36.5889 43.0208C36.3702 43.1667 36.1516 43.2396 36.0058 43.1667H35.9329L36.0058 43.0937C36.3702 42.8021 36.6618 42.4375 36.9533 42.2187C36.516 41.7083 35.9329 41.1979 35.3498 40.6875C35.4227 41.1979 35.4227 41.7083 35.4227 42.2187C35.4227 42.6562 35.4227 43.1667 35.3498 43.6771C35.2769 43.75 35.1312 43.8229 35.0583 43.8958L34.9854 43.9687V43.8958C35.0583 43.3125 35.0583 42.7292 35.0583 42.2187C35.0583 42.0729 35.0583 41.8542 35.0583 41.7083V41.5625C35.0583 41.1979 34.9854 40.1771 34.9125 39.5208C34.8396 38.9375 34.6939 38.3542 34.5481 37.7708V37.6979C34.621 37.625 34.6939 37.5521 34.7667 37.4792L34.621 37.1875ZM28.6443 35.875C29.3732 34.125 30.3936 33.1771 31.414 33.1771C32.4344 33.1771 33.4548 34.125 34.1837 35.875V35.9479H34.1108C34.0379 35.9479 33.965 36.0208 33.8192 36.0937H33.7463V36.0208C33.0904 34.4896 32.2157 33.6146 31.3411 33.6146C30.4664 33.6146 29.5918 34.4896 28.9358 36.0208V36.0937H28.8629C28.7901 35.9479 28.6443 35.9479 28.6443 35.875ZM28.3527 36.3125C28.5714 36.4583 29.2274 36.8229 29.9562 36.6042C30.6122 36.3854 31.3411 36.3854 31.3411 36.3854C31.3411 36.3854 32.1428 36.3854 32.7259 36.6042C33.4548 36.8229 34.1108 36.4583 34.3294 36.3125C34.4023 36.3125 34.4023 36.3125 34.4023 36.3854C34.3294 36.6771 34.1108 37.4062 33.0175 37.6979C31.9971 37.9167 31.4869 39.0833 31.3411 39.5937C31.3411 39.6667 31.2682 39.6667 31.1953 39.5937C31.0495 39.0833 30.5393 37.9167 29.5189 37.6979C28.4256 37.4792 28.207 36.6771 28.1341 36.3854C28.2799 36.3125 28.3527 36.3125 28.3527 36.3125ZM30.102 39.2292C30.2478 39.2292 30.4664 39.1562 30.6122 39.0833C30.6851 39.2292 30.758 39.4479 30.8309 39.5937C30.6122 39.7396 30.3936 39.8125 30.102 39.8125C29.3003 39.8125 28.7172 39.1562 28.7172 38.4271C28.7172 38.2083 28.7901 38.0625 28.8629 37.9167C29.0087 37.9896 29.1545 38.0625 29.3732 38.1354C29.3003 38.2083 29.3003 38.3542 29.3003 38.4271C29.2274 38.8646 29.6647 39.2292 30.102 39.2292ZM29.7376 38.3542C29.7376 38.2812 29.7376 38.2812 29.7376 38.2083C29.9562 38.2812 30.1749 38.5 30.3207 38.6458C30.2478 38.7187 30.1749 38.7187 30.102 38.7187C29.8834 38.7187 29.7376 38.5729 29.7376 38.3542ZM30.102 40.25C30.3936 40.25 30.758 40.1771 31.0495 39.9583C31.1224 40.0312 31.2682 40.3229 31.3411 40.3229C31.4869 40.3229 31.5597 40.0312 31.6326 39.9583C31.9242 40.1042 32.2886 40.25 32.5802 40.25C33.0904 40.25 33.5277 40.0312 33.8921 39.7396C33.8921 39.7396 33.8921 39.7396 33.8921 39.8125C34.0379 40.3958 34.1108 41.125 34.0379 41.4167C34.0379 41.7083 33.8921 42 33.8192 42.2917C33.6734 42.6562 33.6006 42.9479 33.6006 42.9479C33.6006 42.9479 33.6006 43.0208 33.5277 43.1667C33.4548 43.4583 33.2361 43.9687 32.9446 44.4792C32.3615 44.1146 31.7784 43.9687 31.0495 43.9687C30.3936 43.9687 29.8105 44.1146 29.3003 44.4062C29.0816 43.8958 28.8629 43.4583 28.7901 43.2396C28.7172 43.0937 28.7172 43.0208 28.7172 43.0208C28.7172 43.0208 28.5714 42.7292 28.4256 42.2917C28.3527 42.0729 28.2799 41.7812 28.2799 41.4896C28.2799 41.2708 28.207 40.5417 28.4256 39.8854C28.4256 39.8125 28.4985 39.7396 28.4985 39.6667C29.0087 39.9583 29.5918 40.25 30.102 40.25ZM32.653 39.2292C33.1632 39.2292 33.5277 38.8646 33.5277 38.3542C33.5277 38.2083 33.5277 38.1354 33.4548 38.0625C33.6006 37.9896 33.8192 37.9167 33.965 37.8437C34.0379 37.9896 34.1108 38.2083 34.1108 38.3542C34.1108 39.1562 33.4548 39.7396 32.7259 39.7396C32.4344 39.7396 32.2157 39.6667 31.9971 39.5208C32.0699 39.375 32.1428 39.2292 32.2157 39.0104C32.2886 39.1562 32.5073 39.2292 32.653 39.2292ZM32.4344 38.6458C32.5801 38.4271 32.7988 38.2812 33.0175 38.2083C33.0175 38.2812 33.0175 38.2812 33.0175 38.3542C33.0175 38.5729 32.8717 38.7187 32.653 38.7187C32.5801 38.7187 32.5073 38.7187 32.4344 38.6458ZM23.9796 36.6042C24.1982 36.6042 24.344 36.6771 24.4898 36.75C25 36.4583 25.5831 36.3125 26.3848 36.3125C26.8221 36.3125 27.2594 36.3854 27.7697 36.4583H27.8425C27.8425 36.5312 27.9154 36.6771 27.9883 36.8229L28.0612 36.8958L27.9154 36.8229C27.8425 36.8229 27.8425 36.8229 27.7697 36.8229C27.3323 36.75 26.895 36.6771 26.4577 36.6771C25.9475 36.6771 25.2915 36.75 24.8542 37.0417C24.9271 37.1875 25 37.3333 25 37.5521C25 38.0625 24.5627 38.5 24.0525 38.5C24.0525 39.375 24.6355 40.5417 25.7288 41.8542C26.3119 41.2708 26.9679 40.6146 27.6968 40.1042C27.7697 39.2292 27.9883 38.2812 28.207 37.4062V37.3333L28.2799 37.4062C28.3527 37.4792 28.4256 37.5521 28.4985 37.625C28.4985 37.625 28.4985 37.625 28.5714 37.6979V37.7708C28.4256 38.3542 28.2799 38.8646 28.207 39.4479V39.5208C28.1341 39.9583 28.0612 40.5417 28.0612 41.125C28.0612 41.5625 27.9883 41.9271 27.9883 42.2187C27.9883 42.6562 27.9883 43.0937 28.0612 43.6771V43.75H27.9883C27.8425 43.6771 27.7697 43.6771 27.6968 43.6771H27.6239V43.6042C27.6239 43.2396 27.551 42.7292 27.551 42.2187C27.551 41.7083 27.551 41.1979 27.6239 40.6875C27.0408 41.1979 26.4577 41.7083 26.0204 42.2187C26.3848 42.6562 26.895 43.0937 27.4781 43.6042L27.551 43.6771H27.4781C27.3323 43.75 27.1137 43.75 26.9679 43.6771C26.5306 43.2396 26.1662 42.9479 25.8017 42.5833C25.7288 42.6562 25.656 42.7292 25.656 42.8021L25.5831 42.875C25.5102 42.875 25.4373 42.9479 25.2915 43.0208L25.2186 42.9479C25.2186 42.9479 25.1457 42.9479 25.1457 42.875H25.0729V42.8021C25.2186 42.5833 25.3644 42.4375 25.5102 42.2917C24.2711 40.9062 23.688 39.5937 23.688 38.5729C23.3965 38.4271 23.1778 38.1354 23.1778 37.7708C23.032 37.0417 23.4694 36.6042 23.9796 36.6042ZM34.3294 47.9062C33.8192 49.3646 33.0904 50.3854 32.2886 50.8229C32.2157 51.2604 31.8513 51.625 31.414 51.625C30.9767 51.625 30.6122 51.2604 30.5393 50.8229C29.7376 50.3854 29.0087 49.4375 28.4985 47.9792V47.9062L28.9358 47.7604V47.8333C29.3732 49.0729 29.9562 49.9479 30.6122 50.3854C30.758 50.0208 31.0495 49.7292 31.4869 49.7292C31.9242 49.7292 32.2157 50.0208 32.3615 50.3125C33.0175 49.875 33.6006 49 34.0379 47.8333V47.7604H34.1108C34.1108 47.8333 34.1836 47.8333 34.3294 47.9062ZM30.6122 47.8333C30.6122 47.5417 30.6851 46.7396 30.8309 46.4479C30.9767 46.375 31.1953 46.3021 31.414 46.3021C31.6326 46.3021 31.8513 46.375 32.0699 46.5208C32.1428 46.8125 32.2886 47.5417 32.2886 47.8333C32.2886 48.125 31.5597 48.3437 31.4869 48.4167C31.2682 48.3437 30.6122 48.1979 30.6122 47.8333ZM39.9417 44.9167C39.8688 44.9896 39.7959 45.0625 39.723 45.0625C39.6501 45.0625 39.5772 45.1354 39.4315 45.1354H39.3586C39.2128 45.1354 39.067 45.1354 38.9941 45.0625C38.9213 45.0625 38.9213 44.9896 38.8484 44.9896C38.6297 44.9896 38.1195 45.1354 37.9737 45.2083C38.0466 45.2083 38.7026 45.2812 39.1399 45.6458C39.3586 45.7917 39.7959 45.8646 39.9417 45.8646C39.9417 45.9375 39.2128 46.4479 37.828 46.1562L37.4635 46.0833C36.8076 45.9375 36.2245 45.8646 35.5685 45.8646C35.6414 45.8646 35.7143 45.9375 35.7143 45.9375C35.86 46.0104 36.0787 46.0833 36.2245 46.1562C36.2245 46.1562 36.2974 46.1562 36.2974 46.2292H36.3702C36.4431 46.2292 36.516 46.2292 36.516 46.3021C36.5889 46.3021 36.6618 46.375 36.7347 46.375C36.8076 46.4479 36.9533 46.5208 36.9533 46.5937C36.9533 46.6667 37.0262 46.6667 37.0262 46.7396C37.0262 46.8854 37.0262 46.9583 36.9533 47.1042C36.7347 47.3958 36.4431 47.3958 36.1516 47.1042L36.0787 47.0312C36.0058 46.9583 35.9329 46.8854 35.86 46.7396V46.6667C35.86 46.6667 35.86 46.6667 35.7871 46.6667C35.6414 46.5937 35.5685 46.4479 35.4227 46.4479C35.2041 46.375 34.9125 46.3021 34.6939 46.2292C34.621 46.2292 34.5481 46.2292 34.4752 46.2292C34.6939 46.375 34.9125 46.5208 34.9854 46.6667C34.9854 46.6667 34.9854 46.6667 34.9854 46.7396C35.1312 46.9583 35.1312 47.1771 35.2041 47.3958C35.4227 47.8333 35.4956 47.9062 35.7143 48.0521C35.4956 48.125 34.4023 48.125 33.8921 47.3229C33.8921 47.3229 33.8192 47.25 33.8192 47.1771C33.6734 46.8854 33.6006 46.5937 33.5277 46.375C33.4548 46.1562 33.6006 45.9375 33.4548 45.8646C33.309 45.7917 33.2361 45.8646 33.2361 45.8646C33.1632 45.9375 33.1632 45.9375 33.1632 45.9375V46.0104C33.1632 46.0833 33.0904 46.0833 33.0904 46.0833V46.1562C33.0904 46.1562 33.0904 46.2292 33.0175 46.2292C33.0175 46.2292 33.0175 46.2292 32.9446 46.2292C32.8717 46.2292 32.8717 46.2292 32.7988 46.2292C32.7988 46.2292 32.7988 46.2292 32.7259 46.2292C32.7259 46.2292 32.653 46.2292 32.653 46.3021C32.5801 46.3021 32.5073 46.375 32.4344 46.375C32.3615 46.375 32.2886 46.3021 32.2886 46.2292C32.2886 46.1562 32.2886 46.1562 32.2886 46.0833C32.2157 46.0833 32.2157 46.0833 32.1428 46.0833C32.0699 46.0833 32.0699 46.0833 31.9971 46.0104C31.9971 45.9375 31.9971 45.8646 31.9971 45.8646C31.9971 45.7917 31.9971 45.7917 31.9971 45.7917C31.9242 45.8646 31.9242 45.8646 31.8513 45.8646C31.7784 45.8646 31.7784 45.8646 31.7055 45.8646C31.6326 45.8646 31.6326 45.7917 31.6326 45.7187V45.6458C31.6326 45.6458 31.6326 45.6458 31.6326 45.5729C31.6326 45.5729 31.6326 45.5729 31.5597 45.5729H31.4869C31.414 45.5729 31.2682 45.5 31.1953 45.5C31.1953 45.5 31.1953 45.5 31.1224 45.5C31.0495 45.5 30.9038 45.5729 30.8309 45.5729H30.758H30.6851C30.6851 45.5729 30.6851 45.5729 30.6851 45.5C30.6851 45.5 30.6851 45.5 30.6851 45.4271L30.758 45.3542C30.758 45.3542 30.758 45.3542 30.758 45.2812C30.6851 45.2812 30.6851 45.2812 30.6122 45.2812V45.3542C30.6122 45.3542 30.6122 45.3542 30.5393 45.3542V45.4271V45.5C30.5393 45.5729 30.5393 45.6458 30.4664 45.6458C30.3936 45.7187 30.3936 45.7187 30.3207 45.6458C30.3207 45.6458 30.2478 45.6458 30.2478 45.5729C30.2478 45.5729 30.1749 45.5729 30.1749 45.5C30.1749 45.5 30.1749 45.5729 30.2478 45.5729C30.2478 45.6458 30.2478 45.6458 30.2478 45.7187C30.1749 45.7917 30.1749 45.7917 30.102 45.7917H30.0291H29.9562C29.9562 45.8646 30.0291 45.8646 29.9562 45.9375C29.9562 46.0104 29.8834 46.0104 29.8105 46.0104C29.7376 46.0104 29.7376 46.0104 29.6647 46.0104C29.6647 46.0104 29.6647 46.0104 29.5918 46.0104H29.5189L29.446 45.9375C29.446 45.9375 29.3732 45.9375 29.3003 45.9375C29.3003 45.9375 29.2274 45.9375 29.2274 45.8646L29.1545 45.7917V45.7187C29.0087 45.5729 28.7901 46.0833 28.7901 46.0833C28.1341 47.4687 26.5306 47.7604 26.5306 47.6875C26.5306 47.6875 26.895 47.5417 27.0408 47.0312C27.1137 46.7396 27.1137 46.6667 27.2595 46.375C27.2595 46.3021 27.3323 46.3021 27.3323 46.2292C27.4052 46.0833 27.6239 46.0104 27.7697 45.8646C27.6968 45.8646 27.6239 45.8646 27.551 45.8646C27.3323 45.9375 27.1137 45.9375 26.8221 46.0833C26.6764 46.1562 26.6035 46.2292 26.4577 46.3021C26.4577 46.3021 26.4577 46.3021 26.3848 46.3021V46.375C26.3848 46.4479 26.3119 46.5208 26.239 46.6667L26.1662 46.7396C25.8746 47.0312 25.656 47.0312 25.3644 46.7396L25.2915 46.6667C25.2186 46.5937 25.2186 46.4479 25.2915 46.375C25.2915 46.3021 25.3644 46.2292 25.4373 46.1562C25.5102 46.0833 25.5831 46.0833 25.656 46.0104C25.7288 45.9375 25.8017 45.9375 25.8746 45.9375C25.9475 45.9375 25.9475 45.9375 26.0204 45.8646C26.0204 45.8646 26.0933 45.8646 26.1662 45.8646C26.1662 45.8646 26.1662 45.7917 26.239 45.7917C26.3119 45.7917 26.3848 45.7187 26.4577 45.7187C26.5306 45.7187 26.6035 45.6458 26.6764 45.6458C26.6764 45.6458 26.7492 45.6458 26.8221 45.5729C26.239 45.5729 25.656 45.6458 25 45.7917C24.9271 45.7917 24.7813 45.8646 24.6355 45.8646C23.9067 46.0104 22.5218 45.6458 22.5218 45.5729C22.5218 45.5 22.8863 45.5 23.2507 45.2812C23.5422 45.1354 23.688 44.9896 23.9067 44.9167C24.2711 45.2083 24.7084 45.2083 24.7813 45.2083C24.6355 45.1354 23.9796 45.0625 23.7609 44.9896C23.7609 44.9896 23.688 45.0625 23.6151 45.0625C23.4694 45.1354 23.3236 45.1354 23.1778 45.1354C23.1049 45.1354 22.9592 45.1354 22.8863 45.0625C22.8134 45.0625 22.7405 44.9896 22.6676 44.9167C22.5947 44.8437 22.5947 44.7708 22.5947 44.5521C22.6676 44.2604 22.9592 44.1146 23.3236 44.1875C23.5422 44.2604 23.688 44.3333 23.7609 44.4062L23.8338 44.4792C24.0525 44.4792 24.344 44.625 24.6355 44.6979C24.9271 44.8437 25.1457 44.9167 25.2915 44.9167C25.2186 44.9167 25.1457 44.8437 25.0729 44.8437C25 44.8437 24.9271 44.7708 24.9271 44.7708C24.8542 44.6979 24.7813 44.6979 24.7084 44.625C24.2711 44.4062 23.8338 44.1875 23.5422 43.8958C23.3236 43.6042 23.2507 43.4583 23.1778 43.1667C23.1049 42.5104 22.8134 42.2187 22.8134 42.1458C22.8863 42.0729 23.9067 42.5833 24.2711 42.9479C24.4898 43.2396 24.5627 43.4583 24.6355 43.6771V43.75C24.7084 43.9687 24.9271 44.1875 25.2915 44.4062C25.3644 44.4062 25.3644 44.4792 25.4373 44.4792C25.3644 44.3333 25.2915 44.2604 25.2186 44.1146V44.0417L25.1457 43.9687C25.1457 43.9687 25.0729 43.8958 25.0729 43.8229C25 43.75 25 43.6771 24.9271 43.6042C24.8542 43.3854 24.8542 43.1667 24.9271 43.0937C25 43.0208 25.0729 42.9479 25.2186 42.875C25.5102 42.8021 25.7288 42.9479 25.8017 43.3854C25.8017 43.4583 25.8017 43.5312 25.8017 43.6042C25.8017 43.6771 25.8017 43.75 25.8017 43.8229V43.8958C25.8017 43.8958 25.8017 43.8958 25.8017 43.9687C25.9475 44.4062 26.3119 44.7708 26.7492 45.0625C26.239 44.625 25.9475 43.6042 26.0204 43.6042C26.0933 43.5312 26.5306 43.8229 26.9679 44.0417C27.1866 44.1146 27.4052 44.2604 27.6239 44.4062C27.7697 44.4792 27.9154 44.625 27.9883 44.6979C28.1341 44.7708 28.207 44.9167 28.2799 44.9896C28.3527 45.0625 28.4256 45.1354 28.4985 45.2083C28.5714 45.2812 28.5714 45.2812 28.6443 45.3542C28.7901 45.4271 29.0087 45.3542 29.0087 45.3542C29.0816 45.3542 29.1545 45.3542 29.2274 45.2812C29.2274 45.2812 29.2274 45.2812 29.3003 45.2083C29.3732 45.1354 29.446 45.1354 29.5189 45.1354V45.0625C29.5189 44.9167 29.5918 44.8437 29.7376 44.7708C29.7376 44.7708 29.8105 44.7708 29.8105 44.6979H29.8834H29.9562H30.0291C30.0291 44.625 30.102 44.625 30.1749 44.5521C30.3207 44.4792 30.5393 44.4792 30.6851 44.625C30.758 44.6979 30.758 44.7708 30.8309 44.8437V44.9167C30.8309 44.9896 30.8309 44.9896 30.8309 45.0625C30.8309 45.1354 30.8309 45.1354 30.8309 45.2083C30.9038 45.2083 31.0495 45.2083 31.1224 45.2083C31.1953 45.2083 31.1953 45.2083 31.2682 45.2083C31.3411 45.2083 31.414 45.2083 31.4869 45.2812C31.5597 45.2812 31.6326 45.2083 31.7055 45.2083C31.7784 45.2083 31.7784 45.2083 31.8513 45.2083H31.9242C31.9242 45.1354 31.9242 45.0625 31.9242 44.9896C31.9242 44.9167 31.9242 44.8437 31.9971 44.7708C31.9971 44.7708 31.9971 44.6979 32.0699 44.6979L32.1428 44.625C32.2886 44.5521 32.4344 44.5521 32.5802 44.625C32.653 44.625 32.653 44.6979 32.7259 44.7708C32.7988 44.7708 32.7988 44.7708 32.8717 44.7708H32.9446H33.0175C33.1632 44.8437 33.2361 44.9167 33.2361 45.0625C33.2361 45.0625 33.2361 45.0625 33.309 45.0625H33.3819C33.3819 45.0625 33.7463 45.0625 33.8192 45.1354H34.1837C34.2565 45.0625 34.2565 45.0625 34.3294 44.9896C34.4023 44.9167 34.5481 44.7708 34.621 44.6979C34.7667 44.625 34.8396 44.4792 34.9854 44.4062C35.2041 44.2604 35.4956 44.1875 35.7143 44.1146C36.4431 43.8229 36.516 43.3854 36.5889 43.3854C36.6618 43.4583 36.4431 44.625 35.9329 45.0625C36.2974 44.7708 36.6618 44.4062 36.8804 43.9687C36.8804 43.9687 36.8804 43.9687 36.8804 43.8958V43.8229C36.8804 43.75 36.8804 43.6771 36.8804 43.6042C36.8804 43.5312 36.8804 43.4583 36.8804 43.3854C37.0262 43.0208 37.172 42.8021 37.4635 42.875C37.6093 42.9479 37.6822 43.0208 37.7551 43.0937C37.828 43.2396 37.828 43.3854 37.7551 43.6042C37.7551 43.6771 37.6822 43.75 37.6093 43.8229C37.5364 43.8958 37.5364 43.8958 37.4635 43.9687L37.3906 44.0417V44.1146C37.3178 44.2604 37.2449 44.3333 37.0991 44.4792C37.172 44.4062 37.172 44.4062 37.2449 44.3333C37.6093 44.0417 37.828 43.8229 37.9008 43.6042C37.9737 43.3854 38.0466 43.1667 38.2653 42.875C38.6297 42.5104 38.7026 42.3646 39.067 42.1458C39.1399 42.0729 39.6501 42 39.723 42C39.7959 42.0729 39.3586 42.2187 39.2128 42.9479C39.1399 43.1667 39.067 43.5312 38.8484 43.8229C38.5568 44.1875 38.2653 44.2604 37.9008 44.4792L37.828 44.5521C37.7551 44.625 37.6822 44.625 37.5364 44.6979C37.3906 44.7708 37.3178 44.8437 37.2449 44.8437C37.4635 44.7708 37.6822 44.6979 37.9737 44.625C38.1924 44.4792 38.4839 44.4062 38.7755 44.4062C38.7755 44.4062 38.7755 44.3333 38.8484 44.3333C38.9213 44.2604 39.067 44.1875 39.2857 44.1146C39.6501 43.9687 39.9417 44.1146 40.0146 44.4792C40.0874 44.6979 40.0146 44.8437 39.9417 44.9167Z" fill="#13377D"/>
<path d="M52.6968 30.2604C53.7901 29.75 55.6123 28.5104 56.3411 27.6354C55.3207 27.2709 53.2799 27.0521 52.1137 27.0521C54.519 25.375 54.5919 21.875 53.9359 19.3229C53.3528 21.3646 51.8951 23.0417 50.9475 24.0625C51.0204 25.0834 50.7289 26.8334 50.1458 27.8542C50.9475 28.1459 51.8951 28.5834 52.551 29.0938C52.1137 29.6771 51.1662 30.4792 50.5831 30.9896C51.0933 31.5 51.8951 32.4479 52.3324 33.0313C51.7493 33.4688 50.5831 33.9063 49.9271 34.125C50.2187 34.7813 50.656 35.875 50.8018 36.6771C50.0729 36.8229 49.1254 36.8959 48.105 36.8959C48.1779 37.625 48.0321 38.7917 47.8863 39.5209C46.9388 39.4479 45.8455 39.0834 45.3353 38.7917C45.0438 39.8125 44.3878 40.8334 44.3878 40.9063C43.5131 39.8854 42.6385 39.5209 41.8368 39.5209V38.8646C42.6385 38.8646 43.5131 39.1563 44.1691 39.8125C44.4607 39.3021 44.7522 38.3542 44.898 37.7709C45.4811 38.0625 46.4286 38.4271 47.2303 38.5729C47.3032 37.8438 47.3761 36.8959 47.3032 36.1667C48.105 36.2396 48.9796 36.2396 49.9271 36.0938C49.7814 35.4375 49.1983 34.3438 48.8338 33.7604C49.6356 33.5417 50.656 33.1042 51.1662 32.8125C50.7289 32.2292 50 31.4271 49.4898 30.9167C50.0729 30.4792 51.0204 29.75 51.3849 29.3125C50.7289 28.875 49.8542 28.4375 49.1254 28.1459C50.1458 26.7604 50.3645 23.9167 50.1458 22.6042C49.2712 25.5938 46.6472 27.7813 45.0438 28.8021C44.9709 28.875 44.898 28.9479 44.8251 28.9479C44.7522 29.0209 44.4607 29.3854 44.6064 29.8229C44.6064 29.9688 44.6793 30.0417 44.6793 30.1875C44.8251 30.7709 44.8251 31.6459 43.9505 32.4479C43.2216 33.1042 42.347 33.1771 41.8368 33.1042V31.5C41.8368 31.2813 41.691 31.1354 41.4723 31.1354H40.379L39.8688 30.625C39.8688 30.625 40.379 30.625 40.9621 30.625C41.5452 30.5521 42.2012 30.2604 42.2012 30.2604C42.2012 30.2604 41.5452 30.2604 41.2537 30.1875C40.8892 30.2604 40.0875 29.8959 39.4315 29.1667C39.2128 28.875 38.9942 28.5834 38.8484 28.2917C38.2653 27.7813 37.6093 27.125 37.172 26.1771C36.8805 25.5209 36.7347 24.5729 36.6618 23.9896C36.4432 24.1354 36.2245 24.4271 35.933 24.7917C35.4228 25.4479 35.2041 26.3959 35.2041 26.3959L34.9854 27.125L34.621 26.4688C34.621 26.4688 34.1108 25.5938 34.0379 24.5C34.0379 23.9896 34.0379 23.5521 34.1108 23.1875C33.965 23.2604 33.7464 23.4063 33.5277 23.5521C32.6531 24.2084 32.1429 24.8646 32.1429 24.8646C31.7056 25.4479 31.414 25.9584 31.3411 26.1771C31.2682 25.8854 30.9767 25.4479 30.5394 24.8646C30.5394 24.8646 30.1021 24.1354 29.1545 23.5521C28.9359 23.4063 28.7172 23.2604 28.5714 23.1875C28.6443 23.5521 28.6443 24.0625 28.6443 24.5C28.5714 25.5938 28.0612 26.3959 28.0612 26.4688L27.6968 27.0521L27.4782 26.3229C27.4782 26.3229 27.1866 25.375 26.7493 24.7188C26.4577 24.3542 26.2391 24.0625 26.0204 23.9167C25.9475 24.5 25.8018 25.5209 25.5102 26.1042C25.0729 27.0521 24.4898 27.7813 23.8338 28.2188C23.6881 28.5104 23.4694 28.8021 23.2507 29.0938C22.5948 29.8229 21.793 30.1875 21.4286 30.2604C21.137 30.3334 20.4811 30.3334 20.4811 30.3334C20.4811 30.3334 21.137 30.625 21.7201 30.6979C22.3032 30.7709 22.8134 30.6979 22.8134 30.6979L22.3032 31.2084H21.2099C20.9913 31.2084 20.8455 31.3542 20.8455 31.5729V33.1771C20.3353 33.25 19.3878 33.1771 18.7318 32.5209C17.93 31.7188 17.8572 30.8438 18.0029 30.2604C18.0758 30.1875 18.0758 30.0417 18.0758 29.8959C18.2216 29.4584 17.93 29.0938 17.8572 29.0209C17.7843 28.9479 17.7114 28.875 17.6385 28.875C16.035 27.8542 13.484 25.6667 12.5365 22.6771C12.3178 23.9896 12.6093 26.7604 13.5569 28.2188C12.828 28.5104 11.8805 28.9479 11.2974 29.3854C11.6618 29.8229 12.6093 30.625 13.1924 30.9896C12.6822 31.4271 11.8805 32.3021 11.5161 32.8854C12.0263 33.1771 13.0467 33.6146 13.8484 33.8334C13.484 34.4167 12.9009 35.5104 12.7551 36.1667C13.6298 36.3125 14.5773 36.3125 15.379 36.2396C15.3061 36.9688 15.379 37.9896 15.4519 38.6459C16.2537 38.5 17.2012 38.2084 17.7843 37.8438C17.93 38.3542 18.2216 39.375 18.5131 39.8854C19.1691 39.2292 20.0438 38.9375 20.8455 38.9375V39.5938C20.0438 39.5938 19.1691 39.9584 18.2945 40.9792C18.2945 40.9063 17.6385 39.8854 17.347 38.8646C16.8368 39.0834 15.7435 39.5209 14.7959 39.5938C14.6502 38.8646 14.5773 37.6979 14.5773 36.9688C13.5569 36.9688 12.6093 36.8959 11.8805 36.75C12.0263 35.9479 12.4636 34.8542 12.7551 34.1979C12.0991 33.9792 10.933 33.4688 10.3499 33.1042C10.7143 32.5209 11.5889 31.5729 12.0991 31.0625C11.5161 30.625 10.5685 29.75 10.1312 29.1667C10.7872 28.6563 11.7347 28.2188 12.5365 27.9271C11.9534 26.8334 11.6618 25.0834 11.7347 24.1354C10.7143 23.1146 9.25658 21.4375 8.74637 19.3959C8.01751 21.9479 8.16328 25.5209 10.5685 27.125C9.40235 27.125 7.36153 27.4167 6.34113 27.7084C7.06999 28.5834 8.89215 29.75 9.98544 30.3334C9.1108 30.625 7.58019 31.5 6.92422 32.0834C7.72597 32.5938 9.54812 33.1771 10.4228 33.3959C9.91255 33.8334 8.89215 35 8.52771 35.5834C9.25658 35.8021 10.7143 36.0209 11.6618 36.0209C11.3703 36.6771 11.0058 37.7709 10.933 38.4271C11.3703 38.5 12.9009 38.4271 13.7026 38.2084C13.6298 38.8646 13.6298 39.9584 13.7755 40.4688C14.5044 40.3959 15.5977 40.0313 16.1079 39.8854C16.2537 40.4688 16.7639 41.6354 16.9825 41.9271C17.347 41.8542 17.7114 41.7813 18.0758 41.6354C19.0962 41.2709 20.1895 41.7084 20.6268 42.6563C21.3557 44.3334 21.0642 46.3021 19.6793 45.9375C18.0758 46.2292 19.1691 48.2709 18.2216 48.9271C19.4607 49.8021 19.8251 47.7604 21.4286 48.125C21.2828 48.8542 21.2828 50.2396 21.4286 50.8229C21.9388 50.4584 22.6677 50.1667 23.105 50.0938C22.9592 50.5313 22.8863 51.5521 23.0321 52.2084C23.3236 51.9896 25.4373 51.4063 25.4373 51.4063C25.4373 51.4063 24.6356 53.0104 25.1458 54.6146C25.4373 54.8334 27.3324 53.8854 27.3324 53.375C27.4053 54.0313 26.6035 55.4896 25.3644 55.7813C26.6764 57.0938 27.8426 57.0209 27.9884 57.0209C28.207 57.0209 28.3528 57.0209 28.4986 56.875C28.4257 57.2396 28.3528 57.75 28.4257 58.0417C28.4986 58.0417 28.5714 58.0417 28.6443 58.0417C29.0088 58.0417 29.3003 57.9688 29.519 57.8959C29.5919 58.2604 29.7376 58.625 29.9563 58.9167C30.0292 58.9896 30.0292 58.9896 30.1021 59.0625C30.3936 59.0625 31.1225 58.6979 31.2682 58.4792C31.414 58.6979 32.1429 59.0625 32.4344 59.0625C32.5073 58.9896 32.5802 58.9896 32.5802 58.9167C32.8717 58.625 33.0175 58.1875 33.0175 57.8959C33.3091 58.0417 33.6006 58.0417 33.8921 58.0417C33.965 58.0417 34.0379 58.0417 34.1108 58.0417C34.1837 57.75 34.1837 57.2396 34.0379 56.875C34.1837 56.9479 34.4024 57.0209 34.5481 57.0209C34.6939 57.0209 35.8601 57.0938 37.172 55.7813C35.933 55.4896 35.1312 54.0313 35.2041 53.375C35.2041 53.9584 37.0991 54.8334 37.3907 54.6146C37.9009 53.0104 37.0991 51.4063 37.0991 51.4063C37.0991 51.4063 39.14 51.9167 39.5044 52.2084C39.6502 51.5521 39.5773 50.5313 39.4315 50.0938C39.8688 50.0938 40.5977 50.4584 41.1079 50.8229C41.2537 50.2396 41.2537 48.9271 41.1079 48.125C42.6385 47.7604 43.0029 49.8021 44.3149 48.9271C43.4403 48.2709 44.5335 46.2292 42.8572 45.9375C41.4723 46.375 41.1808 44.3334 41.9096 42.6563C42.347 41.7084 43.5131 41.2709 44.4607 41.6354C44.8251 41.7813 45.1895 41.8542 45.554 41.9271C45.6997 41.6354 46.2828 40.4688 46.4286 39.8854C46.9388 40.1042 48.0321 40.3959 48.761 40.4688C48.8338 39.9584 48.9067 38.8646 48.8338 38.2084C49.5627 38.3542 51.1662 38.4271 51.6035 38.4271C51.5306 37.6979 51.1662 36.6042 50.8747 36.0209C51.8222 35.9479 53.2799 35.8021 54.0088 35.5834C53.6443 34.9271 52.6239 33.7604 52.1137 33.3959C52.9884 33.1771 54.8105 32.5938 55.6123 32.0834C55.1021 31.4271 53.5714 30.5521 52.6968 30.2604ZM40.8892 46.6667C40.8163 46.8125 40.7435 46.8854 40.6706 47.0313C40.6706 47.1042 40.5977 47.1042 40.5977 47.1771C40.5248 47.25 40.4519 47.3229 40.379 47.4688C40.3061 47.5417 40.3061 47.5417 40.2333 47.6146C40.1604 47.7604 40.0146 47.8334 39.9417 47.9792C39.8688 48.0521 39.7959 48.125 39.723 48.1979C39.6502 48.2709 39.5773 48.3438 39.5044 48.4167C39.4315 48.4896 39.3586 48.5625 39.2128 48.7084C39.14 48.7813 39.14 48.7813 39.0671 48.8542C38.8484 49.0729 38.5569 49.2917 38.2653 49.4375C37.9009 49.7292 37.5365 49.9479 37.0991 50.1667C36.9534 50.2396 36.8076 50.3125 36.6618 50.3854C33.3819 52.0625 31.7784 53.375 31.2682 53.7396H31.1954C30.6851 53.3021 29.0817 52.0625 25.8018 50.3854C25.656 50.3125 25.5102 50.2396 25.3644 50.1667C24.9271 49.9479 24.5627 49.7292 24.1983 49.4375C23.9067 49.2188 23.6881 49 23.3965 48.8542C23.3236 48.7813 23.2507 48.7813 23.2507 48.7084C23.1779 48.6354 23.0321 48.5625 22.9592 48.4167C22.8863 48.3438 22.8134 48.2709 22.7405 48.1979C22.6677 48.125 22.5948 48.0521 22.5219 47.9792C22.3761 47.8334 22.3032 47.7604 22.2303 47.6146C22.1575 47.5417 22.1575 47.5417 22.0846 47.4688C22.0117 47.3959 21.9388 47.3229 21.8659 47.1771C21.8659 47.1042 21.793 47.1042 21.793 47.0313C21.7201 46.8854 21.6472 46.8125 21.5744 46.6667C21.137 45.7188 21.2099 44.9167 21.2099 44.9167V32.1563C21.2099 31.9375 21.3557 31.7917 21.5744 31.7917H22.6677H31.3411H39.723H40.8163C41.035 31.7917 41.1808 31.9375 41.1808 32.1563V44.9167C41.2537 44.9167 41.3265 45.7188 40.8892 46.6667Z" fill="#13377D"/>
<path d="M40.4519 11.6666C40.7434 11.6666 40.8892 11.4479 40.8892 11.1562C40.8892 10.8646 40.6706 10.6458 40.4519 10.6458C40.1604 10.6458 40.0146 10.8646 40.0146 11.1562C40.0146 11.4479 40.2332 11.6666 40.4519 11.6666Z" fill="#13377D"/>
<path d="M40.4519 14.3646C40.7434 14.3646 41.035 13.125 41.035 12.5416C41.035 12.1771 40.7434 11.9583 40.4519 11.9583C40.1603 11.9583 39.8688 12.1771 39.8688 12.5416C39.8688 13.125 40.1603 14.3646 40.4519 14.3646Z" fill="#13377D"/>
<path d="M40.1604 9.91667H40.8164L40.6706 9.11458L41.4723 9.1875V8.53125L40.6706 8.67708L40.8164 7.875H40.1604L40.2333 8.67708L39.4315 8.53125V9.1875L40.2333 9.11458L40.1604 9.91667Z" fill="#13377D"/>
<path d="M37.6093 15.8229C37.828 15.8959 38.0467 15.8959 38.2653 15.9688H38.3382H38.4111C38.484 15.9688 38.484 15.9688 38.484 15.9688H38.6298C38.7026 15.9688 38.7755 15.9688 38.8484 15.9688C38.9213 15.9688 38.9213 15.9688 38.9942 15.9688C39.0671 15.9688 39.14 15.9688 39.2128 15.9688C39.7959 15.9688 40.379 15.8229 40.9621 15.6771C41.5452 15.5313 42.1283 15.3854 42.7843 15.3854H42.8572H42.93H43.0029H43.0758H43.1487H43.2216C43.3674 14.7292 43.586 14 43.586 13.5625C43.586 12.6875 43.0758 11.7396 41.3994 11.4479C41.3994 12.5417 40.8892 15.0938 40.3061 15.0938H40.2333C39.6502 15.0938 39.14 12.5417 39.14 11.4479C37.4636 11.7396 36.9534 12.6875 36.9534 13.5625C36.9534 14.0729 37.172 15.0209 37.3907 15.6771C37.6093 15.75 37.6093 15.75 37.6093 15.8229Z" fill="#13377D"/>
<path d="M46.3557 11.2292C46.3557 11.2292 45.9184 10.0625 46.6473 9.69792C47.449 9.40625 46.3557 9.55208 46.9388 7.94792C47.5948 6.05209 49.0525 6.48959 49.0525 6.48959C48.0321 5.6875 47.2303 5.76042 46.6473 6.19792C46.2828 6.48959 45.7726 7.07292 45.4082 8.23959C45.1166 9.69792 45.6268 11.0833 46.3557 11.2292Z" fill="#13377D"/>
<path d="M50.1458 8.38544C50.2187 10.7917 54.2274 11.8125 54.2274 11.8125C54.2274 11.8125 51.8951 10.1354 52.3324 8.89586C52.3324 8.89586 53.863 9.55211 55.6123 9.26044C51.8951 8.45836 53.1341 7.29169 52.1866 6.34377C51.2391 5.32294 49.7814 5.25002 49.4169 5.17711C48.4694 5.10419 48.3965 5.10419 47.3032 5.39586C49.8542 5.46877 50.1458 6.78127 50.1458 8.38544Z" fill="#13377D"/>
<path d="M49.6356 12.9062C50.1458 11.0104 49.1982 10.1354 49.1982 10.1354C48.9067 9.7708 47.3761 9.84372 46.793 10.2083C46.793 10.2083 48.2507 10.2083 48.0321 12.3229C47.8134 14.4375 44.898 14.875 44.0962 14.9479L44.0233 15.2396C45.4082 15.2396 49.0525 14.8021 49.6356 12.9062Z" fill="#13377D"/>
<path d="M34.4023 12.8333H32.9446C33.6734 14.875 35.7871 15.5312 37.172 15.75L37.0991 15.5312C35.6414 14.9479 34.9125 14.3646 34.4023 12.8333Z" fill="#13377D"/>
<path d="M22.3032 11.6666C22.5947 11.6666 22.7405 11.4479 22.7405 11.1562C22.7405 10.8646 22.5218 10.6458 22.3032 10.6458C22.0116 10.6458 21.8659 10.8646 21.8659 11.1562C21.793 11.4479 22.0116 11.6666 22.3032 11.6666Z" fill="#13377D"/>
<path d="M22.3032 14.3646C22.5947 14.3646 22.8863 13.125 22.8863 12.5416C22.8863 12.1771 22.5947 11.9583 22.3032 11.9583C22.0116 11.9583 21.7201 12.1771 21.7201 12.5416C21.7201 13.125 21.9388 14.3646 22.3032 14.3646Z" fill="#13377D"/>
<path d="M21.9388 9.91667H22.5947L22.5218 9.11458L23.3236 9.1875V8.53125L22.5218 8.67708L22.5947 7.875H21.9388L22.0845 8.67708L21.2828 8.53125V9.1875L22.0845 9.11458L21.9388 9.91667Z" fill="#13377D"/>
<path d="M19.3878 15.3854H19.4607H19.5335H19.6793C19.7522 15.3854 19.7522 15.3854 19.7522 15.3854H19.8251C20.4811 15.4583 21.137 15.5312 21.6472 15.6771C22.1574 15.8229 22.8134 15.9687 23.3965 15.9687C23.4694 15.9687 23.5423 15.9687 23.6152 15.9687C23.6881 15.9687 23.6881 15.9687 23.7609 15.9687C23.8338 15.9687 23.9067 15.9687 23.9796 15.9687H24.1254H24.1983H24.2711H24.344C24.5627 15.9687 24.7814 15.8958 25 15.8229C25 15.75 25 15.75 25.0729 15.75C25.2916 15.0937 25.5102 14.1458 25.5102 13.6354C25.5102 12.7604 25.0729 11.8125 23.3236 11.5208C23.3236 12.5416 22.8134 15.1666 22.2303 15.1666H22.1574C21.5744 15.1666 21.0642 12.6146 21.0642 11.5208C19.3878 11.8125 18.8776 12.7604 18.8776 13.6354C18.8776 14.0729 19.0233 14.8021 19.242 15.4583C19.3149 15.3854 19.3149 15.3854 19.3878 15.3854Z" fill="#13377D"/>
<path d="M13.6298 6.48957C13.6298 6.48957 15.0875 6.05207 15.7435 7.9479C16.3266 9.55207 15.2333 9.40624 16.035 9.6979C16.8368 9.98957 16.3266 11.2292 16.3266 11.2292C17.1283 11.0833 17.6385 9.6979 17.2012 8.16665C16.8368 6.99999 16.3266 6.41665 15.9621 6.12499C15.379 5.7604 14.6502 5.68749 13.6298 6.48957Z" fill="#13377D"/>
<path d="M10.3498 8.89581C10.7872 10.1354 8.4548 11.8125 8.4548 11.8125C8.4548 11.8125 12.5364 10.7916 12.5364 8.3854C12.6093 6.78123 12.828 5.46873 15.3061 5.39581C14.2128 5.17706 14.1399 5.17706 13.1924 5.17706C12.828 5.17706 11.3702 5.3229 10.4227 6.34373C9.54809 7.29165 10.7143 8.45831 6.99707 9.2604C8.81923 9.55206 10.3498 8.89581 10.3498 8.89581Z" fill="#13377D"/>
<path d="M14.723 12.3229C14.5044 10.2084 15.9621 10.2084 15.9621 10.2084C15.4519 9.84378 13.9213 9.84378 13.5569 10.1354C13.5569 10.1354 12.6093 10.9375 13.1195 12.9063C13.6298 14.8021 17.347 15.2396 18.7318 15.2396L18.6589 14.9479C17.8572 14.875 14.9417 14.4375 14.723 12.3229Z" fill="#13377D"/>
<path d="M29.8105 12.8333H28.3528C27.8425 14.3646 27.1137 14.9479 25.656 15.5312L25.5831 15.75C27.0408 15.5312 29.0816 14.875 29.8105 12.8333Z" fill="#13377D"/>
<path d="M33.2362 21.8021C32.7989 22.4584 32.4344 23.1875 32.1429 23.9167C32.3615 23.625 32.726 23.3334 33.0904 23.0417C33.7464 22.6042 34.3295 22.3125 34.3295 22.3125L34.9126 22.0938L34.7668 22.6771C34.7668 22.6771 34.5481 23.625 34.621 24.4271C34.621 24.7917 34.7668 25.1563 34.8397 25.375C34.9854 25.0104 35.2041 24.6459 35.4228 24.2813C36.1516 23.3334 36.7347 22.9688 36.7347 22.9688L37.172 22.75V23.2604C37.172 23.2604 37.3178 24.9375 37.6822 25.8125C38.3382 27.2709 39.5773 28.0729 40.3061 28.4375C40.2333 28.3646 40.0875 28.2188 39.9417 28.0729C39.5773 27.7084 39.2129 27.0521 38.9942 25.6667C38.8484 24.5 39.2857 23.3334 39.4315 22.9688C39.5044 23.2604 39.6502 23.5521 39.7959 23.625C39.7959 23.625 39.7959 23.3334 39.8688 23.0417C40.0146 22.2396 40.8892 21 42.0554 20.2709C42.2741 20.125 42.4927 19.9792 42.6385 19.9063C42.8572 19.8334 43.0029 19.6875 43.1487 19.5417C42.9301 19.5417 42.6385 19.6146 42.4199 19.6146H42.347C42.2012 19.6146 41.9825 19.6146 41.691 19.6146C41.1079 19.6146 40.4519 19.5417 39.9417 19.1042C39.4315 18.6667 39.2129 18.2292 39.14 17.9375C38.9213 17.9375 38.6298 17.9375 38.2653 17.9375C37.828 17.9375 37.4636 17.7917 37.2449 17.7917C36.6618 18.1563 36.0787 18.3021 35.3499 18.375C35.277 18.375 35.1312 18.375 35.0583 18.375C35.277 18.5938 35.5685 18.7396 35.7872 18.8854C35.7872 18.8854 35.7872 18.8854 35.8601 18.8854L35.7143 18.9584C35.7872 18.8854 34.7668 19.4688 33.2362 21.8021Z" fill="#13377D"/>
<path d="M42.7842 17.7188C42.4927 17.7188 42.274 17.7188 41.9825 17.7188C41.9825 17.8646 41.9825 18.0104 41.9825 18.1563C42.0554 18.375 42.1283 18.5208 42.274 18.6667C42.4927 18.5208 42.7113 18.1563 42.7842 17.7188Z" fill="#13377D"/>
<path d="M43.3673 16.0417C43.2945 16.0417 43.2945 16.0417 43.3673 16.0417H43.2945C43.2945 16.0417 43.2945 16.0417 43.2216 16.0417C43.1487 16.0417 43.1487 16.0417 43.0758 16.0417C42.4927 16.0417 41.9096 16.1875 41.3265 16.3334C40.7434 16.4792 40.0875 16.625 39.5044 16.625C39.3586 16.625 39.2857 16.625 39.1399 16.625C39.067 16.625 38.9942 16.625 38.9213 16.625C38.8484 16.625 38.8484 16.625 38.7755 16.625C38.7026 16.625 38.7026 16.625 38.6297 16.625C38.6297 16.625 38.6297 16.625 38.5568 16.625C38.5568 16.625 38.5568 16.625 38.484 16.625C37.172 16.4792 36.2974 16.0417 35.86 15.8229C35.9329 15.9688 36.0787 16.1146 36.2974 16.3334C36.3702 16.4063 36.4431 16.4792 36.516 16.5521C36.6618 16.6979 36.8805 16.8438 37.0991 16.9896C37.3907 17.1354 38.6297 17.6459 40.2332 17.4271C42.0554 17.1354 42.4198 17.2084 42.8571 17.2084H43.0029C43.6589 17.2813 44.6064 17.6459 44.9708 17.8646C45.1166 17.5 45.3353 17.1354 45.4082 16.7709C45.3353 16.6979 45.1895 16.5521 44.8979 16.4063C44.8251 16.3334 44.7522 16.3334 44.6064 16.2604C44.4606 16.1875 44.242 16.1146 43.9504 16.1146C43.6589 16.0417 43.5131 16.0417 43.3673 16.0417Z" fill="#13377D"/>
<path d="M48.4694 22.0208C48.3965 22.0208 47.7405 22.3854 46.3557 21.5104C44.9708 20.6354 43.9504 20.2708 43.3674 20.125C43.2216 20.1979 43.1487 20.2708 43.0029 20.3437C42.8571 20.4167 42.6385 20.5625 42.4198 20.7083C42.3469 20.7812 42.2741 20.7812 42.2012 20.8542C42.2012 20.8542 42.2741 20.8542 42.3469 20.8542C43.6589 21 44.6793 21.7292 44.7522 22.0208H44.8251C44.9709 21.5833 44.7522 21.2187 44.7522 21.2187C44.7522 21.2187 45.3353 21.5833 46.5015 22.2396C47.7405 23.0417 48.2507 22.3125 48.4694 22.0208Z" fill="#13377D"/>
<path d="M41.5452 18.4479C41.4723 18.375 41.3994 18.2291 41.3265 18.1562C41.2536 18.0104 41.2536 17.9375 41.2536 17.8646C40.9621 17.8646 40.5976 17.9375 40.1603 18.0104C40.0874 18.0104 39.9417 18.0104 39.8688 18.0104C40.0874 18.4479 40.4519 18.8854 41.1807 19.0312C41.2536 19.0312 41.2536 19.0312 41.3265 19.0312C41.3994 19.0312 41.3994 19.0312 41.4723 19.0312C41.7638 19.1041 42.1282 19.1041 42.3469 19.1041C42.8571 19.1041 43.4402 19.0312 44.0233 18.8854C44.1691 18.7396 44.2419 18.5208 44.3877 18.375C44.3877 18.375 44.3148 18.3021 44.2419 18.3021C44.0962 18.2291 43.7317 18.0104 43.5131 17.9375C43.4402 18.1562 43.2944 18.375 43.1487 18.5208C42.93 18.6666 42.6384 18.7396 42.3469 18.7396C42.0554 18.7396 41.7638 18.6666 41.618 18.5208C41.5452 18.5208 41.5452 18.4479 41.5452 18.4479Z" fill="#13377D"/>
<path d="M45.4081 17.3542C44.9708 18.5209 44.242 19.3959 43.7318 19.8334C47.0116 18.9584 47.5947 20.6354 47.5947 20.7084C47.5947 20.7813 47.5947 20.7813 47.6676 20.7084C47.7405 20.6354 48.8338 19.4688 48.032 18.375C47.3761 17.5 45.9183 17.3542 45.4081 17.3542ZM45.4081 18.2292C45.5539 18.0834 45.6268 17.7917 45.6268 17.7917C45.8455 17.7917 46.2828 17.8646 46.2828 18.1563C45.9912 18.0834 45.6268 18.0834 45.4081 18.2292Z" fill="#13377D"/>
<path d="M20.7726 18.1563C20.7726 18.0104 20.7726 17.8646 20.7726 17.7188C20.481 17.7188 20.1895 17.7188 19.9708 17.7188C20.0437 18.1563 20.2624 18.5208 20.481 18.6667C20.6268 18.5208 20.6997 18.375 20.7726 18.1563Z" fill="#13377D"/>
<path d="M24.4898 16.5521C24.4169 16.5521 24.4169 16.5521 24.4898 16.5521C24.4169 16.5521 24.4169 16.5521 24.4169 16.5521C24.4169 16.5521 24.4169 16.5521 24.344 16.5521C24.2711 16.5521 24.2711 16.5521 24.1982 16.5521C24.1253 16.5521 24.1253 16.5521 24.0525 16.5521C23.9796 16.5521 23.9067 16.5521 23.8338 16.5521C23.688 16.5521 23.6151 16.5521 23.4694 16.5521C22.8134 16.5521 22.2303 16.4062 21.6472 16.2604C20.9912 16.1875 20.4081 16.0417 19.8251 16.0417C19.7522 16.0417 19.7522 16.0417 19.6793 16.0417C19.6793 16.0417 19.6793 16.0417 19.6064 16.0417C19.4606 16.0417 19.3149 16.0417 19.242 16.0417C18.9504 16.0417 18.7318 16.1146 18.586 16.1875C18.5131 16.2604 18.3673 16.2604 18.2944 16.3333C18.0758 16.4792 17.93 16.5521 17.7842 16.6979C17.8571 17.0625 18.0758 17.5 18.2216 17.7917C18.586 17.5729 19.5335 17.1354 20.1895 17.1354H20.3353C20.7726 17.1354 21.137 17.0625 22.9592 17.3542C24.5627 17.5729 25.7288 17.0625 26.0933 16.9167C26.3119 16.7708 26.5306 16.625 26.6764 16.4792C26.7493 16.4062 26.8221 16.3333 26.895 16.2604C27.0408 16.0417 27.1866 15.8958 27.3323 15.75C26.6764 15.9687 25.8017 16.4062 24.4898 16.5521Z" fill="#13377D"/>
<path d="M14.2857 22.0208C14.5044 22.2396 15.0146 23.0416 16.1807 22.3854C17.3469 21.7291 17.93 21.3646 17.93 21.3646C17.93 21.3646 17.7114 21.7291 17.8571 22.1666C17.8571 22.1666 17.8571 22.1666 17.93 22.1666C18.0758 21.875 19.0962 21.0729 20.3353 21C20.4082 21 20.4082 21 20.481 21C20.4082 20.9271 20.3353 20.9271 20.2624 20.8541C20.0437 20.7083 19.8251 20.5625 19.6793 20.4896C19.5335 20.4166 19.4606 20.3437 19.3149 20.2708C18.7318 20.3437 17.7114 20.7812 16.3265 21.6562C15.0146 22.3854 14.3586 22.0208 14.2857 22.0208Z" fill="#13377D"/>
<path d="M19.242 17.9375C19.0962 18.0104 18.6589 18.2291 18.5131 18.3021C18.4403 18.3021 18.4403 18.375 18.3674 18.375C18.5131 18.5937 18.586 18.7396 18.7318 18.8854C19.3149 19.0312 19.898 19.1041 20.4082 19.1041C20.6997 19.1041 20.9913 19.1041 21.2828 19.0312C21.3557 19.0312 21.3557 19.0312 21.4286 19.0312C21.5015 19.0312 21.5015 19.0312 21.5744 19.0312C22.3032 18.8854 22.7405 18.375 22.8863 18.0104C22.8134 18.0104 22.6677 18.0104 22.5948 18.0104C22.1575 17.9375 21.793 17.8646 21.5015 17.8646C21.5015 17.9375 21.4286 18.0833 21.4286 18.1562C21.3557 18.3021 21.2828 18.375 21.2099 18.4479L21.1371 18.5208C20.9184 18.6666 20.6997 18.7396 20.4082 18.7396C20.1166 18.7396 19.8251 18.6666 19.6064 18.5208C19.3878 18.375 19.3149 18.1562 19.242 17.9375Z" fill="#13377D"/>
<path d="M14.6501 18.375C13.8484 19.4688 14.9417 20.6354 15.0146 20.7084C15.0875 20.7813 15.0875 20.7084 15.0875 20.7084C15.0875 20.6354 15.6705 18.9584 18.9504 19.8334C18.4402 19.3959 17.7114 18.5209 17.274 17.3542C16.8367 17.3542 15.3061 17.5 14.6501 18.375ZM17.3469 18.2292C17.1283 18.0834 16.7638 18.0834 16.4723 18.1563C16.4723 17.8646 16.9096 17.7917 17.1283 17.7917C17.1283 17.7917 17.2012 18.0834 17.3469 18.2292Z" fill="#13377D"/>
<path d="M27.6239 18.375C27.551 18.375 27.4052 18.375 27.3323 18.375C26.6035 18.375 26.0204 18.1563 25.4373 17.7917C25.2186 17.8646 24.7813 17.9375 24.4169 17.9375C24.0525 17.9375 23.688 17.9375 23.5423 17.9375C23.4694 18.2292 23.2507 18.7396 22.7405 19.1042C22.2303 19.5417 21.5743 19.6146 20.9912 19.6146C20.6997 19.6146 20.481 19.6146 20.3353 19.6146H20.2624C20.1166 19.6146 19.8251 19.5417 19.5335 19.5417C19.7522 19.6875 19.8979 19.7604 20.0437 19.9063C20.1895 19.9792 20.4081 20.125 20.6268 20.2709C21.793 21.0729 22.6676 22.2396 22.8134 23.0417C22.8863 23.3334 22.8863 23.625 22.8863 23.625C23.0321 23.5521 23.1778 23.2604 23.2507 22.9688C23.3965 23.3334 23.9067 24.5 23.688 25.6667C23.4694 27.0521 23.1049 27.7084 22.7405 28.0729C22.5947 28.2188 22.449 28.3646 22.3761 28.4375C23.1049 28.0729 24.344 27.2709 25 25.8125C25.3644 25.0104 25.5102 23.3334 25.5102 23.3334V22.8229L25.9475 23.0417C25.9475 23.0417 26.6035 23.4063 27.2595 24.3542C27.4781 24.7188 27.6968 25.0834 27.8425 25.4479C27.9154 25.1563 27.9883 24.8646 28.0612 24.5C28.1341 23.625 27.9154 22.75 27.9154 22.75L27.7697 22.1667L28.3528 22.3854C28.3528 22.3854 28.9358 22.6042 29.5918 23.1146C30.0291 23.4063 30.3207 23.6979 30.5393 23.9896C30.2478 23.2604 29.9563 22.5313 29.446 21.875C27.9154 19.5417 26.9679 19.0313 26.9679 19.0313L26.8221 18.9584C26.8221 18.9584 26.8221 18.9584 26.895 18.9584C27.1137 18.7396 27.4052 18.5209 27.6239 18.375Z" fill="#13377D"/>
</g>
<defs>
<clipPath id="clip0_8_29">
<rect width="250" height="70" fill="white"/>
</clipPath>
</defs>
</svg>
