<svg width="20" height="12" viewBox="0 0 20 12" fill="none" xmlns="http://www.w3.org/2000/svg">
<path d="M19.8132 5.42667C17.2048 1.92889 13.7187 0 10 0C6.28125 0 2.79518 1.92889 0.186754 5.42667C-0.0622512 5.76 -0.0622512 6.23556 0.186754 6.56889C2.79518 10.0711 6.28125 12 10 12C13.7187 12 17.2048 10.0711 19.8132 6.57333C20.0623 6.24 20.0623 5.76 19.8132 5.42667ZM10 8.97333C8.49372 8.97333 7.26911 7.64 7.26911 6C7.26911 4.36 8.49372 3.02667 10 3.02667C11.5063 3.02667 12.7309 4.36 12.7309 6C12.7309 7.64 11.5063 8.97333 10 8.97333ZM1.92571 6C3.46872 4.12444 5.30973 2.84 7.2936 2.22667C6.26492 3.10222 5.59955 4.46667 5.59955 6C5.59955 7.52889 6.26084 8.89333 7.2936 9.77333C5.30973 9.16 3.4728 7.87556 1.92571 6ZM12.7064 9.77333C13.7351 8.89778 14.4004 7.53333 14.4004 6C14.4004 4.47111 13.7392 3.10667 12.7064 2.22667C14.6903 2.84 16.5313 4.12444 18.0743 6C16.5272 7.87556 14.6903 9.16 12.7064 9.77333Z" fill="#8B8B8B"/>
</svg>
